<?xml version="1.0" encoding="UTF-8" standalone="no"?>
<!-- Created with Inkscape (http://www.inkscape.org/) -->

<svg
   xmlns:dc="http://purl.org/dc/elements/1.1/"
   xmlns:cc="http://creativecommons.org/ns#"
   xmlns:rdf="http://www.w3.org/1999/02/22-rdf-syntax-ns#"
   xmlns:svg="http://www.w3.org/2000/svg"
   xmlns="http://www.w3.org/2000/svg"
   xmlns:xlink="http://www.w3.org/1999/xlink"
   xmlns:sodipodi="http://sodipodi.sourceforge.net/DTD/sodipodi-0.dtd"
   xmlns:inkscape="http://www.inkscape.org/namespaces/inkscape"
   sodipodi:docname="clim_off.svg"
   inkscape:version="0.47pre4 r22446"
   version="1.1"
   id="svg2"
   height="297mm"
   width="210mm">
  <sodipodi:namedview
     id="base"
     pagecolor="#ffffff"
     bordercolor="#666666"
     borderopacity="1.0"
     inkscape:pageopacity="0.0"
     inkscape:pageshadow="2"
     inkscape:zoom="1.3721512"
     inkscape:cx="315.19792"
     inkscape:cy="703.97597"
     inkscape:document-units="px"
     inkscape:current-layer="layer4"
     showgrid="false"
     inkscape:window-width="1363"
     inkscape:window-height="968"
     inkscape:window-x="221"
     inkscape:window-y="25"
     inkscape:window-maximized="0"
     showguides="true"
     inkscape:guide-bbox="true"
     inkscape:object-paths="false"
     inkscape:snap-intersection-paths="false"
     inkscape:object-nodes="false"
     inkscape:snap-smooth-nodes="false"
     inkscape:snap-midpoints="false" />
  <defs
     id="defs4">
    <linearGradient
       inkscape:collect="always"
       id="linearGradient4659">
      <stop
         style="stop-color:#ffffff;stop-opacity:0.5"
         offset="0"
         id="stop4661" />
      <stop
         style="stop-color:#ffffff;stop-opacity:0;"
         offset="1"
         id="stop4663" />
    </linearGradient>
    <linearGradient
       inkscape:collect="always"
       id="linearGradient13613">
      <stop
         style="stop-color:#ffffff;stop-opacity:1;"
         offset="0"
         id="stop13615" />
      <stop
         style="stop-color:#ffffff;stop-opacity:0;"
         offset="1"
         id="stop13617" />
    </linearGradient>
    <linearGradient
       id="linearGradient10207"
       inkscape:collect="always">
      <stop
         id="stop10209"
         offset="0"
         style="stop-color:#ffffff;stop-opacity:1;" />
      <stop
         id="stop10211"
         offset="1"
         style="stop-color:#ffffff;stop-opacity:0;" />
    </linearGradient>
    <linearGradient
       id="linearGradient9955"
       inkscape:collect="always">
      <stop
         id="stop9957"
         offset="0"
         style="stop-color:#ffffff;stop-opacity:1;" />
      <stop
         id="stop9959"
         offset="1"
         style="stop-color:#ffffff;stop-opacity:0;" />
    </linearGradient>
    <linearGradient
       id="linearGradient9879">
      <stop
         id="stop9881"
         offset="0"
         style="stop-color:#bdcb2f;stop-opacity:1;" />
      <stop
         style="stop-color:#bbc63b;stop-opacity:0.49803922;"
         offset="1"
         id="stop9887" />
    </linearGradient>
    <linearGradient
       id="linearGradient4921">
      <stop
         id="stop4923"
         offset="0"
         style="stop-color:#b9c248;stop-opacity:0.39215687;" />
      <stop
         style="stop-color:#b9c248;stop-opacity:0;"
         offset="1"
         id="stop4925" />
    </linearGradient>
    <linearGradient
       id="linearGradient6357"
       inkscape:collect="always">
      <stop
         id="stop6359"
         offset="0"
         style="stop-color:#ffffff;stop-opacity:1;" />
      <stop
         id="stop6361"
         offset="1"
         style="stop-color:#ffffff;stop-opacity:0;" />
    </linearGradient>
    <linearGradient
       id="linearGradient6349"
       inkscape:collect="always">
      <stop
         id="stop6351"
         offset="0"
         style="stop-color:#ffffff;stop-opacity:1;" />
      <stop
         id="stop6353"
         offset="1"
         style="stop-color:#ffffff;stop-opacity:0;" />
    </linearGradient>
    <linearGradient
       id="linearGradient6297">
      <stop
         id="stop6299"
         offset="0"
         style="stop-color:#cccccc;stop-opacity:1;" />
      <stop
         style="stop-color:#ffffff;stop-opacity:0"
         offset="1"
         id="stop6301" />
    </linearGradient>
    <linearGradient
       id="linearGradient4290">
      <stop
         style="stop-color:#ffffff;stop-opacity:1;"
         offset="0"
         id="stop4292" />
      <stop
         id="stop5784"
         offset="1"
         style="stop-color:#ffffff;stop-opacity:0;" />
    </linearGradient>
    <linearGradient
       id="linearGradient4282">
      <stop
         style="stop-color:#9bb528;stop-opacity:1;"
         offset="0"
         id="stop4284" />
      <stop
         id="stop4286"
         offset="1"
         style="stop-color:#cdda93;stop-opacity:0.49803922;" />
      <stop
         style="stop-color:#ffffff;stop-opacity:0"
         offset="1"
         id="stop4288" />
    </linearGradient>
    <linearGradient
       id="linearGradient3865">
      <stop
         id="stop3867"
         offset="0"
         style="stop-color:#9bb528;stop-opacity:1;" />
      <stop
         style="stop-color:#cdda93;stop-opacity:0.49803922;"
         offset="0.5"
         id="stop4280" />
      <stop
         id="stop3869"
         offset="1"
         style="stop-color:#ffffff;stop-opacity:0" />
    </linearGradient>
    <linearGradient
       id="linearGradient3843"
       inkscape:collect="always">
      <stop
         id="stop3845"
         offset="0"
         style="stop-color:#9bb528;stop-opacity:1;" />
      <stop
         id="stop3847"
         offset="1"
         style="stop-color:#9bb528;stop-opacity:0;" />
    </linearGradient>
    <linearGradient
       id="linearGradient3813">
      <stop
         style="stop-color:#b9c248;stop-opacity:0.07843138;"
         offset="0"
         id="stop3821" />
      <stop
         id="stop3817"
         offset="1"
         style="stop-color:#b9c248;stop-opacity:0;" />
    </linearGradient>
    <inkscape:perspective
       id="perspective10"
       inkscape:persp3d-origin="372.04724 : 350.78739 : 1"
       inkscape:vp_z="744.09448 : 526.18109 : 1"
       inkscape:vp_y="0 : 1000 : 0"
       inkscape:vp_x="0 : 526.18109 : 1"
       sodipodi:type="inkscape:persp3d" />
    <inkscape:perspective
       sodipodi:type="inkscape:persp3d"
       inkscape:vp_x="0 : 0.5 : 1"
       inkscape:vp_y="0 : 1000 : 0"
       inkscape:vp_z="1 : 0.5 : 1"
       inkscape:persp3d-origin="0.5 : 0.33333333 : 1"
       id="perspective3701" />
    <linearGradient
       gradientTransform="matrix(1.0001342,0,0,0.50233787,-0.04494178,129.69514)"
       gradientUnits="userSpaceOnUse"
       y2="146.18651"
       x2="334.86609"
       y1="260.63184"
       x1="334.86609"
       id="linearGradient3849"
       xlink:href="#linearGradient3843"
       inkscape:collect="always" />
    <linearGradient
       gradientTransform="matrix(1.0001357,0,0,-0.49783441,-0.04543317,161.50419)"
       y2="146.18651"
       x2="334.86609"
       y1="260.63184"
       x1="334.86609"
       gradientUnits="userSpaceOnUse"
       id="linearGradient3853"
       xlink:href="#linearGradient3843"
       inkscape:collect="always" />
    <linearGradient
       gradientUnits="userSpaceOnUse"
       y2="260.58899"
       x2="334.86609"
       y1="145.67133"
       x1="334.86609"
       id="linearGradient3871"
       xlink:href="#linearGradient3865"
       inkscape:collect="always" />
    <linearGradient
       gradientTransform="matrix(1,0,0,-1,0.25766359,291.53153)"
       y2="260.58899"
       x2="334.86609"
       y1="145.67133"
       x1="334.86609"
       gradientUnits="userSpaceOnUse"
       id="linearGradient3875"
       xlink:href="#linearGradient3865"
       inkscape:collect="always" />
    <radialGradient
       gradientTransform="matrix(0.992477,1.594308e-7,-1.5943072e-7,0.99247649,2.1981681,0.94256032)"
       gradientUnits="userSpaceOnUse"
       r="8.3077345"
       fy="125.2886"
       fx="292.19052"
       cy="125.2886"
       cx="292.19052"
       id="radialGradient3943"
       xlink:href="#linearGradient3865"
       inkscape:collect="always" />
    <radialGradient
       gradientTransform="matrix(0.30822713,3.3298149e-7,-3.2182784e-7,0.29790264,188.93942,114.37682)"
       gradientUnits="userSpaceOnUse"
       r="8.8230619"
       fy="162.90749"
       fx="273.12341"
       cy="162.90749"
       cx="273.12341"
       id="radialGradient4025"
       xlink:href="#linearGradient3865"
       inkscape:collect="always" />
    <radialGradient
       gradientTransform="matrix(0.97920262,1.316364e-7,-1.330343e-7,0.98960135,5.6802776,1.6939808)"
       gradientUnits="userSpaceOnUse"
       r="8.7605619"
       fy="162.90749"
       fx="273.12341"
       cy="162.90749"
       cx="273.12341"
       id="radialGradient4039"
       xlink:href="#linearGradient3865"
       inkscape:collect="always" />
    <radialGradient
       r="8.7605619"
       fy="162.90749"
       fx="273.12341"
       cy="162.90749"
       cx="273.12341"
       gradientTransform="matrix(0.97920262,1.316364e-7,-1.330343e-7,0.98960135,5.6802776,1.6939808)"
       gradientUnits="userSpaceOnUse"
       id="radialGradient4151"
       xlink:href="#linearGradient3865"
       inkscape:collect="always" />
    <linearGradient
       gradientUnits="userSpaceOnUse"
       y2="27.981981"
       x2="459.11169"
       y1="264.45245"
       x1="210.66954"
       id="linearGradient4169"
       xlink:href="#linearGradient3865"
       inkscape:collect="always" />
    <linearGradient
       y2="27.981981"
       x2="459.11169"
       y1="264.45245"
       x1="210.66954"
       gradientUnits="userSpaceOnUse"
       id="linearGradient4173"
       xlink:href="#linearGradient3865"
       inkscape:collect="always" />
    <linearGradient
       y2="27.981981"
       x2="459.11169"
       y1="264.45245"
       x1="210.66954"
       gradientUnits="userSpaceOnUse"
       id="linearGradient4177"
       xlink:href="#linearGradient3865"
       inkscape:collect="always" />
    <inkscape:perspective
       sodipodi:type="inkscape:persp3d"
       inkscape:vp_x="0 : 0.5 : 1"
       inkscape:vp_y="0 : 1000 : 0"
       inkscape:vp_z="1 : 0.5 : 1"
       inkscape:persp3d-origin="0.5 : 0.33333333 : 1"
       id="perspective3178" />
    <radialGradient
       gradientUnits="userSpaceOnUse"
       gradientTransform="matrix(0.99999996,-0.99909193,0.99909196,0.9999999,-411.70095,310.46361)"
       r="95.644997"
       fy="412.07516"
       fx="310.74576"
       cy="412.07516"
       cx="310.74576"
       id="radialGradient5780"
       xlink:href="#linearGradient4290"
       inkscape:collect="always" />
    <linearGradient
       y2="537.8125"
       x2="436.5"
       y1="355.875"
       x1="436.5"
       gradientUnits="userSpaceOnUse"
       id="linearGradient6373"
       xlink:href="#linearGradient6349"
       inkscape:collect="always" />
    <linearGradient
       y2="468.8125"
       x2="185"
       y1="286.34375"
       x1="185"
       gradientTransform="translate(-0.00734476,0.05470659)"
       gradientUnits="userSpaceOnUse"
       id="linearGradient6376"
       xlink:href="#linearGradient6357"
       inkscape:collect="always" />
    <radialGradient
       r="95.644997"
       fy="454.86551"
       fx="301.17325"
       cy="454.86551"
       cx="301.17325"
       gradientTransform="matrix(1.4664681,-9.7279999e-8,0.01124927,1.4188959,-135.98789,-233.07398)"
       gradientUnits="userSpaceOnUse"
       id="radialGradient6385"
       xlink:href="#linearGradient6297"
       inkscape:collect="always" />
    <linearGradient
       spreadMethod="repeat"
       gradientUnits="userSpaceOnUse"
       y2="386.96997"
       x2="771.1283"
       y1="416.18985"
       x1="771.1283"
       id="linearGradient10213"
       xlink:href="#linearGradient10207"
       inkscape:collect="always" />
    <linearGradient
       y2="386.96997"
       x2="771.1283"
       y1="416.18985"
       x1="771.1283"
       spreadMethod="repeat"
       gradientUnits="userSpaceOnUse"
       id="linearGradient10281"
       xlink:href="#linearGradient10207"
       inkscape:collect="always" />
    <inkscape:perspective
       sodipodi:type="inkscape:persp3d"
       inkscape:vp_x="0 : 0.5 : 1"
       inkscape:vp_y="0 : 1000 : 0"
       inkscape:vp_z="1 : 0.5 : 1"
       inkscape:persp3d-origin="0.5 : 0.33333333 : 1"
       id="perspective10353" />
    <inkscape:perspective
       sodipodi:type="inkscape:persp3d"
       inkscape:vp_x="0 : 0.5 : 1"
       inkscape:vp_y="0 : 1000 : 0"
       inkscape:vp_z="1 : 0.5 : 1"
       inkscape:persp3d-origin="0.5 : 0.33333333 : 1"
       id="perspective10445" />
    <linearGradient
       inkscape:collect="always"
       xlink:href="#linearGradient9955"
       id="linearGradient13589"
       gradientUnits="userSpaceOnUse"
       gradientTransform="translate(-285.72792,452.36059)"
       x1="900.15894"
       y1="255.26863"
       x2="644.15894"
       y2="511.26862" />
    <linearGradient
       inkscape:collect="always"
       xlink:href="#linearGradient13613"
       id="linearGradient13619"
       x1="358.42832"
       y1="899.92276"
       x2="614.42832"
       y2="899.92276"
       gradientUnits="userSpaceOnUse" />
    <linearGradient
       inkscape:collect="always"
       xlink:href="#linearGradient13613"
       id="linearGradient13623"
       gradientUnits="userSpaceOnUse"
       x1="358.42832"
       y1="899.92276"
       x2="614.42832"
       y2="899.92276" />
    <linearGradient
       inkscape:collect="always"
       xlink:href="#linearGradient13613"
       id="linearGradient13627"
       gradientUnits="userSpaceOnUse"
       x1="358.42832"
       y1="899.92276"
       x2="614.42832"
       y2="899.92276" />
    <linearGradient
       inkscape:collect="always"
       xlink:href="#linearGradient13613"
       id="linearGradient13631"
       gradientUnits="userSpaceOnUse"
       x1="358.42832"
       y1="899.92276"
       x2="614.42832"
       y2="899.92276" />
    <linearGradient
       inkscape:collect="always"
       xlink:href="#linearGradient13613"
       id="linearGradient13635"
       gradientUnits="userSpaceOnUse"
       x1="358.42832"
       y1="899.92276"
       x2="614.42832"
       y2="899.92276" />
    <linearGradient
       inkscape:collect="always"
       xlink:href="#linearGradient13613"
       id="linearGradient13639"
       gradientUnits="userSpaceOnUse"
       x1="358.42832"
       y1="899.92276"
       x2="614.42832"
       y2="899.92276" />
    <linearGradient
       inkscape:collect="always"
       xlink:href="#linearGradient9955"
       id="linearGradient14689"
       gradientUnits="userSpaceOnUse"
       gradientTransform="matrix(1,0,0,0.65395302,-285.72792,629.28792)"
       x1="900.15894"
       y1="255.26863"
       x2="644.15894"
       y2="511.26862" />
    <linearGradient
       inkscape:collect="always"
       xlink:href="#linearGradient13613"
       id="linearGradient14723"
       gradientUnits="userSpaceOnUse"
       x1="358.42832"
       y1="899.92276"
       x2="614.42832"
       y2="899.92276"
       gradientTransform="translate(-2,0)" />
    <linearGradient
       inkscape:collect="always"
       xlink:href="#linearGradient9955"
       id="linearGradient14741"
       gradientUnits="userSpaceOnUse"
       gradientTransform="matrix(1,0,0,0.65395302,-285.72792,629.28792)"
       x1="900.15894"
       y1="255.26863"
       x2="644.15894"
       y2="511.26862" />
    <linearGradient
       inkscape:collect="always"
       xlink:href="#linearGradient13613"
       id="linearGradient14743"
       gradientUnits="userSpaceOnUse"
       gradientTransform="translate(-2,0)"
       x1="358.42832"
       y1="899.92276"
       x2="614.42832"
       y2="899.92276" />
    <linearGradient
       inkscape:collect="always"
       xlink:href="#linearGradient9955"
       id="linearGradient14755"
       gradientUnits="userSpaceOnUse"
       gradientTransform="matrix(1,0,0,0.65395302,-285.72792,629.28792)"
       x1="900.15894"
       y1="255.26863"
       x2="644.15894"
       y2="511.26862" />
    <linearGradient
       inkscape:collect="always"
       xlink:href="#linearGradient13613"
       id="linearGradient14757"
       gradientUnits="userSpaceOnUse"
       gradientTransform="translate(-2,0)"
       x1="358.42832"
       y1="899.92276"
       x2="614.42832"
       y2="899.92276" />
    <linearGradient
       inkscape:collect="always"
       xlink:href="#linearGradient9955"
       id="linearGradient14771"
       gradientUnits="userSpaceOnUse"
       gradientTransform="matrix(1,0,0,0.65395302,-285.72792,629.28792)"
       x1="900.15894"
       y1="255.26863"
       x2="644.15894"
       y2="511.26862" />
    <linearGradient
       inkscape:collect="always"
       xlink:href="#linearGradient13613"
       id="linearGradient14773"
       gradientUnits="userSpaceOnUse"
       gradientTransform="translate(-2,0)"
       x1="358.42832"
       y1="899.92276"
       x2="614.42832"
       y2="899.92276" />
    <linearGradient
       inkscape:collect="always"
       xlink:href="#linearGradient9955"
       id="linearGradient14775"
       gradientUnits="userSpaceOnUse"
       gradientTransform="matrix(1,0,0,0.65395302,-285.72792,629.28792)"
       x1="900.15894"
       y1="255.26863"
       x2="644.15894"
       y2="511.26862" />
    <linearGradient
       inkscape:collect="always"
       xlink:href="#linearGradient13613"
       id="linearGradient14777"
       gradientUnits="userSpaceOnUse"
       gradientTransform="translate(-2,0)"
       x1="358.42832"
       y1="899.92276"
       x2="614.42832"
       y2="899.92276" />
    <linearGradient
       y2="511.26862"
       x2="644.15894"
       y1="255.26863"
       x1="900.15894"
       gradientTransform="matrix(1,0,0,0.65395302,-285.72792,629.28792)"
       gradientUnits="userSpaceOnUse"
       id="linearGradient18232"
       xlink:href="#linearGradient9955"
       inkscape:collect="always" />
    <linearGradient
       y2="899.92276"
       x2="614.42832"
       y1="899.92276"
       x1="358.42832"
       gradientTransform="translate(-2,0)"
       gradientUnits="userSpaceOnUse"
       id="linearGradient18234"
       xlink:href="#linearGradient13613"
       inkscape:collect="always" />
    <linearGradient
       y2="511.26862"
       x2="644.15894"
       y1="255.26863"
       x1="900.15894"
       gradientTransform="matrix(1,0,0,0.65395302,-285.72792,629.28792)"
       gradientUnits="userSpaceOnUse"
       id="linearGradient18240"
       xlink:href="#linearGradient9955"
       inkscape:collect="always" />
    <linearGradient
       y2="899.92276"
       x2="614.42832"
       y1="899.92276"
       x1="358.42832"
       gradientTransform="translate(-2,0)"
       gradientUnits="userSpaceOnUse"
       id="linearGradient18242"
       xlink:href="#linearGradient13613"
       inkscape:collect="always" />
    <linearGradient
       y2="511.26862"
       x2="644.15894"
       y1="255.26863"
       x1="900.15894"
       gradientTransform="matrix(1,0,0,0.65395302,-285.72792,629.28792)"
       gradientUnits="userSpaceOnUse"
       id="linearGradient18244"
       xlink:href="#linearGradient9955"
       inkscape:collect="always" />
    <linearGradient
       y2="899.92276"
       x2="614.42832"
       y1="899.92276"
       x1="358.42832"
       gradientTransform="translate(-2,0)"
       gradientUnits="userSpaceOnUse"
       id="linearGradient18246"
       xlink:href="#linearGradient13613"
       inkscape:collect="always" />
    <filter
       color-interpolation-filters="sRGB"
       inkscape:menu-tooltip="Drop shadow under the cut-out of the shape"
       inkscape:menu="Shadows and Glows"
       height="1"
       width="1"
       y="0"
       x="0"
       inkscape:label="Cutout"
       id="filter18449">
      <feGaussianBlur
         stdDeviation="4.2"
         in="SourceAlpha"
         id="feGaussianBlur18451" />
      <feOffset
         result="result91"
         dx="5"
         dy="5"
         id="feOffset18453" />
      <feComposite
         in="SourceGraphic"
         operator="out"
         in2="result91"
         id="feComposite18455" />
    </filter>
    <filter
       y="-.25"
       x="-.25"
       height="1.5"
       width="1.5"
       inkscape:label="Drop shadow"
       id="filter18587">
      <feGaussianBlur
         result="blur"
         stdDeviation="5,000000"
         in="SourceAlpha"
         id="feGaussianBlur18589" />
      <feColorMatrix
         values="1 0 0 0 0 0 1 0 0 0 0 0 1 0 0 0 0 0 1,000000 0 "
         type="matrix"
         result="bluralpha"
         id="feColorMatrix18591" />
      <feOffset
         result="offsetBlur"
         dy="4,000000"
         dx="0,000000"
         in="bluralpha"
         id="feOffset18593" />
      <feMerge
         id="feMerge18595">
        <feMergeNode
           in="offsetBlur"
           id="feMergeNode18597" />
        <feMergeNode
           in="SourceGraphic"
           id="feMergeNode18599" />
      </feMerge>
    </filter>
    <filter
       color-interpolation-filters="sRGB"
       inkscape:menu-tooltip="Darken the edges with an inner blur"
       inkscape:menu="Shadows and Glows"
       inkscape:label="Darken edges"
       id="filter18683">
      <feGaussianBlur
         stdDeviation="1.5"
         result="result6"
         id="feGaussianBlur18685" />
      <feComposite
         result="result8"
         in="SourceGraphic"
         operator="atop"
         in2="result6"
         id="feComposite18687" />
      <feComposite
         result="result9"
         operator="atop"
         in="result8"
         in2="SourceAlpha"
         id="feComposite18689" />
    </filter>
    <filter
       color-interpolation-filters="sRGB"
       inkscape:menu-tooltip="Darken the edges with an inner blur"
       inkscape:menu="Shadows and Glows"
       inkscape:label="Darken edges"
       id="filter18693">
      <feGaussianBlur
         stdDeviation="1.5"
         result="result6"
         id="feGaussianBlur18695" />
      <feComposite
         result="result8"
         in="SourceGraphic"
         operator="atop"
         in2="result6"
         id="feComposite18697" />
      <feComposite
         result="result9"
         operator="atop"
         in="result8"
         in2="SourceAlpha"
         id="feComposite18699" />
    </filter>
    <filter
       color-interpolation-filters="sRGB"
       inkscape:menu-tooltip="Darken the edges with an inner blur"
       inkscape:menu="Shadows and Glows"
       inkscape:label="Darken edges"
       id="filter18703">
      <feGaussianBlur
         stdDeviation="1.5"
         result="result6"
         id="feGaussianBlur18705" />
      <feComposite
         result="result8"
         in="SourceGraphic"
         operator="atop"
         in2="result6"
         id="feComposite18707" />
      <feComposite
         result="result9"
         operator="atop"
         in="result8"
         in2="SourceAlpha"
         id="feComposite18709" />
    </filter>
    <linearGradient
       inkscape:collect="always"
       xlink:href="#linearGradient9955"
       id="linearGradient50075"
       gradientUnits="userSpaceOnUse"
       gradientTransform="matrix(1,0,0,0.65395302,-285.72792,629.28792)"
       x1="900.15894"
       y1="255.26863"
       x2="644.15894"
       y2="511.26862" />
    <linearGradient
       inkscape:collect="always"
       xlink:href="#linearGradient13613"
       id="linearGradient50077"
       gradientUnits="userSpaceOnUse"
       gradientTransform="translate(-2,0)"
       x1="358.42832"
       y1="899.92276"
       x2="614.42832"
       y2="899.92276" />
    <filter
       id="filter50079"
       inkscape:label="Air spray"
       x="-0.5"
       y="-0.5"
       width="2"
       height="2"
       inkscape:menu="Scatter"
       inkscape:menu-tooltip="Convert to small scattered particles with some thickness"
       color-interpolation-filters="sRGB">
      <feTurbulence
         id="feTurbulence50081"
         result="result1"
         numOctaves="10"
         baseFrequency="0.3"
         type="turbulence" />
      <feColorMatrix
         id="feColorMatrix50083"
         result="result0"
         in="SourceGraphic"
         type="luminanceToAlpha" />
      <feColorMatrix
         id="feColorMatrix50085"
         values="1 0 0 0 0 0 1 0 0 0 0 0 1 0 0 0 0 0 0.4 0 "
         result="result2" />
      <feComposite
         id="feComposite50087"
         in2="result1"
         in="result2"
         operator="over" />
      <feColorMatrix
         id="feColorMatrix50089"
         values="1 0 0 0 0 0 1 0 0 0 0 0 1 0 0 0 0 0 10 -4 "
         result="result91" />
      <feComposite
         id="feComposite50091"
         in2="result91"
         operator="out"
         in="SourceGraphic" />
      <feGaussianBlur
         id="feGaussianBlur50093"
         stdDeviation="0.7" />
      <feColorMatrix
         id="feColorMatrix50095"
         values="1 0 0 0 0 0 1 0 0 0 0 0 1 0 0 0 0 0 1 0 "
         result="fbSourceGraphic" />
      <feColorMatrix
         result="fbSourceGraphicAlpha"
         in="fbSourceGraphic"
         values="0 0 0 -1 0 0 0 0 -1 0 0 0 0 -1 0 0 0 0 1 0"
         id="feColorMatrix50115" />
      <feGaussianBlur
         id="feGaussianBlur50117"
         stdDeviation="0.01"
         result="result1"
         in="fbSourceGraphic" />
      <feBlend
         id="feBlend50119"
         in2="result1"
         result="fbSourceGraphic"
         mode="multiply" />
      <feTurbulence
         id="feTurbulence50121"
         baseFrequency="0.8"
         type="fractalNoise"
         seed="0"
         numOctaves="3"
         result="result3" />
      <feDisplacementMap
         id="feDisplacementMap50123"
         in2="result3"
         in="fbSourceGraphic"
         xChannelSelector="R"
         yChannelSelector="G"
         scale="50"
         result="result2" />
      <feMorphology
         id="feMorphology50125"
         radius="1"
         operator="dilate"
         result="result4" />
      <feBlend
         id="feBlend50127"
         in2="result2"
         mode="screen" />
    </filter>
    <linearGradient
       inkscape:collect="always"
       xlink:href="#linearGradient13613"
       id="linearGradient50101"
       gradientUnits="userSpaceOnUse"
       gradientTransform="translate(-2,0)"
       x1="358.42832"
       y1="899.92276"
       x2="614.42832"
       y2="899.92276" />
    <linearGradient
       inkscape:collect="always"
       xlink:href="#linearGradient13613"
       id="linearGradient50111"
       gradientUnits="userSpaceOnUse"
       gradientTransform="translate(-2,0)"
       x1="358.42832"
       y1="899.92276"
       x2="614.42832"
       y2="899.92276" />
    <linearGradient
       inkscape:collect="always"
       xlink:href="#linearGradient9955"
       id="linearGradient3385"
       gradientUnits="userSpaceOnUse"
       gradientTransform="translate(-145.75385,357.61885)"
       x1="900.15894"
       y1="255.26863"
       x2="644.15894"
       y2="511.26862" />
    <linearGradient
       inkscape:collect="always"
       xlink:href="#linearGradient10207"
       id="linearGradient4563"
       gradientUnits="userSpaceOnUse"
       spreadMethod="repeat"
       x1="771.1283"
       y1="416.18985"
       x2="771.1283"
       y2="386.96997" />
    <linearGradient
       inkscape:collect="always"
       xlink:href="#linearGradient10207"
       id="linearGradient4565"
       gradientUnits="userSpaceOnUse"
       spreadMethod="repeat"
       x1="771.1283"
       y1="416.18985"
       x2="771.1283"
       y2="386.96997" />
    <linearGradient
       inkscape:collect="always"
       xlink:href="#linearGradient10207"
       id="linearGradient4567"
       gradientUnits="userSpaceOnUse"
       spreadMethod="repeat"
       x1="771.1283"
       y1="416.18985"
       x2="771.1283"
       y2="386.96997" />
    <linearGradient
       inkscape:collect="always"
       xlink:href="#linearGradient10207"
       id="linearGradient4569"
       gradientUnits="userSpaceOnUse"
       spreadMethod="repeat"
       x1="771.1283"
       y1="416.18985"
       x2="771.1283"
       y2="386.96997" />
    <linearGradient
       inkscape:collect="always"
       xlink:href="#linearGradient10207"
       id="linearGradient4571"
       gradientUnits="userSpaceOnUse"
       spreadMethod="repeat"
       x1="771.1283"
       y1="416.18985"
       x2="771.1283"
       y2="386.96997" />
    <linearGradient
       inkscape:collect="always"
       xlink:href="#linearGradient10207"
       id="linearGradient4573"
       gradientUnits="userSpaceOnUse"
       spreadMethod="repeat"
       x1="771.1283"
       y1="416.18985"
       x2="771.1283"
       y2="386.96997" />
    <linearGradient
       inkscape:collect="always"
       xlink:href="#linearGradient10207"
       id="linearGradient4575"
       gradientUnits="userSpaceOnUse"
       spreadMethod="repeat"
       x1="771.1283"
       y1="416.18985"
       x2="771.1283"
       y2="386.96997" />
    <linearGradient
       inkscape:collect="always"
       xlink:href="#linearGradient10207"
       id="linearGradient4577"
       gradientUnits="userSpaceOnUse"
       spreadMethod="repeat"
       x1="771.1283"
       y1="416.18985"
       x2="771.1283"
       y2="386.96997" />
    <linearGradient
       inkscape:collect="always"
       xlink:href="#linearGradient10207"
       id="linearGradient4580"
       gradientUnits="userSpaceOnUse"
       spreadMethod="repeat"
       x1="771.1283"
       y1="416.18985"
       x2="771.1283"
       y2="386.96997"
       gradientTransform="matrix(1.0610932,0,0,1.0448246,-46.746341,-18.655553)" />
    <linearGradient
       inkscape:collect="always"
       xlink:href="#linearGradient10207"
       id="linearGradient4583"
       gradientUnits="userSpaceOnUse"
       spreadMethod="repeat"
       x1="771.1283"
       y1="416.18985"
       x2="771.1283"
       y2="386.96997"
       gradientTransform="matrix(1.0610932,0,0,1.0448246,-46.746341,-18.655553)" />
    <linearGradient
       inkscape:collect="always"
       xlink:href="#linearGradient10207"
       id="linearGradient4586"
       gradientUnits="userSpaceOnUse"
       spreadMethod="repeat"
       x1="771.1283"
       y1="416.18985"
       x2="771.1283"
       y2="386.96997"
       gradientTransform="matrix(1.0610932,0,0,1.0448246,-46.746341,-18.655553)" />
    <linearGradient
       inkscape:collect="always"
       xlink:href="#linearGradient10207"
       id="linearGradient4589"
       gradientUnits="userSpaceOnUse"
       spreadMethod="repeat"
       x1="771.1283"
       y1="416.18985"
       x2="771.1283"
       y2="386.96997"
       gradientTransform="matrix(1.0610932,0,0,1.0448246,-46.746341,-18.655553)" />
    <linearGradient
       inkscape:collect="always"
       xlink:href="#linearGradient10207"
       id="linearGradient4592"
       gradientUnits="userSpaceOnUse"
       spreadMethod="repeat"
       x1="771.1283"
       y1="416.18985"
       x2="771.1283"
       y2="386.96997"
       gradientTransform="matrix(1.0610932,0,0,1.0448246,-46.746341,-18.655553)" />
    <linearGradient
       inkscape:collect="always"
       xlink:href="#linearGradient10207"
       id="linearGradient4595"
       gradientUnits="userSpaceOnUse"
       spreadMethod="repeat"
       x1="771.1283"
       y1="416.18985"
       x2="771.1283"
       y2="386.96997"
       gradientTransform="matrix(1.0610932,0,0,1.0448246,-46.746341,-18.655553)" />
    <linearGradient
       inkscape:collect="always"
       xlink:href="#linearGradient10207"
       id="linearGradient4598"
       gradientUnits="userSpaceOnUse"
       spreadMethod="repeat"
       x1="771.1283"
       y1="416.18985"
       x2="771.1283"
       y2="386.96997"
       gradientTransform="matrix(1.0610932,0,0,1.0448246,-46.746341,-18.655553)" />
    <linearGradient
       inkscape:collect="always"
       xlink:href="#linearGradient10207"
       id="linearGradient4602"
       gradientUnits="userSpaceOnUse"
       gradientTransform="matrix(1.0610932,0,0,1.0448246,-46.746341,133.34445)"
       spreadMethod="repeat"
       x1="771.1283"
       y1="416.18985"
       x2="771.1283"
       y2="386.96997" />
    <linearGradient
       inkscape:collect="always"
       xlink:href="#linearGradient4659"
       id="linearGradient4657"
       x1="651.24353"
       y1="275.53275"
       x2="651.24353"
       y2="263.30399"
       gradientUnits="userSpaceOnUse"
       spreadMethod="reflect" />
    <linearGradient
       inkscape:collect="always"
       xlink:href="#linearGradient4659"
       id="linearGradient4678"
       gradientUnits="userSpaceOnUse"
       spreadMethod="reflect"
       x1="651.24353"
       y1="275.53275"
       x2="651.24353"
       y2="263.30399" />
    <linearGradient
       inkscape:collect="always"
       xlink:href="#linearGradient4659"
       id="linearGradient4680"
       gradientUnits="userSpaceOnUse"
       spreadMethod="reflect"
       x1="651.24353"
       y1="275.53275"
       x2="651.24353"
       y2="263.30399" />
    <linearGradient
       inkscape:collect="always"
       xlink:href="#linearGradient4659"
       id="linearGradient4682"
       gradientUnits="userSpaceOnUse"
       spreadMethod="reflect"
       x1="651.24353"
       y1="275.53275"
       x2="651.24353"
       y2="263.30399" />
    <linearGradient
       inkscape:collect="always"
       xlink:href="#linearGradient4659"
       id="linearGradient4684"
       gradientUnits="userSpaceOnUse"
       spreadMethod="reflect"
       x1="651.24353"
       y1="275.53275"
       x2="651.24353"
       y2="263.30399" />
    <linearGradient
       inkscape:collect="always"
       xlink:href="#linearGradient4659"
       id="linearGradient4686"
       gradientUnits="userSpaceOnUse"
       spreadMethod="reflect"
       x1="651.24353"
       y1="275.53275"
       x2="651.24353"
       y2="263.30399" />
    <linearGradient
       inkscape:collect="always"
       xlink:href="#linearGradient4659"
       id="linearGradient4688"
       gradientUnits="userSpaceOnUse"
       spreadMethod="reflect"
       x1="651.24353"
       y1="275.53275"
       x2="651.24353"
       y2="263.30399" />
    <linearGradient
       inkscape:collect="always"
       xlink:href="#linearGradient4659"
       id="linearGradient4690"
       gradientUnits="userSpaceOnUse"
       spreadMethod="reflect"
       x1="651.24353"
       y1="275.53275"
       x2="651.24353"
       y2="263.30399" />
    <linearGradient
       inkscape:collect="always"
       xlink:href="#linearGradient4659"
       id="linearGradient4692"
       gradientUnits="userSpaceOnUse"
       spreadMethod="reflect"
       x1="651.24353"
       y1="275.53275"
       x2="651.24353"
       y2="263.30399" />
    <linearGradient
       inkscape:collect="always"
       xlink:href="#linearGradient4659"
       id="linearGradient4694"
       gradientUnits="userSpaceOnUse"
       spreadMethod="reflect"
       x1="651.24353"
       y1="275.53275"
       x2="651.24353"
       y2="263.30399" />
    <linearGradient
       inkscape:collect="always"
       xlink:href="#linearGradient4659"
       id="linearGradient4696"
       gradientUnits="userSpaceOnUse"
       spreadMethod="reflect"
       x1="651.24353"
       y1="275.53275"
       x2="651.24353"
       y2="263.30399" />
    <linearGradient
       inkscape:collect="always"
       xlink:href="#linearGradient4659"
       id="linearGradient4698"
       gradientUnits="userSpaceOnUse"
       spreadMethod="reflect"
       x1="651.24353"
       y1="275.53275"
       x2="651.24353"
       y2="263.30399" />
    <linearGradient
       inkscape:collect="always"
       xlink:href="#linearGradient4659"
       id="linearGradient4711"
       gradientUnits="userSpaceOnUse"
       spreadMethod="reflect"
       x1="651.24353"
       y1="275.53275"
       x2="651.24353"
       y2="263.30399" />
    <linearGradient
       inkscape:collect="always"
       xlink:href="#linearGradient4659"
       id="linearGradient4713"
       gradientUnits="userSpaceOnUse"
       spreadMethod="reflect"
       x1="651.24353"
       y1="275.53275"
       x2="651.24353"
       y2="263.30399" />
    <linearGradient
       inkscape:collect="always"
       xlink:href="#linearGradient4659"
       id="linearGradient4715"
       gradientUnits="userSpaceOnUse"
       spreadMethod="reflect"
       x1="651.24353"
       y1="275.53275"
       x2="651.24353"
       y2="263.30399" />
    <linearGradient
       inkscape:collect="always"
       xlink:href="#linearGradient4659"
       id="linearGradient4717"
       gradientUnits="userSpaceOnUse"
       spreadMethod="reflect"
       x1="651.24353"
       y1="275.53275"
       x2="651.24353"
       y2="263.30399" />
    <linearGradient
       inkscape:collect="always"
       xlink:href="#linearGradient4659"
       id="linearGradient4719"
       gradientUnits="userSpaceOnUse"
       spreadMethod="reflect"
       x1="651.24353"
       y1="275.53275"
       x2="651.24353"
       y2="263.30399" />
    <linearGradient
       inkscape:collect="always"
       xlink:href="#linearGradient4659"
       id="linearGradient4721"
       gradientUnits="userSpaceOnUse"
       spreadMethod="reflect"
       x1="651.24353"
       y1="275.53275"
       x2="651.24353"
       y2="263.30399" />
    <linearGradient
       inkscape:collect="always"
       xlink:href="#linearGradient4659"
       id="linearGradient4723"
       gradientUnits="userSpaceOnUse"
       spreadMethod="reflect"
       x1="651.24353"
       y1="275.53275"
       x2="651.24353"
       y2="263.30399" />
    <linearGradient
       inkscape:collect="always"
       xlink:href="#linearGradient4659"
       id="linearGradient4725"
       gradientUnits="userSpaceOnUse"
       spreadMethod="reflect"
       x1="651.24353"
       y1="275.53275"
       x2="651.24353"
       y2="263.30399" />
    <linearGradient
       inkscape:collect="always"
       xlink:href="#linearGradient4659"
       id="linearGradient4727"
       gradientUnits="userSpaceOnUse"
       spreadMethod="reflect"
       x1="651.24353"
       y1="275.53275"
       x2="651.24353"
       y2="263.30399" />
    <linearGradient
       inkscape:collect="always"
       xlink:href="#linearGradient4659"
       id="linearGradient4729"
       gradientUnits="userSpaceOnUse"
       spreadMethod="reflect"
       x1="651.24353"
       y1="275.53275"
       x2="651.24353"
       y2="263.30399" />
    <linearGradient
       inkscape:collect="always"
       xlink:href="#linearGradient4659"
       id="linearGradient4731"
       gradientUnits="userSpaceOnUse"
       spreadMethod="reflect"
       x1="651.24353"
       y1="275.53275"
       x2="651.24353"
       y2="263.30399" />
    <linearGradient
       inkscape:collect="always"
       xlink:href="#linearGradient4659"
       id="linearGradient4734"
       gradientUnits="userSpaceOnUse"
       spreadMethod="reflect"
       x1="651.24353"
       y1="275.53275"
       x2="651.24353"
       y2="263.30399" />
    <linearGradient
       inkscape:collect="always"
       xlink:href="#linearGradient4659"
       id="linearGradient4737"
       gradientUnits="userSpaceOnUse"
       spreadMethod="reflect"
       x1="651.24353"
       y1="275.53275"
       x2="651.24353"
       y2="263.30399" />
    <linearGradient
       inkscape:collect="always"
       xlink:href="#linearGradient4659"
       id="linearGradient4740"
       gradientUnits="userSpaceOnUse"
       spreadMethod="reflect"
       x1="651.24353"
       y1="275.53275"
       x2="651.24353"
       y2="263.30399" />
    <linearGradient
       inkscape:collect="always"
       xlink:href="#linearGradient4659"
       id="linearGradient4743"
       gradientUnits="userSpaceOnUse"
       spreadMethod="reflect"
       x1="651.24353"
       y1="275.53275"
       x2="651.24353"
       y2="263.30399" />
    <linearGradient
       inkscape:collect="always"
       xlink:href="#linearGradient4659"
       id="linearGradient4746"
       gradientUnits="userSpaceOnUse"
       spreadMethod="reflect"
       x1="651.24353"
       y1="275.53275"
       x2="651.24353"
       y2="263.30399" />
    <inkscape:perspective
       id="perspective3184"
       inkscape:persp3d-origin="0.5 : 0.33333333 : 1"
       inkscape:vp_z="1 : 0.5 : 1"
       inkscape:vp_y="0 : 1000 : 0"
       inkscape:vp_x="0 : 0.5 : 1"
       sodipodi:type="inkscape:persp3d" />
    <filter
       inkscape:collect="always"
       id="filter4162">
      <feGaussianBlur
         inkscape:collect="always"
         stdDeviation="5.9751801"
         id="feGaussianBlur4164" />
    </filter>
    <linearGradient
       inkscape:collect="always"
       xlink:href="#linearGradient3865"
       id="linearGradient4183"
       x1="521.6875"
       y1="285.96875"
       x2="521.6875"
       y2="157.96875"
       gradientUnits="userSpaceOnUse"
       spreadMethod="repeat"
       gradientTransform="translate(-19.64767,0)" />
    <linearGradient
       inkscape:collect="always"
       xlink:href="#linearGradient4290"
       id="linearGradient4235"
       x1="390.02405"
       y1="109.84375"
       x2="614.03845"
       y2="286.96875"
       gradientUnits="userSpaceOnUse" />
    <linearGradient
       inkscape:collect="always"
       xlink:href="#linearGradient4290"
       id="linearGradient4263"
       gradientUnits="userSpaceOnUse"
       x1="390.02405"
       y1="109.84375"
       x2="614.03845"
       y2="286.96875"
       gradientTransform="translate(-129.72332,214.26211)" />
    <linearGradient
       gradientTransform="translate(0,-219.9102)"
       y2="369.59375"
       x2="355.6875"
       y1="270.25"
       x1="355.6875"
       gradientUnits="userSpaceOnUse"
       id="linearGradient5213"
       xlink:href="#linearGradient3319"
       inkscape:collect="always" />
    <linearGradient
       gradientTransform="translate(0,-219.9102)"
       y2="369.59375"
       x2="355.6875"
       y1="270.25"
       x1="355.6875"
       gradientUnits="userSpaceOnUse"
       id="linearGradient5211"
       xlink:href="#linearGradient3319"
       inkscape:collect="always" />
    <linearGradient
       gradientTransform="translate(0,-219.9102)"
       y2="394.63266"
       x2="357.66504"
       y1="456.67261"
       x1="357.66504"
       gradientUnits="userSpaceOnUse"
       id="linearGradient5209"
       xlink:href="#linearGradient3319"
       inkscape:collect="always" />
    <linearGradient
       gradientTransform="translate(0,-219.9102)"
       y2="393.31583"
       x2="357.0954"
       y1="326.24115"
       x1="450.16504"
       gradientUnits="userSpaceOnUse"
       id="linearGradient5207"
       xlink:href="#linearGradient3319"
       inkscape:collect="always" />
    <linearGradient
       gradientTransform="translate(0,-219.9102)"
       y2="391.6174"
       x2="355.68118"
       y1="336.46307"
       x1="263.75085"
       gradientUnits="userSpaceOnUse"
       id="linearGradient5205"
       xlink:href="#linearGradient3319"
       inkscape:collect="always" />
    <linearGradient
       y2="394.63266"
       x2="357.66504"
       y1="456.67261"
       x1="357.66504"
       gradientUnits="userSpaceOnUse"
       id="linearGradient5157"
       xlink:href="#linearGradient3319"
       inkscape:collect="always"
       gradientTransform="translate(90.697581,86.574964)" />
    <linearGradient
       y2="391.6174"
       x2="355.68118"
       y1="336.46307"
       x1="263.75085"
       gradientUnits="userSpaceOnUse"
       id="linearGradient5155"
       xlink:href="#linearGradient3319"
       inkscape:collect="always"
       gradientTransform="translate(90.697581,86.574964)" />
    <linearGradient
       y2="393.31583"
       x2="357.0954"
       y1="326.24115"
       x1="450.16504"
       gradientUnits="userSpaceOnUse"
       id="linearGradient5153"
       xlink:href="#linearGradient3319"
       inkscape:collect="always"
       gradientTransform="translate(90.697581,86.574964)" />
    <linearGradient
       y2="794.60181"
       x2="316.44818"
       y1="607.21851"
       x1="316.44818"
       gradientTransform="translate(1021.4169,-400.82731)"
       gradientUnits="userSpaceOnUse"
       id="linearGradient5127"
       xlink:href="#linearGradient3303"
       inkscape:collect="always" />
    <linearGradient
       gradientUnits="userSpaceOnUse"
       y2="369.59375"
       x2="355.6875"
       y1="270.25"
       x1="355.6875"
       id="linearGradient5125"
       xlink:href="#linearGradient3319"
       inkscape:collect="always"
       gradientTransform="translate(90.697581,86.574964)" />
    <linearGradient
       gradientUnits="userSpaceOnUse"
       y2="369.59375"
       x2="355.6875"
       y1="270.25"
       x1="355.6875"
       id="linearGradient5123"
       xlink:href="#linearGradient3319"
       inkscape:collect="always"
       gradientTransform="translate(90.697581,86.574964)" />
    <filter
       y="-0.5"
       x="-0.5"
       width="2.0"
       height="2.0"
       id="filtern">
      <feGaussianBlur
         id="feGaussianBlur4205"
         stdDeviation="5.0" />
    </filter>
    <clipPath
       id="clipPathf">
      <path
         style="font-size:154.05737305px;font-style:normal;font-weight:normal;fill:#ffffff;fill-opacity:1;stroke:none;stroke-width:1px;stroke-linecap:butt;stroke-linejoin:miter;stroke-opacity:1;font-family:Bitstream Vera Sans"
         d="M 358.23577,330.43209 C 350.4125,330.43219 344.52001,334.29365 340.55828,342.01648 C 336.64664,349.68934 334.69084,361.24865 334.69087,376.69443 C 334.69084,392.09018 336.64664,403.64949 340.55828,411.37238 C 344.52001,419.04518 350.4125,422.88156 358.23577,422.88155 C 366.10908,422.88156 372.00157,419.04518 375.91325,411.37238 C 379.87494,403.64949 381.85582,392.09018 381.85589,376.69443 C 381.85582,361.24865 379.87494,349.68934 375.91325,342.01648 C 372.00157,334.29365 366.10908,330.43219 358.23577,330.43209 M 358.23577,318.39635 C 370.82307,318.39647 380.42658,323.38628 387.0463,333.36579 C 393.71602,343.29536 397.05092,357.73823 397.051,376.69443 C 397.05092,395.6006 393.71602,410.04346 387.0463,420.02307 C 380.42658,429.95255 370.82307,434.91728 358.23577,434.91729 C 345.64836,434.91728 336.01978,429.95255 329.35001,420.02307 C 322.73034,410.04346 319.42052,395.6006 319.42053,376.69443 C 319.42052,357.73823 322.73034,343.29536 329.35001,333.36579 C 336.01978,323.38628 345.64836,318.39647 358.23577,318.39635"
         id="path3623" />
    </clipPath>
    <filter
       id="filter"
       height="2.0"
       width="2.0"
       x="-0.5"
       y="-0.5">
      <feGaussianBlur
         stdDeviation="5.0"
         id="feGaussianBlur3600" />
    </filter>
    <clipPath
       id="clipPath">
      <path
         style="font-size:154.05737305px;font-style:normal;font-weight:normal;fill:#ffffff;fill-opacity:1;stroke:none;stroke-width:1px;stroke-linecap:butt;stroke-linejoin:miter;stroke-opacity:1;font-family:Bitstream Vera Sans"
         d="M 358.23577,330.43209 C 350.4125,330.43219 344.52001,334.29365 340.55828,342.01648 C 336.64664,349.68934 334.69084,361.24865 334.69087,376.69443 C 334.69084,392.09018 336.64664,403.64949 340.55828,411.37238 C 344.52001,419.04518 350.4125,422.88156 358.23577,422.88155 C 366.10908,422.88156 372.00157,419.04518 375.91325,411.37238 C 379.87494,403.64949 381.85582,392.09018 381.85589,376.69443 C 381.85582,361.24865 379.87494,349.68934 375.91325,342.01648 C 372.00157,334.29365 366.10908,330.43219 358.23577,330.43209 M 358.23577,318.39635 C 370.82307,318.39647 380.42658,323.38628 387.0463,333.36579 C 393.71602,343.29536 397.05092,357.73823 397.051,376.69443 C 397.05092,395.6006 393.71602,410.04346 387.0463,420.02307 C 380.42658,429.95255 370.82307,434.91728 358.23577,434.91729 C 345.64836,434.91728 336.01978,429.95255 329.35001,420.02307 C 322.73034,410.04346 319.42052,395.6006 319.42053,376.69443 C 319.42052,357.73823 322.73034,343.29536 329.35001,333.36579 C 336.01978,323.38628 345.64836,318.39647 358.23577,318.39635"
         id="text3389" />
    </clipPath>
    <linearGradient
       gradientUnits="userSpaceOnUse"
       y2="394.63266"
       x2="357.66504"
       y1="456.67261"
       x1="357.66504"
       id="linearGradient3387"
       xlink:href="#linearGradient3475"
       inkscape:collect="always" />
    <linearGradient
       gradientUnits="userSpaceOnUse"
       y2="391.6174"
       x2="355.68118"
       y1="336.46307"
       x1="263.75085"
       id="linearGradient3377"
       xlink:href="#linearGradient3475"
       inkscape:collect="always" />
    <linearGradient
       gradientUnits="userSpaceOnUse"
       y2="393.31583"
       x2="357.0954"
       y1="326.24115"
       x1="450.16504"
       id="linearGradient3267"
       xlink:href="#linearGradient3475"
       inkscape:collect="always" />
    <linearGradient
       y2="856.95209"
       x2="496.85355"
       y1="686.86792"
       x1="495.00967"
       gradientTransform="translate(183.49451,-94.219686)"
       gradientUnits="userSpaceOnUse"
       id="linearGradient3800"
       xlink:href="#linearGradient3303"
       inkscape:collect="always" />
    <linearGradient
       gradientTransform="translate(76.014278,75.485948)"
       y2="515.08624"
       x2="600.5119"
       y1="696.81268"
       x1="600.5119"
       gradientUnits="userSpaceOnUse"
       id="linearGradient3797"
       xlink:href="#linearGradient3319"
       inkscape:collect="always" />
    <linearGradient
       y2="690.19965"
       x2="600.5119"
       y1="515.08624"
       x1="600.5119"
       gradientUnits="userSpaceOnUse"
       id="linearGradient3794"
       xlink:href="#linearGradient3303"
       inkscape:collect="always" />
    <linearGradient
       y2="856.95209"
       x2="496.85355"
       y1="686.86792"
       x1="495.00967"
       gradientTransform="translate(107.48023,-169.70563)"
       gradientUnits="userSpaceOnUse"
       id="linearGradient3792"
       xlink:href="#linearGradient3303"
       inkscape:collect="always" />
    <linearGradient
       gradientUnits="userSpaceOnUse"
       y2="690.19965"
       x2="600.5119"
       y1="515.08624"
       x1="600.5119"
       id="linearGradient3780"
       xlink:href="#linearGradient3303"
       inkscape:collect="always" />
    <linearGradient
       gradientTransform="translate(107.48023,-169.70563)"
       gradientUnits="userSpaceOnUse"
       y2="856.95209"
       x2="496.85355"
       y1="686.86792"
       x1="495.00967"
       id="linearGradient3767"
       xlink:href="#linearGradient3303"
       inkscape:collect="always" />
    <inkscape:perspective
       sodipodi:type="inkscape:persp3d"
       inkscape:vp_x="0 : 526.18109 : 1"
       inkscape:vp_y="0 : 1000 : 0"
       inkscape:vp_z="744.09448 : 526.18109 : 1"
       inkscape:persp3d-origin="372.04724 : 350.78739 : 1"
       id="perspective3590" />
    <linearGradient
       y2="607.21851"
       x2="316.44818"
       y1="790.95538"
       x1="316.44818"
       gradientTransform="translate(37.193746,-95.38587)"
       gradientUnits="userSpaceOnUse"
       id="linearGradient3543"
       xlink:href="#linearGradient3319"
       inkscape:collect="always" />
    <linearGradient
       y2="549.12476"
       x2="85.204224"
       y1="422.38345"
       x1="85.204224"
       gradientUnits="userSpaceOnUse"
       id="linearGradient3375"
       xlink:href="#linearGradient3303"
       inkscape:collect="always" />
    <linearGradient
       y2="423.44852"
       x2="85.204224"
       y1="608.23517"
       x1="85.204224"
       gradientUnits="userSpaceOnUse"
       id="linearGradient3347"
       xlink:href="#linearGradient3319"
       inkscape:collect="always" />
    <linearGradient
       y2="549.12476"
       x2="85.204224"
       y1="422.38345"
       x1="85.204224"
       gradientUnits="userSpaceOnUse"
       id="linearGradient3317"
       xlink:href="#linearGradient3319"
       inkscape:collect="always" />
    <linearGradient
       gradientUnits="userSpaceOnUse"
       y2="549.12476"
       x2="85.204224"
       y1="422.38345"
       x1="85.204224"
       id="linearGradient3309"
       xlink:href="#linearGradient3303"
       inkscape:collect="always" />
    <linearGradient
       gradientUnits="userSpaceOnUse"
       y2="563.23669"
       x2="80.473976"
       y1="411.20044"
       x1="80.473969"
       id="linearGradient3287"
       xlink:href="#linearGradient3281"
       inkscape:collect="always" />
    <inkscape:perspective
       sodipodi:type="inkscape:persp3d"
       inkscape:vp_x="0 : 526.18109 : 1"
       inkscape:vp_y="0 : 1000 : 0"
       inkscape:vp_z="744.09448 : 526.18109 : 1"
       inkscape:persp3d-origin="372.04724 : 350.78739 : 1"
       id="perspective2390" />
    <inkscape:perspective
       id="perspective10-2"
       inkscape:persp3d-origin="401.00683 : 277.9839 : 1"
       inkscape:vp_z="861.66919 : 473.84873 : 1"
       inkscape:vp_y="7.5814305e-14 : 1116.7152 : 0"
       inkscape:vp_x="-59.655548 : 473.84873 : 1"
       sodipodi:type="inkscape:persp3d" />
    <linearGradient
       id="linearGradient3273">
      <stop
         id="stop3275"
         offset="0"
         style="stop-color:#ffffff;stop-opacity:1;" />
      <stop
         style="stop-color:#00ff00;stop-opacity:1;"
         offset="0.5"
         id="stop3529" />
      <stop
         id="stop3277"
         offset="1"
         style="stop-color:#000000;stop-opacity:1;" />
    </linearGradient>
    <linearGradient
       id="linearGradient3281"
       inkscape:collect="always">
      <stop
         id="stop3283"
         offset="0"
         style="stop-color:#ffffff;stop-opacity:0.5" />
      <stop
         id="stop3285"
         offset="1"
         style="stop-color:#ffffff;stop-opacity:0;" />
    </linearGradient>
    <linearGradient
       id="linearGradient3303">
      <stop
         id="stop3305"
         offset="0"
         style="stop-color:#ffffff;stop-opacity:1;" />
      <stop
         id="stop3307"
         offset="1"
         style="stop-color:#ffffff;stop-opacity:0;" />
    </linearGradient>
    <linearGradient
       id="linearGradient3319">
      <stop
         id="stop4261"
         offset="0"
         style="stop-color:#000000;stop-opacity:1;" />
      <stop
         id="stop4259"
         offset="1"
         style="stop-color:#ffffff;stop-opacity:1;" />
    </linearGradient>
    <linearGradient
       id="linearGradient3475">
      <stop
         id="stop3477"
         offset="0"
         style="stop-color:#ffffff;stop-opacity:1;" />
      <stop
         style="stop-color:#7f7f7f;stop-opacity:0.49803922;"
         offset="0.45098692"
         id="stop3483" />
      <stop
         id="stop3479"
         offset="1"
         style="stop-color:#000000;stop-opacity:0;" />
    </linearGradient>
    <linearGradient
       id="linearGradient3551">
      <stop
         style="stop-color:#ffffff;stop-opacity:1;"
         offset="0"
         id="stop3553" />
      <stop
         id="stop3555"
         offset="0.5"
         style="stop-color:#ff0000;stop-opacity:1;" />
      <stop
         style="stop-color:#000000;stop-opacity:1;"
         offset="1"
         id="stop3557" />
    </linearGradient>
    <linearGradient
       id="linearGradient3559">
      <stop
         id="stop3565"
         offset="0"
         style="stop-color:#000000;stop-opacity:0;" />
      <stop
         style="stop-color:#000000;stop-opacity:0;"
         offset="0.5"
         id="stop3569" />
      <stop
         style="stop-color:#000000;stop-opacity:0;"
         offset="1"
         id="stop3567" />
    </linearGradient>
    <linearGradient
       id="linearGradient3239">
      <stop
         id="stop3241"
         offset="0"
         style="stop-color:#ffffff;stop-opacity:1;" />
      <stop
         id="stop3243"
         offset="1"
         style="stop-color:#000000;stop-opacity:1" />
    </linearGradient>
    <radialGradient
       inkscape:collect="always"
       xlink:href="#linearGradient3319"
       id="radialGradient4257"
       cx="156.59685"
       cy="411.58511"
       fx="156.59685"
       fy="411.58511"
       r="111.0072"
       gradientTransform="matrix(0.9999999,-1.8341123e-7,2.206142e-7,1.1530787,215.71959,-102.3591)"
       gradientUnits="userSpaceOnUse"
       spreadMethod="pad" />
  </defs>
  <metadata
     id="metadata7">
    <rdf:RDF>
      <cc:Work
         rdf:about="">
        <dc:format>image/svg+xml</dc:format>
        <dc:type
           rdf:resource="http://purl.org/dc/dcmitype/StillImage" />
        <dc:title />
      </cc:Work>
    </rdf:RDF>
  </metadata>
  <g
     id="layer1"
     inkscape:groupmode="layer"
     inkscape:label="Calque 1">
    <g
       inkscape:label="Cube :x0.00:x0.00:x0.00:x0.00:x0.00:x0.00"
       transform="translate(713.72248,821.98201)"
       id="g12017" />
  </g>
  <g
     inkscape:groupmode="layer"
     id="layer3"
     inkscape:label="ombre">
    <path
       style="fill:#000000;fill-opacity:1;fill-rule:nonzero;stroke:none;filter:url(#filter4162)"
       d="m 372.53526,244.23086 c -1.08621,-0.003 -2.09075,0.97629 -2.09375,2.0625 l -1.25,23.90625 -21.09375,-11.125 c -0.92963,-0.45056 -2.19906,-0.0491 -2.71875,0.84375 -0.51972,0.89285 -0.2259,2.16418 0.625,2.75 l 20.125,13 3.15625,5.5 0.25,6.6875 -0.34375,6.65625 -21.09375,-11.125 c -0.92967,-0.45066 -2.16782,-0.0491 -2.6875,0.84375 -0.51977,0.89286 -0.25714,2.16418 0.59375,2.75 l 20.125,13 3.15625,5.5 0.21875,5.6875 -0.40625,7.71875 -21.125,-11.09375 c -0.92966,-0.45066 -2.16783,-0.0804 -2.6875,0.8125 -0.51977,0.89286 -0.22589,2.16418 0.625,2.75 l 20.09375,13 3.1875,5.5 0.125,3.3125 -1.1875,29.875 a 1.1109451,1.1109451 0 0 1 -0.25,0.78125 1.1109451,1.1109451 0 0 1 -0.90625,0.25 1.1109451,1.1109451 0 0 1 -0.40625,0 l -23.65625,-12.125 -5.75,-3.71875 -3.15625,-5.40625 -0.96875,-23.875 c 0,-1.09176 -0.97071,-2.09375 -2.0625,-2.09375 -1.09176,0 -2.09375,1.00199 -2.09375,2.09375 l -1.21875,23.90625 -4.875,-2.5625 -6.6875,-4.34375 -3.15625,-5.40625 -0.9375,-23.875 c 0,-1.09175 -1.00196,-2.09375 -2.09375,-2.09375 -1.09176,0 -2.09375,1.002 -2.09375,2.09375 l -1.21875,23.90625 -5.90625,-3.125 -5.65625,-3.65625 -3.15625,-5.375 -0.9375,-23.90625 c 0,-1.09177 -1.00199,-2.09375 -2.09375,-2.09375 -1.09177,0 -2.09375,1.00198 -2.09375,2.09375 l -1.21875,23.9375 -21.125,-11.15625 c -0.93923,-0.54563 -2.29793,-0.18912 -2.84375,0.75 -0.54581,0.93912 -0.18902,2.29775 0.75,2.84375 l 20.09375,13.03125 -20.1875,12.71875 c -0.85501,0.5798 -1.13837,1.85352 -0.625,2.75 0.51337,0.89656 1.75472,1.28774 2.6875,0.84375 l 21.3125,-10.90625 6.34375,0 6,3.15625 5.53125,3.59375 -20.1875,12.71875 c -0.85512,0.57978 -1.1384,1.85352 -0.625,2.75 0.51335,0.89656 1.75472,1.28773 2.6875,0.84375 l 21.3125,-10.90625 6.34375,0 4.96875,2.625 6.5625,4.25 -20.1875,12.71875 c -0.85511,0.57978 -1.1384,1.85352 -0.625,2.75 0.51335,0.89656 1.75472,1.28773 2.6875,0.84375 l 21.3125,-10.90625 6.34375,0 5.28125,2.78125 22.90625,14.46875 a 1.1109451,1.1109451 0 0 1 0.125,0.125 1.1109451,1.1109451 0 0 1 0.25,0.40625 1.1109451,1.1109451 0 0 1 0,0.65625 1.1109451,1.1109451 0 0 1 -0.125,0.375 1.1109451,1.1109451 0 0 1 -0.25,0.28125 l -24.78125,16.0625 -3.40625,1.78125 -6.34375,0 -21.3125,-10.9375 c -0.93278,-0.44398 -2.17415,-0.0528 -2.6875,0.84375 -0.5134,0.89648 -0.23011,2.17022 0.625,2.75 l 20.1875,12.71875 -6.8125,4.40625 -4.71875,2.5 -6.34375,0 -21.3125,-10.9375 c -0.93278,-0.44398 -2.17415,-0.0528 -2.6875,0.84375 -0.5134,0.89648 -0.23012,2.17022 0.625,2.75 l 20.1875,12.75 -5.4375,3.53125 -6.09375,3.21875 -6.34375,0 -21.3125,-10.9375 c -0.93278,-0.44399 -2.17413,-0.0528 -2.6875,0.84375 -0.51337,0.89648 -0.23001,2.1702 0.625,2.75 l 20.1875,12.71875 -20.09375,13.03125 c -0.93902,0.546 -1.29581,1.90462 -0.75,2.84375 0.54582,0.93911 1.90452,1.29564 2.84375,0.75 l 21.125,-11.125 1.21875,23.90625 c 0,1.09177 1.00198,2.09375 2.09375,2.09375 1.09176,0 2.09375,-1.00198 2.09375,-2.09375 l 0.9375,-23.875 3.15625,-5.40625 5.65625,-3.65625 5.90625,-3.125 1.21875,23.90625 c 0,1.09175 1.00199,2.09375 2.09375,2.09375 1.09179,0 2.09375,-1.002 2.09375,-2.09375 l 0.9375,-23.875 3.15625,-5.40625 6.6875,-4.34375 4.875,-2.5625 1.21875,23.90625 c 0,1.09176 1.00199,2.09375 2.09375,2.09375 1.09179,0 2.0625,-1.00199 2.0625,-2.09375 l 0.96875,-23.875 3.15625,-5.40625 7.1875,-4.65625 21.84375,-11.5 a 1.1109451,1.1109451 0 0 1 0.25,0 1.1109451,1.1109451 0 0 1 0.65625,0 1.1109451,1.1109451 0 0 1 0.375,0.28125 1.1109451,1.1109451 0 0 1 0.28125,0.78125 l 1.53125,30.34375 -0.15625,3.21875 -3.09375,5.4375 -20.21875,12.78125 c -0.94548,0.54588 -1.2959,1.89823 -0.75,2.84375 0.54587,0.94549 1.89826,1.29588 2.84375,0.75 l 21.34375,-10.90625 0.21875,5.375 -0.4375,8.09375 -3.09375,5.4375 -20.21875,12.78125 c -0.94549,0.54588 -1.2959,1.89823 -0.75,2.84375 0.54588,0.94549 1.89826,1.29587 2.84375,0.75 l 21.3125,-10.875 0.25,6.59375 -0.34375,6.78125 -3.09375,5.4375 -20.21875,12.78125 c -0.9455,0.54588 -1.29589,1.89825 -0.75,2.84375 0.54588,0.94549 1.89826,1.29588 2.84375,0.75 l 21.3125,-10.875 0.9375,23.84375 c -0.003,1.08621 0.97629,2.09075 2.0625,2.09375 1.08621,0.003 2.09075,-0.97629 2.09375,-2.0625 l 1.25,-23.9375 21.09375,11.125 c 0.92963,0.45057 2.16781,0.0803 2.6875,-0.8125 0.51972,-0.89285 0.25715,-2.16418 -0.59375,-2.75 l -20.125,-13 -3.15625,-5.5 -0.28125,-6.9375 0.34375,-6.4375 21.125,11.125 c 0.92967,0.45066 2.16782,0.0804 2.6875,-0.8125 0.51977,-0.89286 0.22589,-2.16419 -0.625,-2.75 l -20.09375,-13 -3.1875,-5.5 -0.21875,-5.34375 0.4375,-8.09375 21.09375,11.125 c 0.92966,0.45065 2.19908,0.0491 2.71875,-0.84375 0.51977,-0.89285 0.22589,-2.16418 -0.625,-2.75 l -20.125,-12.96875 -3.15625,-5.5 -0.3125,-8.46875 0.96875,-24.78125 a 1.1109451,1.1109451 0 0 1 0.25,-0.78125 1.1109451,1.1109451 0 0 1 0.9375,-0.25 1.1109451,1.1109451 0 0 1 0.375,0 l 25.21875,12.875 4.59375,3 3.15625,5.40625 0.9375,23.875 c 0,1.09176 1.00196,2.09375 2.09375,2.09375 1.09176,0 2.09375,-1.00199 2.09375,-2.09375 l 1.21875,-23.90625 4.875,2.5625 6.6875,4.34375 3.15625,5.40625 0.9375,23.875 c 0,1.09175 1.00196,2.09375 2.09375,2.09375 1.09176,0 2.09375,-1.002 2.09375,-2.09375 l 1.21875,-23.90625 5.78125,3.0625 5.75,3.71875 3.1875,5.40625 0.9375,23.875 c 0,1.09177 1.00199,2.09375 2.09375,2.09375 1.09177,0 2.0625,-1.00198 2.0625,-2.09375 l 1.25,-23.90625 21.125,11.125 c 0.93923,0.54564 2.26668,0.18911 2.8125,-0.75 0.54581,-0.93913 0.18902,-2.29775 -0.75,-2.84375 l -20.0625,-13.03125 20.15625,-12.71875 c 0.85501,-0.5798 1.16962,-1.85352 0.65625,-2.75 -0.51337,-0.89656 -1.75472,-1.28774 -2.6875,-0.84375 l -21.3125,10.9375 -6.34375,0 -6.0625,-3.1875 -5.46875,-3.5625 20.1875,-12.75 c 0.85512,-0.57978 1.1384,-1.85352 0.625,-2.75 -0.51335,-0.89656 -1.75472,-1.28773 -2.6875,-0.84375 l -21.3125,10.9375 -6.34375,0 -4.71875,-2.5 -6.8125,-4.40625 20.1875,-12.71875 c 0.85511,-0.57978 1.1384,-1.85352 0.625,-2.75 -0.51335,-0.89656 -1.75472,-1.28773 -2.6875,-0.84375 l -21.3125,10.9375 -6.34375,0 -7.4375,-3.9375 -21.25,-13.375 a 1.1109451,1.1109451 0 0 1 -0.15625,-0.15625 1.1109451,1.1109451 0 0 1 -0.25,-0.375 1.1109451,1.1109451 0 0 1 0,-0.65625 1.1109451,1.1109451 0 0 1 0.125,-0.40625 1.1109451,1.1109451 0 0 1 0.28125,-0.25 l 22.03125,-14.25 6.65625,-3.53125 6.34375,0 21.3125,10.90625 c 0.93278,0.44398 2.17415,0.0528 2.6875,-0.84375 0.5134,-0.89648 0.23011,-2.17022 -0.625,-2.75 l -20.1875,-12.71875 6.5625,-4.25 4.96875,-2.625 6.34375,0 21.3125,10.90625 c 0.93278,0.44398 2.17415,0.0528 2.6875,-0.84375 0.5134,-0.89648 0.23012,-2.17022 -0.625,-2.75 l -20.1875,-12.71875 5.5625,-3.59375 5.96875,-3.15625 6.34375,0 21.3125,10.90625 c 0.93278,0.44399 2.17413,0.0528 2.6875,-0.84375 0.51337,-0.89648 0.19876,-2.1702 -0.65625,-2.75 l -20.15625,-12.71875 20.0625,-13.03125 c 0.93902,-0.546 1.29581,-1.90463 0.75,-2.84375 -0.54582,-0.93912 -1.87327,-1.29563 -2.8125,-0.75 l -21.125,11.15625 -1.25,-23.9375 c 0,-1.09177 -0.97073,-2.09375 -2.0625,-2.09375 -1.09176,0 -2.09375,1.00198 -2.09375,2.09375 l -0.9375,23.90625 -3.1875,5.375 -5.75,3.71875 -5.78125,3.0625 -1.21875,-23.90625 c 0,-1.09175 -1.00199,-2.09375 -2.09375,-2.09375 -1.09179,0 -2.09375,1.002 -2.09375,2.09375 l -0.9375,23.875 -3.15625,5.40625 -6.6875,4.34375 -4.875,2.5625 -1.21875,-23.90625 c 0,-1.09176 -1.00199,-2.09375 -2.09375,-2.09375 -1.09179,0 -2.09375,1.00199 -2.09375,2.09375 l -0.9375,23.875 -3.15625,5.40625 -4.9375,3.21875 -24.46875,12.875 a 1.1109451,1.1109451 0 0 1 -0.25,0 1.1109451,1.1109451 0 0 1 -0.65625,0 1.1109451,1.1109451 0 0 1 -0.40625,-0.25 1.1109451,1.1109451 0 0 1 -0.25,-0.78125 l -1.375,-27.03125 0.34375,-6.5 3.09375,-5.4375 20.21875,-12.75 c 0.94548,-0.54588 1.32715,-1.89823 0.78125,-2.84375 -0.54587,-0.94549 -1.92951,-1.32713 -2.875,-0.78125 l -21.3125,10.90625 -0.21875,-5.28125 0.4375,-8.1875 3.09375,-5.4375 20.21875,-12.75 c 0.94549,-0.54588 1.2959,-1.89823 0.75,-2.84375 -0.54588,-0.94549 -1.89826,-1.32713 -2.84375,-0.78125 l -21.3125,10.90625 -0.25,-6.71875 0.34375,-6.6875 3.09375,-5.4375 20.1875,-12.75 c 0.9455,-0.54588 1.32714,-1.89825 0.78125,-2.84375 -0.54588,-0.9455 -1.89826,-1.32713 -2.84375,-0.78125 l -21.34375,10.90625 -0.90625,-23.875 c 0.003,-1.08621 -0.97629,-2.0594 -2.0625,-2.0625 z"
       id="path4251"
       inkscape:export-filename="/media/0D64-9616/domogik/air conditionning/clim_off.png"
       inkscape:export-xdpi="96"
       inkscape:export-ydpi="96" />
  </g>
  <g
     inkscape:groupmode="layer"
     id="layer6"
     inkscape:label="fond2">
    <path
       id="path4253"
       d="m 372.05793,242.26211 c -6.07647,1.39285 -3.01061,9.64423 -4.15138,13.92364 0.27534,7.31605 0.0593,13.7668 -7.64383,7.03241 -5.06106,-1.25134 -9.83804,-8.17452 -15.36104,-5.64355 -3.98595,2.76843 -0.43949,8.11849 3.36142,8.94939 6.28702,5.37268 16.85533,7.52207 19.08126,16.23745 1.05697,6.2426 0.077,10.77708 -6.19708,5.23565 -5.23275,-1.45482 -9.81276,-7.72488 -15.52685,-6.45374 -4.32444,1.77585 -2.28394,7.96177 1.80232,8.75111 6.52845,5.35489 16.2269,7.70132 19.88518,15.78014 0.38964,5.06191 1.24611,12.88967 -5.37554,6.77474 -5.46866,-1.67008 -10.15213,-7.58842 -16.09321,-7.05599 -4.66305,1.46365 -2.78752,8.08364 1.488,8.87893 6.52254,5.34008 16.12915,7.73076 19.887,15.71482 0.0842,10.41786 -0.76659,20.83313 -1.03125,31.25 -9.25081,-5.35313 -19.9762,-8.86753 -28.09762,-15.73878 -4.3831,-6.87805 -1.65632,-15.83243 -2.92477,-23.62007 1.42565,-3.92326 -2.48344,-9.60604 -6.57136,-6.6099 -3.9295,4.10837 -1.03528,11.06165 -2.38354,16.17049 1.20024,7.92317 -2.04061,8.54308 -7.51103,3.38633 -6.82103,-5.92408 -3.05392,-16.24344 -4.53098,-24.22998 1.08372,-3.60642 -1.05737,-9.94039 -5.76195,-8.10809 -5.21163,3.05644 -1.74683,10.82924 -3.2074,15.6718 0.85562,7.20432 -1.09765,10.47358 -6.92995,4.93307 -7.57319,-5.21779 -3.67039,-15.82689 -5.12342,-23.62257 0.69879,-3.57173 -0.12388,-10.47513 -5.33298,-9.32605 -5.63872,2.35602 -2.28622,10.28087 -3.62417,14.86065 0.93351,8.46655 -1.19593,11.54509 -8.4592,5.59271 -4.82388,-1.16922 -9.93879,-8.38139 -15.10413,-4.92211 -3.74853,3.59933 1.31402,8.10402 4.78717,9.2231 2.77562,3.40038 16.03848,6.87573 10.73618,10.21837 -5.06845,4.15358 -12.46092,6.12265 -16.4921,11.27728 -1.91925,4.35542 4.20241,7.52329 7.31149,4.30731 8.191,-3.07277 15.33157,-10.50219 24.43851,-9.77606 4.67911,2.18586 11.91799,5.16225 3.26953,7.92067 -4.1686,3.85216 -11.56508,5.02485 -14.14453,10.26683 -1.22817,4.8574 5.49809,6.63719 8.38912,3.28909 7.88383,-2.96421 14.75374,-10.13371 23.54838,-9.32034 5.73059,2.36646 11.27411,5.7588 2.41906,8.60301 -3.86632,3.7718 -11.49851,4.65721 -13.35656,10.08449 -0.79703,4.72299 5.67628,6.06768 8.45162,2.91409 7.88383,-2.96421 14.75374,-10.13371 23.54838,-9.32034 9.18062,4.74726 17.59852,10.81674 26.4375,16.15625 -9.25304,5.29438 -17.6429,12.87592 -27.4375,16.78125 -8.51058,0.25924 -15.27882,-6.68921 -23.02496,-9.5923 -4.15932,-4.78581 -11.52527,2.15427 -6.22504,5.93605 5.84375,3.67708 11.6875,7.35417 17.53125,11.03125 -5.37299,4.51662 -13.0184,7.25024 -19.02499,2.16559 -6.10608,-2.18646 -11.44173,-7.56452 -17.91251,-8.32184 -4.64665,0.524 -4.3332,7.48228 0.0352,8.47356 5.27995,3.33173 10.55989,6.66346 15.83984,9.99519 -5.4347,4.39673 -13.03913,7.07379 -19.02499,2.00934 -6.10608,-2.18646 -11.44173,-7.56452 -17.91251,-8.32184 -4.6461,0.52312 -4.33455,7.48442 0.0365,8.4714 5.27949,3.32203 10.55899,6.64407 15.83848,9.9661 -6.0069,4.63837 -13.73477,7.59167 -18.9375,13.03125 -2.33459,4.43596 4.21413,7.94697 7.36352,4.44338 5.52466,-2.90821 11.04932,-5.81642 16.57398,-8.72463 1.11301,7.54941 -0.48769,15.8512 1.875,23.0625 2.8625,4.03163 8.90781,0.0158 7.45269,-4.40474 1.36514,-8.54234 -1.70631,-18.3771 3.45356,-25.81401 4.21139,-2.9797 10.41539,-7.92907 8.58808,0.99215 1.33443,5.64406 -1.33374,12.81698 2.16192,17.69535 3.75826,3.39139 8.46015,-1.9236 6.89778,-6.02899 1.31883,-8.22153 -1.69304,-17.71679 3.44597,-24.81476 4.28757,-3.07591 10.35635,-8.19819 8.55683,0.86715 1.33443,5.64406 -1.33374,12.81698 2.16192,17.69535 3.26774,3.10539 8.06485,-1.0978 6.83036,-5.02963 1.38425,-8.54187 -1.70118,-18.40158 3.51339,-25.81412 8.50699,-5.99737 18.10647,-10.13552 27.1875,-15.15625 -0.0341,10.75246 2.25599,21.90174 0.84572,32.42966 -4.01205,7.50816 -13.49349,9.7769 -19.9028,14.98859 -4.56887,0.83255 -5.45613,8.05823 -0.50542,8.738 6.38488,-0.69987 11.67459,-5.99217 17.69576,-8.15122 5.67421,-4.80065 3.51467,6.56995 2.12572,9.63842 -4.29711,6.79204 -13.20255,9.1823 -19.40981,14.1498 -4.56887,0.83255 -5.45613,8.05823 -0.50542,8.738 6.38494,-0.69976 11.68582,-5.97016 17.71115,-8.12107 5.46466,-4.69868 3.66511,6.61399 2.19904,9.57414 -4.32215,6.76301 -13.19956,9.1623 -19.40477,14.12143 -4.56887,0.83255 -5.45613,8.05823 -0.50542,8.738 6.3849,-0.69984 11.67828,-5.98496 17.70081,-8.14134 6.5616,-4.52376 2.45043,9.18296 3.97984,13.25485 -1.0041,3.7521 0.50027,11.55757 5.9756,9.38649 4.98138,-3.26112 1.56438,-10.79813 3.03981,-15.67076 -1.528,-9.50163 2.70399,-8.85781 9.30577,-4.03993 4.42383,1.22836 10.24601,8.49554 14.65442,3.71069 3.16689,-5.65561 -5.43052,-8.0599 -8.6257,-10.62832 -6.33444,-4.47355 -16.584,-7.92167 -15.04289,-17.52393 -1.77311,-8.26592 6.02477,-0.71095 9.87108,0.58864 3.98052,1.44208 10.63329,8.34544 14.14126,2.62611 2.02075,-5.96217 -6.6976,-7.48022 -9.83499,-10.55475 -6.09389,-4.20156 -15.71363,-7.69645 -14.19626,-16.82025 -1.39558,-9.37395 8.21996,0.79026 12.66506,1.78003 2.94686,2.32112 9.99776,6.12458 11.74119,0.43872 0.74696,-5.96851 -7.71679,-6.92009 -10.93808,-10.32704 -6.06892,-3.87379 -14.87955,-7.65857 -13.33555,-16.41972 -0.1721,-8.75185 0.61379,-17.50205 0.80488,-26.25324 9.33618,5.41886 20.19804,8.92031 28.47447,15.7377 4.42554,6.87556 1.66209,15.8531 2.92432,23.65358 -1.46535,4.03731 2.7107,9.73456 6.78871,6.48372 3.66608,-4.24995 0.85908,-11.03749 2.19905,-16.13909 -1.23124,-7.95106 2.0997,-8.36654 7.50802,-3.29273 6.8215,5.92407 3.05201,16.24352 4.52803,24.23009 -1.11693,3.66401 1.22555,10.13978 5.9524,8.01423 4.83226,-2.94651 1.60619,-10.12572 2.97131,-14.67298 -0.24225,-6.01663 -0.082,-12.36074 6.01656,-6.44789 8.69908,4.79857 4.66161,16.20035 6.08447,24.29486 -0.93209,3.6784 0.55515,10.97804 5.80266,9.07601 5.04036,-2.82032 1.76207,-10.2037 3.14414,-14.76586 -0.96269,-8.49375 1.27877,-11.34792 8.47608,-5.47936 4.82693,1.16365 9.94199,8.35994 15.09853,4.90147 3.67653,-3.62194 -1.3209,-8.15946 -4.81619,-9.22653 -2.76185,-3.39988 -16.02344,-6.87489 -10.70844,-10.21698 5.07534,-4.14864 12.47041,-6.16106 16.49338,-11.30649 1.92476,-4.32407 -4.23602,-7.53659 -7.31041,-4.27395 -8.19144,3.08262 -15.32781,10.52984 -24.43959,9.8052 -4.68001,-2.18151 -11.94608,-5.16013 -3.27361,-7.92713 4.20789,-3.87611 11.57263,-5.04717 14.17986,-10.35412 1.14509,-4.78851 -5.56314,-6.62177 -8.41874,-3.22342 -7.88444,2.97371 -14.75039,10.16062 -23.55001,9.34842 -5.67182,-2.38842 -11.21189,-5.79418 -2.41906,-8.63426 3.91874,-3.76602 11.40641,-4.66356 13.38781,-10.08449 0.75344,-4.68326 -5.71188,-6.13944 -8.48124,-2.91092 -7.88444,2.97371 -14.75039,10.16062 -23.55001,9.34842 -9.40499,-4.68007 -17.97709,-10.80089 -26.9375,-16.25 9.34741,-5.41598 17.85975,-12.96547 27.9375,-16.6875 8.51028,-0.25864 15.28674,6.67376 23.03632,9.57015 3.13603,3.55634 9.79969,0.39242 7.68243,-4.2264 -5.12594,-5.46543 -13.00068,-8.17038 -19,-12.75 5.39071,-4.47448 13.02396,-7.20597 19.02823,-2.14067 6.09068,2.23261 11.45923,7.46325 17.90927,8.29692 4.64667,-0.48621 4.38937,-7.52995 -0.0365,-8.4714 -5.27949,-3.32203 -10.55899,-6.64407 -15.83848,-9.9661 5.4407,-4.39341 13.03106,-7.08212 19.02823,-2.01567 6.09068,2.23261 11.45923,7.46325 17.90927,8.29692 4.6774,-0.49544 4.33364,-7.53813 -0.0669,-8.47276 -5.26936,-3.32158 -10.53873,-6.64316 -15.80809,-9.96474 5.94795,-4.70827 13.81702,-7.52833 18.9375,-13.03125 2.26832,-4.46694 -4.19901,-7.94001 -7.36228,-4.44103 -5.52507,2.91785 -11.05015,5.83569 -16.57522,8.75353 -0.99323,-7.54905 0.22261,-15.61482 -1.75,-22.9375 -2.75669,-4.23151 -8.98511,-0.34213 -7.57738,4.15475 -1.14381,7.89053 1.10274,16.78177 -2.35925,23.98805 -1.49983,2.48787 -10.29032,9.89446 -9.52998,3.92366 -1.09313,-6.54018 0.62882,-13.86722 -1.72094,-20.06646 -2.86015,-4.04139 -8.81585,-0.056 -7.45238,4.311 -1.3713,8.57429 1.72571,18.46239 -3.48512,25.90775 -4.28757,3.07591 -10.35593,8.19816 -8.55822,-0.86708 -1.25097,-5.65077 1.13807,-12.47733 -1.94178,-17.57042 -3.2504,-3.2658 -8.26149,0.75716 -7.07738,4.811 -1.3664,8.58648 1.71681,18.47397 -3.48512,25.939 -8.72221,5.81267 -18.4256,9.95543 -27.5625,15.0625 0.0419,-10.74354 -2.42456,-21.84447 -0.50197,-32.36716 4.01171,-7.5087 13.50233,-9.7629 19.91549,-14.96852 4.72613,-0.88041 5.42271,-8.4433 0.18023,-8.82057 -7.35742,1.75825 -13.73071,7.10796 -20.78125,9.96875 -0.76531,-6.92284 0.59621,-14.92503 8.04226,-17.51555 5.0292,-4.05051 12.05266,-6.08302 16.23899,-10.98445 2.21765,-4.42477 -4.21967,-7.94235 -7.40598,-4.46499 -5.58342,2.85291 -11.16685,5.70583 -16.75027,8.55874 -0.93508,-6.89508 0.48644,-14.85165 7.91496,-17.42543 5.00091,-4.12304 12.21555,-6.04255 16.27254,-11.10582 2.06157,-4.41102 -4.30237,-7.76483 -7.43785,-4.34121 -5.59363,2.85332 -11.18727,5.70664 -16.7809,8.55996 -0.94533,-7.535 0.57487,-15.66348 -1.46875,-22.9375 -0.89915,-1.16228 -2.3204,-1.99247 -3.84375,-1.75 z"
       style="fill:#403e3f;fill-opacity:1;fill-rule:nonzero;stroke:none;display:inline"
       inkscape:export-filename="/media/0D64-9616/domogik/air conditionning/clim_off.png"
       inkscape:export-xdpi="96"
       inkscape:export-ydpi="96" />
  </g>
  <g
     inkscape:groupmode="layer"
     id="layer2"
     inkscape:label="fond"
     style="display:inline">
    <path
       id="path4255"
       d="m 372.53526,244.23086 c -1.08621,-0.003 -2.09075,0.97629 -2.09375,2.0625 l -1.25,23.90625 -21.09375,-11.125 c -0.92963,-0.45056 -2.19906,-0.0491 -2.71875,0.84375 -0.51972,0.89285 -0.2259,2.16418 0.625,2.75 l 20.125,13 3.15625,5.5 0.25,6.6875 -0.34375,6.65625 -21.09375,-11.125 c -0.92967,-0.45066 -2.16782,-0.0491 -2.6875,0.84375 -0.51977,0.89286 -0.25714,2.16418 0.59375,2.75 l 20.125,13 3.15625,5.5 0.21875,5.6875 -0.40625,7.71875 -21.125,-11.09375 c -0.92966,-0.45066 -2.16783,-0.0804 -2.6875,0.8125 -0.51977,0.89286 -0.22589,2.16418 0.625,2.75 l 20.09375,13 3.1875,5.5 0.125,3.3125 -1.1875,29.875 a 1.1109451,1.1109451 0 0 1 -0.25,0.78125 1.1109451,1.1109451 0 0 1 -0.90625,0.25 1.1109451,1.1109451 0 0 1 -0.40625,0 l -23.65625,-12.125 -5.75,-3.71875 -3.15625,-5.40625 -0.96875,-23.875 c 0,-1.09176 -0.97071,-2.09375 -2.0625,-2.09375 -1.09176,0 -2.09375,1.00199 -2.09375,2.09375 l -1.21875,23.90625 -4.875,-2.5625 -6.6875,-4.34375 -3.15625,-5.40625 -0.9375,-23.875 c 0,-1.09175 -1.00196,-2.09375 -2.09375,-2.09375 -1.09176,0 -2.09375,1.002 -2.09375,2.09375 l -1.21875,23.90625 -5.90625,-3.125 -5.65625,-3.65625 -3.15625,-5.375 -0.9375,-23.90625 c 0,-1.09177 -1.00199,-2.09375 -2.09375,-2.09375 -1.09177,0 -2.09375,1.00198 -2.09375,2.09375 l -1.21875,23.9375 -21.125,-11.15625 c -0.93923,-0.54563 -2.29793,-0.18912 -2.84375,0.75 -0.54581,0.93912 -0.18902,2.29775 0.75,2.84375 l 20.09375,13.03125 -20.1875,12.71875 c -0.85501,0.5798 -1.13837,1.85352 -0.625,2.75 0.51337,0.89656 1.75472,1.28774 2.6875,0.84375 l 21.3125,-10.90625 6.34375,0 6,3.15625 5.53125,3.59375 -20.1875,12.71875 c -0.85512,0.57978 -1.1384,1.85352 -0.625,2.75 0.51335,0.89656 1.75472,1.28773 2.6875,0.84375 l 21.3125,-10.90625 6.34375,0 4.96875,2.625 6.5625,4.25 -20.1875,12.71875 c -0.85511,0.57978 -1.1384,1.85352 -0.625,2.75 0.51335,0.89656 1.75472,1.28773 2.6875,0.84375 l 21.3125,-10.90625 6.34375,0 5.28125,2.78125 22.90625,14.46875 a 1.1109451,1.1109451 0 0 1 0.125,0.125 1.1109451,1.1109451 0 0 1 0.25,0.40625 1.1109451,1.1109451 0 0 1 0,0.65625 1.1109451,1.1109451 0 0 1 -0.125,0.375 1.1109451,1.1109451 0 0 1 -0.25,0.28125 l -24.78125,16.0625 -3.40625,1.78125 -6.34375,0 -21.3125,-10.9375 c -0.93278,-0.44398 -2.17415,-0.0528 -2.6875,0.84375 -0.5134,0.89648 -0.23011,2.17022 0.625,2.75 l 20.1875,12.71875 -6.8125,4.40625 -4.71875,2.5 -6.34375,0 -21.3125,-10.9375 c -0.93278,-0.44398 -2.17415,-0.0528 -2.6875,0.84375 -0.5134,0.89648 -0.23012,2.17022 0.625,2.75 l 20.1875,12.75 -5.4375,3.53125 -6.09375,3.21875 -6.34375,0 -21.3125,-10.9375 c -0.93278,-0.44399 -2.17413,-0.0528 -2.6875,0.84375 -0.51337,0.89648 -0.23001,2.1702 0.625,2.75 l 20.1875,12.71875 -20.09375,13.03125 c -0.93902,0.546 -1.29581,1.90462 -0.75,2.84375 0.54582,0.93911 1.90452,1.29564 2.84375,0.75 l 21.125,-11.125 1.21875,23.90625 c 0,1.09177 1.00198,2.09375 2.09375,2.09375 1.09176,0 2.09375,-1.00198 2.09375,-2.09375 l 0.9375,-23.875 3.15625,-5.40625 5.65625,-3.65625 5.90625,-3.125 1.21875,23.90625 c 0,1.09175 1.00199,2.09375 2.09375,2.09375 1.09179,0 2.09375,-1.002 2.09375,-2.09375 l 0.9375,-23.875 3.15625,-5.40625 6.6875,-4.34375 4.875,-2.5625 1.21875,23.90625 c 0,1.09176 1.00199,2.09375 2.09375,2.09375 1.09179,0 2.0625,-1.00199 2.0625,-2.09375 l 0.96875,-23.875 3.15625,-5.40625 7.1875,-4.65625 21.84375,-11.5 a 1.1109451,1.1109451 0 0 1 0.25,0 1.1109451,1.1109451 0 0 1 0.65625,0 1.1109451,1.1109451 0 0 1 0.375,0.28125 1.1109451,1.1109451 0 0 1 0.28125,0.78125 l 1.53125,30.34375 -0.15625,3.21875 -3.09375,5.4375 -20.21875,12.78125 c -0.94548,0.54588 -1.2959,1.89823 -0.75,2.84375 0.54587,0.94549 1.89826,1.29588 2.84375,0.75 l 21.34375,-10.90625 0.21875,5.375 -0.4375,8.09375 -3.09375,5.4375 -20.21875,12.78125 c -0.94549,0.54588 -1.2959,1.89823 -0.75,2.84375 0.54588,0.94549 1.89826,1.29587 2.84375,0.75 l 21.3125,-10.875 0.25,6.59375 -0.34375,6.78125 -3.09375,5.4375 -20.21875,12.78125 c -0.9455,0.54588 -1.29589,1.89825 -0.75,2.84375 0.54588,0.94549 1.89826,1.29588 2.84375,0.75 l 21.3125,-10.875 0.9375,23.84375 c -0.003,1.08621 0.97629,2.09075 2.0625,2.09375 1.08621,0.003 2.09075,-0.97629 2.09375,-2.0625 l 1.25,-23.9375 21.09375,11.125 c 0.92963,0.45057 2.16781,0.0803 2.6875,-0.8125 0.51972,-0.89285 0.25715,-2.16418 -0.59375,-2.75 l -20.125,-13 -3.15625,-5.5 -0.28125,-6.9375 0.34375,-6.4375 21.125,11.125 c 0.92967,0.45066 2.16782,0.0804 2.6875,-0.8125 0.51977,-0.89286 0.22589,-2.16419 -0.625,-2.75 l -20.09375,-13 -3.1875,-5.5 -0.21875,-5.34375 0.4375,-8.09375 21.09375,11.125 c 0.92966,0.45065 2.19908,0.0491 2.71875,-0.84375 0.51977,-0.89285 0.22589,-2.16418 -0.625,-2.75 l -20.125,-12.96875 -3.15625,-5.5 -0.3125,-8.46875 0.96875,-24.78125 a 1.1109451,1.1109451 0 0 1 0.25,-0.78125 1.1109451,1.1109451 0 0 1 0.9375,-0.25 1.1109451,1.1109451 0 0 1 0.375,0 l 25.21875,12.875 4.59375,3 3.15625,5.40625 0.9375,23.875 c 0,1.09176 1.00196,2.09375 2.09375,2.09375 1.09176,0 2.09375,-1.00199 2.09375,-2.09375 l 1.21875,-23.90625 4.875,2.5625 6.6875,4.34375 3.15625,5.40625 0.9375,23.875 c 0,1.09175 1.00196,2.09375 2.09375,2.09375 1.09176,0 2.09375,-1.002 2.09375,-2.09375 l 1.21875,-23.90625 5.78125,3.0625 5.75,3.71875 3.1875,5.40625 0.9375,23.875 c 0,1.09177 1.00199,2.09375 2.09375,2.09375 1.09177,0 2.0625,-1.00198 2.0625,-2.09375 l 1.25,-23.90625 21.125,11.125 c 0.93923,0.54564 2.26668,0.18911 2.8125,-0.75 0.54581,-0.93913 0.18902,-2.29775 -0.75,-2.84375 l -20.0625,-13.03125 20.15625,-12.71875 c 0.85501,-0.5798 1.16962,-1.85352 0.65625,-2.75 -0.51337,-0.89656 -1.75472,-1.28774 -2.6875,-0.84375 l -21.3125,10.9375 -6.34375,0 -6.0625,-3.1875 -5.46875,-3.5625 20.1875,-12.75 c 0.85512,-0.57978 1.1384,-1.85352 0.625,-2.75 -0.51335,-0.89656 -1.75472,-1.28773 -2.6875,-0.84375 l -21.3125,10.9375 -6.34375,0 -4.71875,-2.5 -6.8125,-4.40625 20.1875,-12.71875 c 0.85511,-0.57978 1.1384,-1.85352 0.625,-2.75 -0.51335,-0.89656 -1.75472,-1.28773 -2.6875,-0.84375 l -21.3125,10.9375 -6.34375,0 -7.4375,-3.9375 -21.25,-13.375 a 1.1109451,1.1109451 0 0 1 -0.15625,-0.15625 1.1109451,1.1109451 0 0 1 -0.25,-0.375 1.1109451,1.1109451 0 0 1 0,-0.65625 1.1109451,1.1109451 0 0 1 0.125,-0.40625 1.1109451,1.1109451 0 0 1 0.28125,-0.25 l 22.03125,-14.25 6.65625,-3.53125 6.34375,0 21.3125,10.90625 c 0.93278,0.44398 2.17415,0.0528 2.6875,-0.84375 0.5134,-0.89648 0.23011,-2.17022 -0.625,-2.75 l -20.1875,-12.71875 6.5625,-4.25 4.96875,-2.625 6.34375,0 21.3125,10.90625 c 0.93278,0.44398 2.17415,0.0528 2.6875,-0.84375 0.5134,-0.89648 0.23012,-2.17022 -0.625,-2.75 l -20.1875,-12.71875 5.5625,-3.59375 5.96875,-3.15625 6.34375,0 21.3125,10.90625 c 0.93278,0.44399 2.17413,0.0528 2.6875,-0.84375 0.51337,-0.89648 0.19876,-2.1702 -0.65625,-2.75 l -20.15625,-12.71875 20.0625,-13.03125 c 0.93902,-0.546 1.29581,-1.90463 0.75,-2.84375 -0.54582,-0.93912 -1.87327,-1.29563 -2.8125,-0.75 l -21.125,11.15625 -1.25,-23.9375 c 0,-1.09177 -0.97073,-2.09375 -2.0625,-2.09375 -1.09176,0 -2.09375,1.00198 -2.09375,2.09375 l -0.9375,23.90625 -3.1875,5.375 -5.75,3.71875 -5.78125,3.0625 -1.21875,-23.90625 c 0,-1.09175 -1.00199,-2.09375 -2.09375,-2.09375 -1.09179,0 -2.09375,1.002 -2.09375,2.09375 l -0.9375,23.875 -3.15625,5.40625 -6.6875,4.34375 -4.875,2.5625 -1.21875,-23.90625 c 0,-1.09176 -1.00199,-2.09375 -2.09375,-2.09375 -1.09179,0 -2.09375,1.00199 -2.09375,2.09375 l -0.9375,23.875 -3.15625,5.40625 -4.9375,3.21875 -24.46875,12.875 a 1.1109451,1.1109451 0 0 1 -0.25,0 1.1109451,1.1109451 0 0 1 -0.65625,0 1.1109451,1.1109451 0 0 1 -0.40625,-0.25 1.1109451,1.1109451 0 0 1 -0.25,-0.78125 l -1.375,-27.03125 0.34375,-6.5 3.09375,-5.4375 20.21875,-12.75 c 0.94548,-0.54588 1.32715,-1.89823 0.78125,-2.84375 -0.54587,-0.94549 -1.92951,-1.32713 -2.875,-0.78125 l -21.3125,10.90625 -0.21875,-5.28125 0.4375,-8.1875 3.09375,-5.4375 20.21875,-12.75 c 0.94549,-0.54588 1.2959,-1.89823 0.75,-2.84375 -0.54588,-0.94549 -1.89826,-1.32713 -2.84375,-0.78125 l -21.3125,10.90625 -0.25,-6.71875 0.34375,-6.6875 3.09375,-5.4375 20.1875,-12.75 c 0.9455,-0.54588 1.32714,-1.89825 0.78125,-2.84375 -0.54588,-0.9455 -1.89826,-1.32713 -2.84375,-0.78125 l -21.34375,10.90625 -0.90625,-23.875 c 0.003,-1.08621 -0.97629,-2.0594 -2.0625,-2.0625 z"
       style="opacity:0.93999999;fill:#000000;fill-opacity:1;fill-rule:nonzero;stroke:none"
       inkscape:export-filename="/media/0D64-9616/domogik/air conditionning/clim_off.png"
       inkscape:export-xdpi="96"
       inkscape:export-ydpi="96" />
  </g>
  <g
     inkscape:groupmode="layer"
     id="layer4"
     inkscape:label="degrad"
     style="display:inline">
    <path
       style="opacity:0.5;fill:url(#radialGradient4257);fill-opacity:1;fill-rule:nonzero;stroke:none"
       d="m 372.53526,244.23086 c -1.08621,-0.003 -2.09075,0.97629 -2.09375,2.0625 l -1.25,23.90625 -21.09375,-11.125 c -0.92963,-0.45056 -2.19906,-0.0491 -2.71875,0.84375 -0.51972,0.89285 -0.2259,2.16418 0.625,2.75 l 20.125,13 3.15625,5.5 0.25,6.6875 -0.34375,6.65625 -21.09375,-11.125 c -0.92967,-0.45066 -2.16782,-0.0491 -2.6875,0.84375 -0.51977,0.89286 -0.25714,2.16418 0.59375,2.75 l 20.125,13 3.15625,5.5 0.21875,5.6875 -0.40625,7.71875 -21.125,-11.09375 c -0.92966,-0.45066 -2.16783,-0.0804 -2.6875,0.8125 -0.51977,0.89286 -0.22589,2.16418 0.625,2.75 l 20.09375,13 3.1875,5.5 0.125,3.3125 -1.1875,29.875 a 1.1109451,1.1109451 0 0 1 -0.25,0.78125 1.1109451,1.1109451 0 0 1 -0.90625,0.25 1.1109451,1.1109451 0 0 1 -0.40625,0 l -23.65625,-12.125 -5.75,-3.71875 -3.15625,-5.40625 -0.96875,-23.875 c 0,-1.09176 -0.97071,-2.09375 -2.0625,-2.09375 -1.09176,0 -2.09375,1.00199 -2.09375,2.09375 l -1.21875,23.90625 -4.875,-2.5625 -6.6875,-4.34375 -3.15625,-5.40625 -0.9375,-23.875 c 0,-1.09175 -1.00196,-2.09375 -2.09375,-2.09375 -1.09176,0 -2.09375,1.002 -2.09375,2.09375 l -1.21875,23.90625 -5.90625,-3.125 -5.65625,-3.65625 -3.15625,-5.375 -0.9375,-23.90625 c 0,-1.09177 -1.00199,-2.09375 -2.09375,-2.09375 -1.09177,0 -2.09375,1.00198 -2.09375,2.09375 l -1.21875,23.9375 -21.125,-11.15625 c -0.93923,-0.54563 -2.29793,-0.18912 -2.84375,0.75 -0.54581,0.93912 -0.18902,2.29775 0.75,2.84375 l 20.09375,13.03125 -20.1875,12.71875 c -0.85501,0.5798 -1.13837,1.85352 -0.625,2.75 0.51337,0.89656 1.75472,1.28774 2.6875,0.84375 l 21.3125,-10.90625 6.34375,0 6,3.15625 5.53125,3.59375 -20.1875,12.71875 c -0.85512,0.57978 -1.1384,1.85352 -0.625,2.75 0.51335,0.89656 1.75472,1.28773 2.6875,0.84375 l 21.3125,-10.90625 6.34375,0 4.96875,2.625 6.5625,4.25 -20.1875,12.71875 c -0.85511,0.57978 -1.1384,1.85352 -0.625,2.75 0.51335,0.89656 1.75472,1.28773 2.6875,0.84375 l 21.3125,-10.90625 6.34375,0 5.28125,2.78125 22.90625,14.46875 a 1.1109451,1.1109451 0 0 1 0.125,0.125 1.1109451,1.1109451 0 0 1 0.25,0.40625 1.1109451,1.1109451 0 0 1 0,0.65625 1.1109451,1.1109451 0 0 1 -0.125,0.375 1.1109451,1.1109451 0 0 1 -0.25,0.28125 l -24.78125,16.0625 -3.40625,1.78125 -6.34375,0 -21.3125,-10.9375 c -0.93278,-0.44398 -2.17415,-0.0528 -2.6875,0.84375 -0.5134,0.89648 -0.23011,2.17022 0.625,2.75 l 20.1875,12.71875 -6.8125,4.40625 -4.71875,2.5 -6.34375,0 -21.3125,-10.9375 c -0.93278,-0.44398 -2.17415,-0.0528 -2.6875,0.84375 -0.5134,0.89648 -0.23012,2.17022 0.625,2.75 l 20.1875,12.75 -5.4375,3.53125 -6.09375,3.21875 -6.34375,0 -21.3125,-10.9375 c -0.93278,-0.44399 -2.17413,-0.0528 -2.6875,0.84375 -0.51337,0.89648 -0.23001,2.1702 0.625,2.75 l 20.1875,12.71875 -20.09375,13.03125 c -0.93902,0.546 -1.29581,1.90462 -0.75,2.84375 0.54582,0.93911 1.90452,1.29564 2.84375,0.75 l 21.125,-11.125 1.21875,23.90625 c 0,1.09177 1.00198,2.09375 2.09375,2.09375 1.09176,0 2.09375,-1.00198 2.09375,-2.09375 l 0.9375,-23.875 3.15625,-5.40625 5.65625,-3.65625 5.90625,-3.125 1.21875,23.90625 c 0,1.09175 1.00199,2.09375 2.09375,2.09375 1.09179,0 2.09375,-1.002 2.09375,-2.09375 l 0.9375,-23.875 3.15625,-5.40625 6.6875,-4.34375 4.875,-2.5625 1.21875,23.90625 c 0,1.09176 1.00199,2.09375 2.09375,2.09375 1.09179,0 2.0625,-1.00199 2.0625,-2.09375 l 0.96875,-23.875 3.15625,-5.40625 7.1875,-4.65625 21.84375,-11.5 a 1.1109451,1.1109451 0 0 1 0.25,0 1.1109451,1.1109451 0 0 1 0.65625,0 1.1109451,1.1109451 0 0 1 0.375,0.28125 1.1109451,1.1109451 0 0 1 0.28125,0.78125 l 1.53125,30.34375 -0.15625,3.21875 -3.09375,5.4375 -20.21875,12.78125 c -0.94548,0.54588 -1.2959,1.89823 -0.75,2.84375 0.54587,0.94549 1.89826,1.29588 2.84375,0.75 l 21.34375,-10.90625 0.21875,5.375 -0.4375,8.09375 -3.09375,5.4375 -20.21875,12.78125 c -0.94549,0.54588 -1.2959,1.89823 -0.75,2.84375 0.54588,0.94549 1.89826,1.29587 2.84375,0.75 l 21.3125,-10.875 0.25,6.59375 -0.34375,6.78125 -3.09375,5.4375 -20.21875,12.78125 c -0.9455,0.54588 -1.29589,1.89825 -0.75,2.84375 0.54588,0.94549 1.89826,1.29588 2.84375,0.75 l 21.3125,-10.875 0.9375,23.84375 c -0.003,1.08621 0.97629,2.09075 2.0625,2.09375 1.08621,0.003 2.09075,-0.97629 2.09375,-2.0625 l 1.25,-23.9375 21.09375,11.125 c 0.92963,0.45057 2.16781,0.0803 2.6875,-0.8125 0.51972,-0.89285 0.25715,-2.16418 -0.59375,-2.75 l -20.125,-13 -3.15625,-5.5 -0.28125,-6.9375 0.34375,-6.4375 21.125,11.125 c 0.92967,0.45066 2.16782,0.0804 2.6875,-0.8125 0.51977,-0.89286 0.22589,-2.16419 -0.625,-2.75 l -20.09375,-13 -3.1875,-5.5 -0.21875,-5.34375 0.4375,-8.09375 21.09375,11.125 c 0.92966,0.45065 2.19908,0.0491 2.71875,-0.84375 0.51977,-0.89285 0.22589,-2.16418 -0.625,-2.75 l -20.125,-12.96875 -3.15625,-5.5 -0.3125,-8.46875 0.96875,-24.78125 a 1.1109451,1.1109451 0 0 1 0.25,-0.78125 1.1109451,1.1109451 0 0 1 0.9375,-0.25 1.1109451,1.1109451 0 0 1 0.375,0 l 25.21875,12.875 4.59375,3 3.15625,5.40625 0.9375,23.875 c 0,1.09176 1.00196,2.09375 2.09375,2.09375 1.09176,0 2.09375,-1.00199 2.09375,-2.09375 l 1.21875,-23.90625 4.875,2.5625 6.6875,4.34375 3.15625,5.40625 0.9375,23.875 c 0,1.09175 1.00196,2.09375 2.09375,2.09375 1.09176,0 2.09375,-1.002 2.09375,-2.09375 l 1.21875,-23.90625 5.78125,3.0625 5.75,3.71875 3.1875,5.40625 0.9375,23.875 c 0,1.09177 1.00199,2.09375 2.09375,2.09375 1.09177,0 2.0625,-1.00198 2.0625,-2.09375 l 1.25,-23.90625 21.125,11.125 c 0.93923,0.54564 2.26668,0.18911 2.8125,-0.75 0.54581,-0.93913 0.18902,-2.29775 -0.75,-2.84375 l -20.0625,-13.03125 20.15625,-12.71875 c 0.85501,-0.5798 1.16962,-1.85352 0.65625,-2.75 -0.51337,-0.89656 -1.75472,-1.28774 -2.6875,-0.84375 l -21.3125,10.9375 -6.34375,0 -6.0625,-3.1875 -5.46875,-3.5625 20.1875,-12.75 c 0.85512,-0.57978 1.1384,-1.85352 0.625,-2.75 -0.51335,-0.89656 -1.75472,-1.28773 -2.6875,-0.84375 l -21.3125,10.9375 -6.34375,0 -4.71875,-2.5 -6.8125,-4.40625 20.1875,-12.71875 c 0.85511,-0.57978 1.1384,-1.85352 0.625,-2.75 -0.51335,-0.89656 -1.75472,-1.28773 -2.6875,-0.84375 l -21.3125,10.9375 -6.34375,0 -7.4375,-3.9375 -21.25,-13.375 a 1.1109451,1.1109451 0 0 1 -0.15625,-0.15625 1.1109451,1.1109451 0 0 1 -0.25,-0.375 1.1109451,1.1109451 0 0 1 0,-0.65625 1.1109451,1.1109451 0 0 1 0.125,-0.40625 1.1109451,1.1109451 0 0 1 0.28125,-0.25 l 22.03125,-14.25 6.65625,-3.53125 6.34375,0 21.3125,10.90625 c 0.93278,0.44398 2.17415,0.0528 2.6875,-0.84375 0.5134,-0.89648 0.23011,-2.17022 -0.625,-2.75 l -20.1875,-12.71875 6.5625,-4.25 4.96875,-2.625 6.34375,0 21.3125,10.90625 c 0.93278,0.44398 2.17415,0.0528 2.6875,-0.84375 0.5134,-0.89648 0.23012,-2.17022 -0.625,-2.75 l -20.1875,-12.71875 5.5625,-3.59375 5.96875,-3.15625 6.34375,0 21.3125,10.90625 c 0.93278,0.44399 2.17413,0.0528 2.6875,-0.84375 0.51337,-0.89648 0.19876,-2.1702 -0.65625,-2.75 l -20.15625,-12.71875 20.0625,-13.03125 c 0.93902,-0.546 1.29581,-1.90463 0.75,-2.84375 -0.54582,-0.93912 -1.87327,-1.29563 -2.8125,-0.75 l -21.125,11.15625 -1.25,-23.9375 c 0,-1.09177 -0.97073,-2.09375 -2.0625,-2.09375 -1.09176,0 -2.09375,1.00198 -2.09375,2.09375 l -0.9375,23.90625 -3.1875,5.375 -5.75,3.71875 -5.78125,3.0625 -1.21875,-23.90625 c 0,-1.09175 -1.00199,-2.09375 -2.09375,-2.09375 -1.09179,0 -2.09375,1.002 -2.09375,2.09375 l -0.9375,23.875 -3.15625,5.40625 -6.6875,4.34375 -4.875,2.5625 -1.21875,-23.90625 c 0,-1.09176 -1.00199,-2.09375 -2.09375,-2.09375 -1.09179,0 -2.09375,1.00199 -2.09375,2.09375 l -0.9375,23.875 -3.15625,5.40625 -4.9375,3.21875 -24.46875,12.875 a 1.1109451,1.1109451 0 0 1 -0.25,0 1.1109451,1.1109451 0 0 1 -0.65625,0 1.1109451,1.1109451 0 0 1 -0.40625,-0.25 1.1109451,1.1109451 0 0 1 -0.25,-0.78125 l -1.375,-27.03125 0.34375,-6.5 3.09375,-5.4375 20.21875,-12.75 c 0.94548,-0.54588 1.32715,-1.89823 0.78125,-2.84375 -0.54587,-0.94549 -1.92951,-1.32713 -2.875,-0.78125 l -21.3125,10.90625 -0.21875,-5.28125 0.4375,-8.1875 3.09375,-5.4375 20.21875,-12.75 c 0.94549,-0.54588 1.2959,-1.89823 0.75,-2.84375 -0.54588,-0.94549 -1.89826,-1.32713 -2.84375,-0.78125 l -21.3125,10.90625 -0.25,-6.71875 0.34375,-6.6875 3.09375,-5.4375 20.1875,-12.75 c 0.9455,-0.54588 1.32714,-1.89825 0.78125,-2.84375 -0.54588,-0.9455 -1.89826,-1.32713 -2.84375,-0.78125 l -21.34375,10.90625 -0.90625,-23.875 c 0.003,-1.08621 -0.97629,-2.0594 -2.0625,-2.0625 z"
       id="path4257"
       inkscape:export-filename="/media/0D64-9616/domogik/air conditionning/clim_off.png"
       inkscape:export-xdpi="96"
       inkscape:export-ydpi="96" />
  </g>
  <g
     inkscape:groupmode="layer"
     id="layer5"
     inkscape:label="relief blanc"
     style="display:inline">
    <g
       id="layer1-5"
       inkscape:label="Calque 1"
       transform="translate(-820.77057,191.75682)">
      <path
         style="opacity:0.5;fill:none;stroke:none"
         d="m 1235.9784,198.20013 203.773,0 0,203.77303 -203.773,0 0,-203.77303 z"
         id="rect3538" />
      <g
         inkscape:export-ydpi="30.802139"
         inkscape:export-xdpi="30.802139"
         inkscape:export-filename="/home/alban/etage1_64.png"
         clip-path="url(#clipPath)"
         id="g3625">
        <g
           id="g3627" />
      </g>
      <g
         inkscape:export-ydpi="30.802139"
         inkscape:export-xdpi="30.802139"
         inkscape:export-filename="/home/alban/etage1_64.png"
         id="g4234"
         clip-path="url(#clipPathf)">
        <g
           id="g4236">
          <path
             style="fill:none;stroke:#000000;stroke-width:10;stroke-opacity:1;filter:url(#filtern)"
             d="m 561.88252,404.49677 c 7.87331,10e-6 13.7658,-3.83637 17.67748,-11.50917 m 0,0 c 3.96169,-7.72289 5.94257,-19.2822 5.94264,-34.67795 m 0,0 c -7e-5,-15.44578 -1.98095,-27.00509 -5.94264,-34.67795 m 0,0 c -3.91168,-7.72283 -9.80417,-11.58429 -17.67748,-11.58439 m 0,104.4852 c -12.58741,-10e-6 -22.21599,-4.96474 -28.88576,-14.89422 m 0,0 c -6.61967,-9.97961 -9.92949,-24.42247 -9.92948,-43.32864 m 0,0 c -10e-6,-18.9562 3.30981,-33.39907 9.92948,-43.32864 m 0,0 c 6.66977,-9.97951 16.29835,-14.96932 28.88576,-14.96944"
             id="path4240" />
        </g>
      </g>
      <g
         style="font-size:40px;font-style:normal;font-weight:normal;fill:#000000;fill-opacity:1;stroke:none;font-family:Bitstream Vera Sans"
         id="text5215" />
    </g>
    <path
       id="path4259"
       d="m 398.68293,353.48086 c -7.33615,3.88708 -14.55818,7.89249 -21.65625,11.96875 -7.34274,4.21677 -14.57932,8.52616 -21.71875,12.8125 -14.27886,8.57268 -28.18912,17.14726 -41.96875,25.1875 -6.88982,4.02012 -13.75023,7.90942 -20.59375,11.59375 -3.52155,1.89589 -7.04271,3.56387 -10.5625,5.34375 l 0.21875,0.125 -20.09375,13.03125 c -0.93902,0.546 -1.29581,1.90462 -0.75,2.84375 0.54582,0.93911 1.90452,1.29564 2.84375,0.75 l 21.125,-11.125 1.21875,23.90625 c 0,1.09177 1.00198,2.09375 2.09375,2.09375 1.09176,0 2.09375,-1.00198 2.09375,-2.09375 l 0.9375,-23.875 3.15625,-5.40625 5.65625,-3.65625 5.90625,-3.125 1.21875,23.90625 c 0,1.09175 1.00199,2.09375 2.09375,2.09375 1.09179,0 2.09375,-1.002 2.09375,-2.09375 l 0.9375,-23.875 3.15625,-5.40625 6.6875,-4.34375 4.875,-2.5625 1.21875,23.90625 c 0,1.09176 1.00199,2.09375 2.09375,2.09375 1.09179,0 2.0625,-1.00199 2.0625,-2.09375 l 0.96875,-23.875 3.15625,-5.40625 7.1875,-4.65625 21.84375,-11.5 a 1.1109451,1.1109451 0 0 1 0.25,0 1.1109451,1.1109451 0 0 1 0.65625,0 1.1109451,1.1109451 0 0 1 0.375,0.28125 1.1109451,1.1109451 0 0 1 0.28125,0.78125 l 1.53125,30.34375 -0.15625,3.21875 -3.09375,5.4375 -20.21875,12.78125 c -0.94548,0.54588 -1.2959,1.89823 -0.75,2.84375 0.54587,0.94549 1.89826,1.29588 2.84375,0.75 l 21.34375,-10.90625 0.21875,5.375 -0.4375,8.09375 -3.09375,5.4375 -20.21875,12.78125 c -0.94549,0.54588 -1.2959,1.89823 -0.75,2.84375 0.54588,0.94549 1.89826,1.29587 2.84375,0.75 l 21.3125,-10.875 0.25,6.59375 -0.34375,6.78125 -3.09375,5.4375 -20.21875,12.78125 c -0.9455,0.54588 -1.29589,1.89825 -0.75,2.84375 0.54588,0.94549 1.89826,1.29588 2.84375,0.75 l 21.3125,-10.875 0.9375,23.84375 c -0.003,1.08621 0.97629,2.09075 2.0625,2.09375 1.08621,0.003 2.09075,-0.97629 2.09375,-2.0625 l 1.25,-23.9375 21.09375,11.125 c 0.92963,0.45057 2.16781,0.0803 2.6875,-0.8125 0.51972,-0.89285 0.25715,-2.16418 -0.59375,-2.75 l -20.125,-13 -3.15625,-5.5 -0.28125,-6.9375 0.34375,-6.4375 21.125,11.125 c 0.92967,0.45066 2.16782,0.0804 2.6875,-0.8125 0.51977,-0.89286 0.22589,-2.16419 -0.625,-2.75 l -20.09375,-13 -3.1875,-5.5 -0.21875,-5.34375 0.4375,-8.09375 21.09375,11.125 c 0.92966,0.45065 2.19908,0.0491 2.71875,-0.84375 0.51977,-0.89285 0.22589,-2.16418 -0.625,-2.75 l -20.125,-12.96875 -3.15625,-5.5 -0.3125,-8.46875 0.96875,-24.78125 a 1.1109451,1.1109451 0 0 1 0.25,-0.78125 1.1109451,1.1109451 0 0 1 0.9375,-0.25 1.1109451,1.1109451 0 0 1 0.375,0 l 25.21875,12.875 4.59375,3 3.15625,5.40625 0.9375,23.875 c 0,1.09176 1.00196,2.09375 2.09375,2.09375 1.09176,0 2.09375,-1.00199 2.09375,-2.09375 l 1.21875,-23.90625 4.875,2.5625 6.6875,4.34375 3.15625,5.40625 0.9375,23.875 c 0,1.09175 1.00196,2.09375 2.09375,2.09375 1.09176,0 2.09375,-1.002 2.09375,-2.09375 l 1.21875,-23.90625 5.78125,3.0625 5.75,3.71875 3.1875,5.40625 0.9375,23.875 c 0,1.09177 1.00199,2.09375 2.09375,2.09375 1.09177,0 2.0625,-1.00198 2.0625,-2.09375 l 1.25,-23.90625 21.125,11.125 c 0.93923,0.54564 2.26668,0.18911 2.8125,-0.75 0.54581,-0.93913 0.18902,-2.29775 -0.75,-2.84375 l -20.0625,-13.03125 20.15625,-12.71875 c 0.85501,-0.5798 1.16962,-1.85352 0.65625,-2.75 -0.51337,-0.89656 -1.75472,-1.28774 -2.6875,-0.84375 l -21.3125,10.9375 -6.34375,0 -6.0625,-3.1875 -5.46875,-3.5625 20.1875,-12.75 c 0.85512,-0.57978 1.1384,-1.85352 0.625,-2.75 -0.51335,-0.89656 -1.75472,-1.28773 -2.6875,-0.84375 l -21.3125,10.9375 -6.34375,0 -4.71875,-2.5 -6.8125,-4.40625 20.1875,-12.71875 c 0.85511,-0.57978 1.1384,-1.85352 0.625,-2.75 -0.51335,-0.89656 -1.75472,-1.28773 -2.6875,-0.84375 l -21.3125,10.9375 -6.34375,0 -7.4375,-3.9375 -21.25,-13.375 a 1.1109451,1.1109451 0 0 1 -0.15625,-0.15625 1.1109451,1.1109451 0 0 1 -0.25,-0.375 1.1109451,1.1109451 0 0 1 0,-0.65625 1.1109451,1.1109451 0 0 1 0.125,-0.40625 1.1109451,1.1109451 0 0 1 0.28125,-0.25 l 22.03125,-14.25 6.65625,-3.53125 6.34375,0 21.3125,10.90625 c 0.93278,0.44398 2.17415,0.0528 2.6875,-0.84375 0.5134,-0.89648 0.23011,-2.17022 -0.625,-2.75 l -20.1875,-12.71875 6.5625,-4.25 4.96875,-2.625 6.34375,0 21.3125,10.90625 c 0.93278,0.44398 2.17415,0.0528 2.6875,-0.84375 0.5134,-0.89648 0.23012,-2.17022 -0.625,-2.75 l -20.1875,-12.71875 5.5625,-3.59375 5.96875,-3.15625 6.34375,0 21.3125,10.90625 c 0.93278,0.44399 2.17413,0.0528 2.6875,-0.84375 0.51337,-0.89648 0.19876,-2.1702 -0.65625,-2.75 l -18.28125,-11.53125 c -1.54884,0.50702 -3.12113,0.97252 -4.65625,1.5 -4.23325,1.45458 -8.42915,2.9951 -12.5625,4.59375 -8.26671,3.19731 -16.34362,6.64025 -24.25,10.3125 -7.67209,3.56343 -15.1499,7.33346 -22.53125,11.21875 l -1.4375,0.75 z"
       style="opacity:0.5;fill:url(#linearGradient4263);fill-opacity:1;fill-rule:nonzero;stroke:none;display:inline"
       inkscape:export-filename="/media/0D64-9616/domogik/air conditionning/clim_off.png"
       inkscape:export-xdpi="96"
       inkscape:export-ydpi="96" />
  </g>
</svg>
