<?xml version="1.0" encoding="UTF-8" standalone="no"?>
<!-- Created with Inkscape (http://www.inkscape.org/) -->
<svg
   xmlns:dc="http://purl.org/dc/elements/1.1/"
   xmlns:cc="http://creativecommons.org/ns#"
   xmlns:rdf="http://www.w3.org/1999/02/22-rdf-syntax-ns#"
   xmlns:svg="http://www.w3.org/2000/svg"
   xmlns="http://www.w3.org/2000/svg"
   xmlns:xlink="http://www.w3.org/1999/xlink"
   xmlns:sodipodi="http://sodipodi.sourceforge.net/DTD/sodipodi-0.dtd"
   xmlns:inkscape="http://www.inkscape.org/namespaces/inkscape"
   width="170"
   height="180"
   id="svg3812"
   sodipodi:version="0.32"
   inkscape:version="0.46"
   sodipodi:docname="chambre_amis.svg"
   inkscape:output_extension="org.inkscape.output.svg.inkscape"
   version="1.0">
  <defs
     id="defs3814">
    <linearGradient
       inkscape:collect="always"
       xlink:href="#linearGradient4943"
       id="linearGradient3434"
       gradientUnits="userSpaceOnUse"
       x1="-548.9696"
       y1="391.54959"
       x2="-530.61371"
       y2="400.5141" />
    <linearGradient
       id="linearGradient4943">
      <stop
         style="stop-color:#d3d9e2;stop-opacity:1;"
         offset="0"
         id="stop4945" />
      <stop
         id="stop4947"
         offset="0.3802025"
         style="stop-color:#ffffff;stop-opacity:1;" />
      <stop
         style="stop-color:#babacb;stop-opacity:1;"
         offset="0.6668703"
         id="stop4949" />
      <stop
         id="stop4951"
         offset="1"
         style="stop-color:#f7f8fa;stop-opacity:1;" />
      <stop
         style="stop-color:#bbc6d3;stop-opacity:1;"
         offset="1"
         id="stop4953" />
    </linearGradient>
    <linearGradient
       inkscape:collect="always"
       xlink:href="#linearGradient4943"
       id="linearGradient3432"
       gradientUnits="userSpaceOnUse"
       x1="-548.9696"
       y1="391.54959"
       x2="-530.61371"
       y2="400.5141" />
    <filter
       inkscape:collect="always"
       id="filter4873"
       x="-0.13482603"
       width="1.2696521"
       y="-0.16543764"
       height="1.3308753">
      <feGaussianBlur
         inkscape:collect="always"
         stdDeviation="3.8637248"
         id="feGaussianBlur4875" />
    </filter>
    <linearGradient
       id="linearGradient6725">
      <stop
         style="stop-color:#eba200;stop-opacity:1;"
         offset="0"
         id="stop6727" />
      <stop
         id="stop6729"
         offset="0.21644008"
         style="stop-color:#972700;stop-opacity:1;" />
      <stop
         id="stop6731"
         offset="1"
         style="stop-color:#deb010;stop-opacity:1;" />
    </linearGradient>
    <linearGradient
       inkscape:collect="always"
       xlink:href="#linearGradient6725"
       id="linearGradient3430"
       gradientUnits="userSpaceOnUse"
       x1="-547.28088"
       y1="372.69745"
       x2="-496.69833"
       y2="382.72131" />
    <filter
       inkscape:collect="always"
       id="filter6028">
      <feGaussianBlur
         inkscape:collect="always"
         stdDeviation="0.85781125"
         id="feGaussianBlur6030" />
    </filter>
    <linearGradient
       inkscape:collect="always"
       xlink:href="#linearGradient5626"
       id="linearGradient3428"
       gradientUnits="userSpaceOnUse"
       x1="-212.14131"
       y1="231.60136"
       x2="-207.83765"
       y2="231.60136" />
    <linearGradient
       inkscape:collect="always"
       xlink:href="#linearGradient5618"
       id="linearGradient3426"
       gradientUnits="userSpaceOnUse"
       x1="-221.82718"
       y1="241.08907"
       x2="-207.91412"
       y2="241.08907" />
    <linearGradient
       id="linearGradient5626">
      <stop
         id="stop5628"
         offset="0"
         style="stop-color:#ed6117;stop-opacity:1;" />
      <stop
         id="stop5630"
         offset="1"
         style="stop-color:#8b781e;stop-opacity:1;" />
    </linearGradient>
    <linearGradient
       inkscape:collect="always"
       xlink:href="#linearGradient5626"
       id="linearGradient3424"
       gradientUnits="userSpaceOnUse"
       x1="-212.14131"
       y1="231.60136"
       x2="-207.83765"
       y2="231.60136" />
    <linearGradient
       id="linearGradient5618">
      <stop
         id="stop5620"
         offset="0"
         style="stop-color:#e40500;stop-opacity:1;" />
      <stop
         style="stop-color:#e78910;stop-opacity:1;"
         offset="0.46153846"
         id="stop5622" />
      <stop
         id="stop5624"
         offset="1"
         style="stop-color:#ff1914;stop-opacity:1;" />
    </linearGradient>
    <linearGradient
       inkscape:collect="always"
       xlink:href="#linearGradient5618"
       id="linearGradient3422"
       gradientUnits="userSpaceOnUse"
       x1="-221.82718"
       y1="241.08907"
       x2="-207.91412"
       y2="241.08907" />
    <inkscape:perspective
       sodipodi:type="inkscape:persp3d"
       inkscape:vp_x="0 : 526.18109 : 1"
       inkscape:vp_y="0 : 1000 : 0"
       inkscape:vp_z="744.09448 : 526.18109 : 1"
       inkscape:persp3d-origin="372.04724 : 350.78739 : 1"
       id="perspective3820" />
  </defs>
  <sodipodi:namedview
     id="base"
     pagecolor="#ffffff"
     bordercolor="#666666"
     borderopacity="1.0"
     inkscape:pageopacity="0.0"
     inkscape:pageshadow="2"
     inkscape:zoom="2.366598"
     inkscape:cx="104.55544"
     inkscape:cy="69.680372"
     inkscape:document-units="px"
     inkscape:current-layer="g3755"
     showgrid="false"
     inkscape:window-width="1440"
     inkscape:window-height="826"
     inkscape:window-x="0"
     inkscape:window-y="24" />
  <metadata
     id="metadata3817">
    <rdf:RDF>
      <cc:Work
         rdf:about="">
        <dc:format>image/svg+xml</dc:format>
        <dc:type
           rdf:resource="http://purl.org/dc/dcmitype/StillImage" />
      </cc:Work>
    </rdf:RDF>
  </metadata>
  <g
     inkscape:label="Calque 1"
     inkscape:groupmode="layer"
     id="layer1">
    <g
       id="g3755"
       transform="translate(641.4436,-307.93031)">
      <path
         id="path6032"
         d="M -634.77281,432.9571 L -572.87499,376.18186 L -473.83848,418.01625 L -538.29759,485.89041 L -634.77281,432.9571 z"
         style="fill:#f6e475;fill-opacity:1;fill-rule:evenodd;stroke:none;stroke-width:1px;stroke-linecap:butt;stroke-linejoin:miter;stroke-opacity:1" />
      <path
         transform="matrix(1.0385058,0,0,1.0388685,27.129826,-17.602221)"
         sodipodi:nodetypes="ccccc"
         id="path5699"
         d="M -575.43629,397.95282 L -516.09975,429.54205 L -542.66998,457.96629 L -602.32982,424.84635 L -575.43629,397.95282 z"
         style="fill:#a10000;fill-opacity:1;fill-rule:evenodd;stroke:#790100;stroke-width:1.82923222;stroke-linecap:butt;stroke-linejoin:miter;stroke-miterlimit:4;stroke-dasharray:none;stroke-opacity:1" />
      <path
         transform="translate(-505.1436,199.03926)"
         style="fill:#a9a28a;fill-opacity:1;fill-rule:evenodd;stroke:none;stroke-width:1px;stroke-linecap:butt;stroke-linejoin:miter;stroke-opacity:1"
         d="M -67.665998,115.37409 L -67.922069,177.11324 L 31.573697,218.54386 L 32.14993,159.30479 L -67.665998,115.37409 z"
         id="path3854"
         sodipodi:nodetypes="ccccc" />
      <path
         sodipodi:nodetypes="ccccc"
         id="path3856"
         d="M -19.83437,222.15939 L -16.845032,272.49663 L 36.540353,220.53178 L 37.13825,162.11707 L -19.83437,222.15939 z"
         style="fill:#c6c1af;fill-opacity:1;fill-rule:evenodd;stroke:none;stroke-width:1px;stroke-linecap:butt;stroke-linejoin:miter;stroke-opacity:1"
         transform="matrix(1.1526443,0,0,1.0846968,-615.82409,137.15652)" />
      <g
         id="g6686"
         transform="translate(-3.3203589,-1.2074032)">
        <g
           id="g5661">
          <path
             style="fill:#000000;fill-opacity:1;fill-rule:evenodd;stroke:none;stroke-width:1px;stroke-linecap:butt;stroke-linejoin:miter;stroke-opacity:1"
             d="M -566.89865,371.48617 L -574.58252,379.17003 L -561.77607,384.71949 L -553.23844,377.46251 L -566.89865,371.48617 z"
             id="path5077"
             transform="matrix(0.7292042,0,0,0.7644882,-147.91067,89.654003)" />
          <path
             transform="matrix(0.7292042,0,0,0.7644882,-144.60328,94.906916)"
             id="path5657"
             d="M -570.63385,378.6118 L -570.84732,386.80465 L -567.91249,388.02782 L -567.64569,379.75289 L -570.63385,378.6118 z"
             style="fill:#000000;fill-opacity:1;fill-rule:evenodd;stroke:none;stroke-width:1px;stroke-linecap:butt;stroke-linejoin:miter;stroke-opacity:1"
             sodipodi:nodetypes="ccccc" />
          <path
             transform="matrix(0.7292042,0,0,0.7644882,-149.46709,92.766841)"
             id="path5079"
             d="M -572.23466,375.04898 L -572.44812,378.15209 L -559.64166,383.70154 L -559.64166,380.51635 L -572.23466,375.04898 z"
             style="fill:#b3b3b3;fill-opacity:1;fill-rule:evenodd;stroke:none;stroke-width:1px;stroke-linecap:butt;stroke-linejoin:miter;stroke-opacity:1"
             sodipodi:nodetypes="ccccc" />
          <g
             transform="matrix(0.9115052,0,0,0.9115052,-49.00026,33.093679)"
             id="g5632">
            <path
               d="M -556.2266,377.8894 A 4.9091372,3.4150522 0 1 1 -566.04488,377.8894 A 4.9091372,3.4150522 0 1 1 -556.2266,377.8894 z"
               sodipodi:ry="3.4150522"
               sodipodi:rx="4.9091372"
               sodipodi:cy="377.8894"
               sodipodi:cx="-561.13574"
               id="path5104"
               style="fill:#d10000;fill-opacity:1;fill-rule:evenodd;stroke:none;stroke-width:0.30000001;stroke-linecap:butt;stroke-linejoin:miter;stroke-miterlimit:4;stroke-dasharray:none;stroke-dashoffset:0;stroke-opacity:1"
               sodipodi:type="arc"
               transform="translate(1.4940853,-0.6403223)" />
            <path
               sodipodi:nodetypes="ccsccsc"
               id="path5089"
               d="M -220.1019,230.20422 L -225.26053,247.82957 C -225.26053,247.82957 -220.53178,252.55832 -213.6536,251.9135 C -206.77541,251.26867 -202.90644,246.75486 -202.90644,246.75486 L -208.28002,230.84906 C -208.28002,230.84906 -208.85072,232.58529 -214.07818,233.04823 C -220.50222,233.61714 -220.1019,230.20422 -220.1019,230.20422 z"
               style="fill:url(#linearGradient3422);fill-opacity:1;fill-rule:evenodd;stroke:none;stroke-width:1px;stroke-linecap:butt;stroke-linejoin:miter;stroke-opacity:1"
               transform="matrix(0.5403305,0,0,0.5002098,-443.98341,249.91788)" />
            <path
               sodipodi:nodetypes="csssc"
               id="path5091"
               d="M -208.06507,231.70883 C -208.06507,233.36991 -210.47587,234.5031 -213.97601,234.5031 C -217.47615,234.5031 -220.74673,233.36991 -220.74673,231.70883 C -220.74673,230.04775 -217.90604,228.69963 -214.4059,228.69963 C -210.90576,228.69963 -208.06507,230.04775 -208.06507,231.70883 z"
               style="fill:url(#linearGradient3424);fill-opacity:1;fill-rule:evenodd;stroke:#4f3300;stroke-width:0.94551474;stroke-linecap:butt;stroke-linejoin:miter;stroke-miterlimit:4;stroke-dashoffset:0;stroke-opacity:1"
               transform="matrix(0.5128561,0,0,0.4200196,-449.69988,268.45597)" />
          </g>
          <path
             sodipodi:nodetypes="ccccc"
             style="fill:#000000;fill-opacity:1;fill-rule:evenodd;stroke:none;stroke-width:1px;stroke-linecap:butt;stroke-linejoin:miter;stroke-opacity:1"
             d="M -570.63385,378.6118 L -570.84732,386.80465 L -567.91249,388.02782 L -567.64569,379.75289 L -570.63385,378.6118 z"
             id="path5659"
             transform="matrix(0.7292042,0,0,0.7644882,-138.76671,89.45945)" />
          <path
             sodipodi:nodetypes="ccccc"
             style="fill:#b3b3b3;fill-opacity:1;fill-rule:evenodd;stroke:none;stroke-width:1px;stroke-linecap:butt;stroke-linejoin:miter;stroke-opacity:1"
             d="M -572.23466,375.04898 L -572.44812,378.15209 L -563.64368,371.23167 L -563.91048,367.79199 L -572.23466,375.04898 z"
             id="path5653"
             transform="matrix(0.7292042,0,0,0.7644882,-140.12858,96.85244)" />
          <path
             sodipodi:nodetypes="ccccc"
             style="fill:#000000;fill-opacity:1;fill-rule:evenodd;stroke:none;stroke-width:1px;stroke-linecap:butt;stroke-linejoin:miter;stroke-opacity:1"
             d="M -570.63385,378.6118 L -570.84732,386.80465 L -567.91249,388.02782 L -567.64569,379.75289 L -570.63385,378.6118 z"
             id="path5655"
             transform="matrix(0.7292042,0,0,0.7644882,-149.46709,92.766841)" />
        </g>
      </g>
      <g
         transform="translate(63.54099,27.122145)"
         id="g5673">
        <path
           style="fill:#000000;fill-opacity:1;fill-rule:evenodd;stroke:none;stroke-width:1px;stroke-linecap:butt;stroke-linejoin:miter;stroke-opacity:1"
           d="M -566.89865,371.48617 L -574.58252,379.17003 L -561.77607,384.71949 L -553.23844,377.46251 L -566.89865,371.48617 z"
           id="path5675"
           transform="matrix(0.7292042,0,0,0.7644882,-147.91067,89.654003)" />
        <path
           transform="matrix(0.7292042,0,0,0.7644882,-144.60328,94.906916)"
           id="path5677"
           d="M -570.63385,378.6118 L -570.84732,386.80465 L -567.91249,388.02782 L -567.64569,379.75289 L -570.63385,378.6118 z"
           style="fill:#000000;fill-opacity:1;fill-rule:evenodd;stroke:none;stroke-width:1px;stroke-linecap:butt;stroke-linejoin:miter;stroke-opacity:1"
           sodipodi:nodetypes="ccccc" />
        <path
           transform="matrix(0.7292042,0,0,0.7644882,-149.46709,92.766841)"
           id="path5679"
           d="M -572.23466,375.04898 L -572.44812,378.15209 L -559.64166,383.70154 L -559.64166,380.51635 L -572.23466,375.04898 z"
           style="fill:#b3b3b3;fill-opacity:1;fill-rule:evenodd;stroke:none;stroke-width:1px;stroke-linecap:butt;stroke-linejoin:miter;stroke-opacity:1"
           sodipodi:nodetypes="ccccc" />
        <g
           transform="matrix(0.9115052,0,0,0.9115052,-49.00026,33.093679)"
           id="g5681">
          <path
             d="M -556.2266,377.8894 A 4.9091372,3.4150522 0 1 1 -566.04488,377.8894 A 4.9091372,3.4150522 0 1 1 -556.2266,377.8894 z"
             sodipodi:ry="3.4150522"
             sodipodi:rx="4.9091372"
             sodipodi:cy="377.8894"
             sodipodi:cx="-561.13574"
             id="path5683"
             style="fill:#d10000;fill-opacity:1;fill-rule:evenodd;stroke:none;stroke-width:0.30000001;stroke-linecap:butt;stroke-linejoin:miter;stroke-miterlimit:4;stroke-dasharray:none;stroke-dashoffset:0;stroke-opacity:1"
             sodipodi:type="arc"
             transform="translate(1.4940853,-0.6403223)" />
          <path
             sodipodi:nodetypes="ccsccsc"
             id="path5685"
             d="M -220.1019,230.20422 L -225.26053,247.82957 C -225.26053,247.82957 -220.53178,252.55832 -213.6536,251.9135 C -206.77541,251.26867 -202.90644,246.75486 -202.90644,246.75486 L -208.28002,230.84906 C -208.28002,230.84906 -208.85072,232.58529 -214.07818,233.04823 C -220.50222,233.61714 -220.1019,230.20422 -220.1019,230.20422 z"
             style="fill:url(#linearGradient3426);fill-opacity:1;fill-rule:evenodd;stroke:none;stroke-width:1px;stroke-linecap:butt;stroke-linejoin:miter;stroke-opacity:1"
             transform="matrix(0.5403305,0,0,0.5002098,-443.98341,249.91788)" />
          <path
             sodipodi:nodetypes="csssc"
             id="path5687"
             d="M -208.06507,231.70883 C -208.06507,233.36991 -210.47587,234.5031 -213.97601,234.5031 C -217.47615,234.5031 -220.74673,233.36991 -220.74673,231.70883 C -220.74673,230.04775 -217.90604,228.69963 -214.4059,228.69963 C -210.90576,228.69963 -208.06507,230.04775 -208.06507,231.70883 z"
             style="fill:url(#linearGradient3428);fill-opacity:1;fill-rule:evenodd;stroke:#4f3300;stroke-width:0.94551474;stroke-linecap:butt;stroke-linejoin:miter;stroke-miterlimit:4;stroke-dashoffset:0;stroke-opacity:1"
             transform="matrix(0.5128561,0,0,0.4200196,-449.69988,268.45597)" />
        </g>
        <path
           sodipodi:nodetypes="ccccc"
           style="fill:#000000;fill-opacity:1;fill-rule:evenodd;stroke:none;stroke-width:1px;stroke-linecap:butt;stroke-linejoin:miter;stroke-opacity:1"
           d="M -570.63385,378.6118 L -570.84732,386.80465 L -567.91249,388.02782 L -567.64569,379.75289 L -570.63385,378.6118 z"
           id="path5689"
           transform="matrix(0.7292042,0,0,0.7644882,-138.76671,89.45945)" />
        <path
           sodipodi:nodetypes="ccccc"
           style="fill:#b3b3b3;fill-opacity:1;fill-rule:evenodd;stroke:none;stroke-width:1px;stroke-linecap:butt;stroke-linejoin:miter;stroke-opacity:1"
           d="M -572.23466,375.04898 L -572.44812,378.15209 L -563.64368,371.23167 L -563.91048,367.79199 L -572.23466,375.04898 z"
           id="path5691"
           transform="matrix(0.7292042,0,0,0.7644882,-140.12858,96.85244)" />
        <path
           sodipodi:nodetypes="ccccc"
           style="fill:#000000;fill-opacity:1;fill-rule:evenodd;stroke:none;stroke-width:1px;stroke-linecap:butt;stroke-linejoin:miter;stroke-opacity:1"
           d="M -570.63385,378.6118 L -570.84732,386.80465 L -567.91249,388.02782 L -567.64569,379.75289 L -570.63385,378.6118 z"
           id="path5693"
           transform="matrix(0.7292042,0,0,0.7644882,-149.46709,92.766841)" />
      </g>
      <path
         sodipodi:nodetypes="csssssssssc"
         transform="matrix(1.0755864,0,0,1,33.455487,-2.5612891)"
         id="path5701"
         d="M -556.22661,330.50554 C -556.22661,330.50554 -562.62984,334.34747 -560.92231,336.90876 C -559.21478,339.47005 -551.53092,337.33565 -550.67715,339.04317 C -549.82339,340.7507 -551.53092,350.14209 -547.68898,352.70338 C -543.84705,355.26467 -535.30942,347.15392 -530.61372,350.99585 C -525.91803,354.83779 -522.92986,363.37542 -517.80728,363.8023 C -512.6847,364.22918 -511.40405,356.11843 -507.13524,357.82596 C -502.86642,359.53348 -499.87825,370.6324 -495.18256,371.05929 C -490.48686,371.48617 -484.51052,363.37542 -481.52235,365.93671 C -478.53418,368.498 -480.23406,372.98195 -478.96106,374.47434 C -475.5697,378.45018 -473.65669,367.76926 -473.65669,367.76926"
         style="fill:none;fill-rule:evenodd;stroke:#000000;stroke-width:0.28926682;stroke-linecap:butt;stroke-linejoin:miter;stroke-miterlimit:4;stroke-dasharray:none;stroke-opacity:1" />
      <path
         sodipodi:nodetypes="ccccc"
         id="rect5703"
         d="M -534.02875,341.60445 L -510.55027,351.42271 L -510.97715,371.48615 L -534.88251,360.81411 L -534.02875,341.60445 z"
         style="fill:#ffffff;fill-opacity:1;fill-rule:evenodd;stroke:#880000;stroke-width:0.80000001;stroke-linecap:butt;stroke-linejoin:miter;stroke-miterlimit:4;stroke-dasharray:none;stroke-dashoffset:0;stroke-opacity:1" />
      <path
         d="M -525.49114,351.20929 A 3.4150522,3.2016113 0 1 1 -532.32124,351.20929 A 3.4150522,3.2016113 0 1 1 -525.49114,351.20929 z"
         sodipodi:ry="3.2016113"
         sodipodi:rx="3.4150522"
         sodipodi:cy="351.20929"
         sodipodi:cx="-528.90619"
         id="path5707"
         style="fill:#008000;fill-opacity:1;fill-rule:evenodd;stroke:none;stroke-width:1.29999995;stroke-linecap:butt;stroke-linejoin:miter;stroke-miterlimit:4;stroke-dasharray:none;stroke-dashoffset:0;stroke-opacity:1"
         sodipodi:type="arc" />
      <path
         transform="matrix(1.5,0,0,1.6,271.28319,-204.10892)"
         sodipodi:type="arc"
         style="fill:#ffcc00;fill-opacity:1;fill-rule:evenodd;stroke:none;stroke-width:1.29999995;stroke-linecap:butt;stroke-linejoin:miter;stroke-miterlimit:4;stroke-dasharray:none;stroke-dashoffset:0;stroke-opacity:1"
         id="path5709"
         sodipodi:cx="-528.90619"
         sodipodi:cy="351.20929"
         sodipodi:rx="3.4150522"
         sodipodi:ry="3.2016113"
         d="M -525.49114,351.20929 A 3.4150522,3.2016113 0 1 1 -532.32124,351.20929 A 3.4150522,3.2016113 0 1 1 -525.49114,351.20929 z" />
      <path
         d="M -525.49114,351.20929 A 3.4150522,3.2016113 0 1 1 -532.32124,351.20929 A 3.4150522,3.2016113 0 1 1 -525.49114,351.20929 z"
         sodipodi:ry="3.2016113"
         sodipodi:rx="3.4150522"
         sodipodi:cy="351.20929"
         sodipodi:cx="-528.90619"
         id="path5711"
         style="fill:#d45500;fill-opacity:1;fill-rule:evenodd;stroke:none;stroke-width:1.29999995;stroke-linecap:butt;stroke-linejoin:miter;stroke-miterlimit:4;stroke-dasharray:none;stroke-dashoffset:0;stroke-opacity:1"
         sodipodi:type="arc"
         transform="matrix(1.125,0,0,1.2666666,78.065956,-88.533233)" />
      <g
         style="fill:#545454;fill-opacity:1;stroke:none;filter:url(#filter6028)"
         id="g5724">
        <path
           transform="matrix(0.5678591,0,0,0.6318615,-313.59067,144.29004)"
           style="fill:#545454;fill-opacity:1;fill-rule:evenodd;stroke:none;stroke-width:1.50248885;stroke-linecap:butt;stroke-linejoin:miter;stroke-miterlimit:4;stroke-dasharray:none;stroke-dashoffset:0;stroke-opacity:1"
           d="M -534.02875,341.60445 L -527.19865,335.6281 L -524.21048,370.20551 L -531.04058,375.32808 L -534.02875,341.60445 z"
           id="path5726"
           sodipodi:nodetypes="ccccc" />
        <path
           sodipodi:nodetypes="ccccc"
           id="path5728"
           d="M -534.02875,341.60445 L -527.19865,335.6281 L -524.21048,370.20551 L -531.04058,375.32808 L -534.02875,341.60445 z"
           style="fill:#545454;fill-opacity:1;fill-rule:evenodd;stroke:none;stroke-width:1.30333531;stroke-linecap:butt;stroke-linejoin:miter;stroke-miterlimit:4;stroke-dasharray:none;stroke-dashoffset:0;stroke-opacity:1"
           transform="matrix(0.6556874,0,0,0.7272368,-257.9298,108.7789)" />
        <path
           transform="matrix(0.5678591,0,0,0.6318615,-296.56773,128.6802)"
           style="fill:#545454;fill-opacity:1;fill-rule:evenodd;stroke:none;stroke-width:1.50248885;stroke-linecap:butt;stroke-linejoin:miter;stroke-miterlimit:4;stroke-dasharray:none;stroke-dashoffset:0;stroke-opacity:1"
           d="M -534.02875,341.60445 L -527.19865,335.6281 L -524.21048,370.20551 L -531.04058,375.32808 L -534.02875,341.60445 z"
           id="path5730"
           sodipodi:nodetypes="ccccc" />
      </g>
      <path
         transform="matrix(0.5678591,0,0,0.6318615,-311.88314,142.58251)"
         style="fill:#e40000;fill-opacity:1;fill-rule:evenodd;stroke:#000000;stroke-width:0.50082964;stroke-linecap:butt;stroke-linejoin:miter;stroke-miterlimit:4;stroke-dasharray:none;stroke-dashoffset:0;stroke-opacity:1"
         d="M -534.02875,341.60445 L -527.19865,335.6281 L -524.21048,370.20551 L -531.04058,375.32808 L -534.02875,341.60445 z"
         id="path5713"
         sodipodi:nodetypes="ccccc" />
      <path
         sodipodi:nodetypes="ccccc"
         id="path5715"
         d="M -534.48911,340.77432 L -527.19865,335.6281 L -524.21048,370.20551 L -531.04058,375.32808 L -534.48911,340.77432 z"
         style="fill:#e40000;fill-opacity:1;fill-rule:evenodd;stroke:#000000;stroke-width:0.43444511;stroke-linecap:butt;stroke-linejoin:miter;stroke-miterlimit:4;stroke-dasharray:none;stroke-dashoffset:0;stroke-opacity:1"
         transform="matrix(0.6556874,0,0,0.7272368,-256.22227,107.07137)" />
      <path
         transform="matrix(0.5678591,0,0,0.6318615,-294.8602,126.97267)"
         style="fill:#e40000;fill-opacity:1;fill-rule:evenodd;stroke:#000000;stroke-width:0.50082964;stroke-linecap:butt;stroke-linejoin:miter;stroke-miterlimit:4;stroke-dasharray:none;stroke-dashoffset:0;stroke-opacity:1"
         d="M -534.02875,341.60445 L -527.19865,335.6281 L -524.21048,370.20551 L -531.04058,375.32808 L -534.02875,341.60445 z"
         id="path5717"
         sodipodi:nodetypes="ccccc" />
      <path
         style="fill:#7d3200;fill-opacity:1;fill-rule:evenodd;stroke:none;stroke-width:2.5999999;stroke-linecap:butt;stroke-linejoin:miter;stroke-miterlimit:4;stroke-dashoffset:0;stroke-opacity:1"
         d="M -537.22162,349.26766 L -505.89154,349.26766 C -501.68114,349.26766 -498.29154,352.65726 -498.29154,356.86766 L -508.84278,392.06036 C -508.84278,396.27076 -512.23238,399.66036 -516.44278,399.66036 L -547.77286,399.66036 C -551.98326,399.66036 -555.37286,396.27076 -555.37286,392.06036 L -544.82162,356.86766 C -544.82162,352.65726 -541.43202,349.26766 -537.22162,349.26766 z"
         id="path3948"
         transform="matrix(0.9291066,0.5083374,-0.5007106,0.9432586,135.22511,325.79856)"
         sodipodi:nodetypes="ccccccccc" />
      <path
         sodipodi:nodetypes="ccccccccc"
         transform="matrix(0.9291066,0.5007106,-0.5007106,0.9291066,135.22511,323.4756)"
         id="rect3945"
         d="M -537.22162,349.26766 L -505.89154,349.26766 C -501.68114,349.26766 -496.87392,355.28776 -496.87392,359.49816 L -506.29781,394.08331 C -506.29781,398.29371 -509.13835,400.90249 -513.34875,400.90249 L -551.93575,400.93396 C -556.14615,400.93396 -555.37286,396.27076 -555.37286,392.06036 L -544.82162,356.86766 C -544.82162,352.65726 -541.43202,349.26766 -537.22162,349.26766 z"
         style="fill:url(#linearGradient3430);fill-opacity:1;fill-rule:evenodd;stroke:none;stroke-width:2.5999999;stroke-linecap:butt;stroke-linejoin:miter;stroke-miterlimit:4;stroke-dashoffset:0;stroke-opacity:1" />
      <g
         transform="matrix(1.0554383,0,0,1.0554383,30.889172,-22.54987)"
         id="g4955">
        <path
           sodipodi:nodetypes="ccccccccc"
           transform="matrix(0.2538175,0.1302133,-0.1355114,0.243894,-353.70274,370.78447)"
           id="path3957"
           d="M -537.22162,349.26766 L -505.89154,349.26766 C -501.68114,349.26766 -498.29154,352.65726 -498.29154,356.86766 L -508.84278,392.06036 C -508.84278,396.27076 -512.23238,399.66036 -516.44278,399.66036 L -547.77286,399.66036 C -551.98326,399.66036 -555.37286,396.27076 -555.37286,392.06036 L -544.82162,356.86766 C -544.82162,352.65726 -541.43202,349.26766 -537.22162,349.26766 z"
           style="fill:#666666;fill-opacity:1;fill-rule:evenodd;stroke:none;stroke-width:2.5999999;stroke-linecap:butt;stroke-linejoin:miter;stroke-miterlimit:4;stroke-dashoffset:0;stroke-opacity:1;filter:url(#filter4873)" />
        <path
           style="fill:url(#linearGradient3432);fill-opacity:1;fill-rule:evenodd;stroke:none;stroke-width:1px;stroke-linecap:butt;stroke-linejoin:miter;stroke-opacity:1"
           d="M -548.96963,396.67217 C -548.96963,396.67217 -550.67716,389.84207 -545.55458,385.57326 C -544.20245,384.44648 -541.28576,382.58508 -541.28576,382.58508 L -529.33307,387.70766 C -529.33307,387.70766 -531.0406,391.97648 -531.89437,393.68401 C -532.74813,395.39153 -537.44383,400.51411 -537.44383,400.51411 L -548.96963,396.67217 z"
           id="path4931"
           transform="translate(0.4268814,-0.4268811)"
           sodipodi:nodetypes="csccscc" />
      </g>
      <g
         transform="matrix(1.0554383,0,0,1.0554383,48.009945,-13.538928)"
         id="g4959">
        <path
           style="fill:#666666;fill-opacity:1;fill-rule:evenodd;stroke:none;stroke-width:2.5999999;stroke-linecap:butt;stroke-linejoin:miter;stroke-miterlimit:4;stroke-dashoffset:0;stroke-opacity:1;filter:url(#filter4873)"
           d="M -537.22162,349.26766 L -505.89154,349.26766 C -501.68114,349.26766 -498.29154,352.65726 -498.29154,356.86766 L -508.84278,392.06036 C -508.84278,396.27076 -512.23238,399.66036 -516.44278,399.66036 L -547.77286,399.66036 C -551.98326,399.66036 -555.37286,396.27076 -555.37286,392.06036 L -544.82162,356.86766 C -544.82162,352.65726 -541.43202,349.26766 -537.22162,349.26766 z"
           id="path4961"
           transform="matrix(0.2538175,0.1302133,-0.1355114,0.243894,-353.70274,370.78447)"
           sodipodi:nodetypes="ccccccccc" />
        <path
           sodipodi:nodetypes="csccscc"
           transform="translate(0.4268814,-0.4268811)"
           id="path4963"
           d="M -548.96963,396.67217 C -548.96963,396.67217 -550.67716,389.84207 -545.55458,385.57326 C -544.20245,384.44648 -541.28576,382.58508 -541.28576,382.58508 L -529.33307,387.70766 C -529.33307,387.70766 -531.0406,391.97648 -531.89437,393.68401 C -532.74813,395.39153 -537.44383,400.51411 -537.44383,400.51411 L -548.96963,396.67217 z"
           style="fill:url(#linearGradient3434);fill-opacity:1;fill-rule:evenodd;stroke:none;stroke-width:1px;stroke-linecap:butt;stroke-linejoin:miter;stroke-opacity:1" />
      </g>
      <path
         transform="matrix(1.0554383,0,0,1.0554383,29.537531,-21.198229)"
         id="path4919"
         d="M -557.50726,391.12272 L -519.94168,410.75927 C -519.94168,410.75927 -517.3804,414.6012 -517.80728,417.16249 C -518.23416,419.72378 -512.6847,412.46679 -512.6847,412.46679 C -512.6847,412.46679 -511.40405,407.7711 -514.39223,405.20981 C -517.3804,402.64852 -551.53092,384.71949 -551.53092,384.71949 L -557.50726,391.12272 z"
         style="fill:#ffffff;fill-rule:evenodd;stroke:none;stroke-width:1px;stroke-linecap:butt;stroke-linejoin:miter;stroke-opacity:1" />
      <path
         transform="matrix(1.0554383,0,0,1.0554383,11.966194,-2.8744937)"
         id="path6034"
         d="M -558.36525,391.12272 L -519.94168,410.75927 C -519.94168,410.75927 -517.3804,414.6012 -517.80728,417.16249 C -518.23416,419.72378 -512.6847,412.46679 -512.6847,412.46679 C -512.6847,412.46679 -511.40405,407.7711 -514.39223,405.20981 C -517.3804,402.64852 -552.10291,384.71949 -552.10291,384.71949 L -558.36525,391.12272 z"
         style="fill:#e97d09;fill-opacity:1;fill-rule:evenodd;stroke:none;stroke-width:1px;stroke-linecap:butt;stroke-linejoin:miter;stroke-opacity:1"
         sodipodi:nodetypes="ccscscc" />
      <path
         sodipodi:nodetypes="ccccc"
         id="path6036"
         d="M -633.91905,398.3797 L -616.52363,382.47836 L -608.62632,385.57326 L -625.70158,404.14261 L -633.91905,398.3797 z"
         style="fill:#1a1a1a;fill-rule:evenodd;stroke:none;stroke-width:1px;stroke-linecap:butt;stroke-linejoin:miter;stroke-opacity:1" />
      <path
         sodipodi:nodetypes="ccccc"
         transform="translate(7.6838673,6.8301042)"
         style="fill:#808080;fill-opacity:1;fill-rule:evenodd;stroke:none;stroke-width:1px;stroke-linecap:butt;stroke-linejoin:miter;stroke-opacity:1"
         d="M -633.91905,395.39153 L -616.41691,378.74315 L -615.13627,410.75927 L -631.78464,425.27324 L -633.91905,395.39153 z"
         id="path6038" />
      <path
         id="path6040"
         d="M -634.34593,396.24529 L -625.8083,399.34018 L -624.10078,429.96893 L -631.78464,426.55389 L -634.34593,396.24529 z"
         style="fill:#4d4d4d;fill-opacity:1;fill-rule:evenodd;stroke:none;stroke-width:1px;stroke-linecap:butt;stroke-linejoin:miter;stroke-opacity:1"
         transform="translate(0.4268816,2.1344076)"
         sodipodi:nodetypes="ccccc" />
      <path
         sodipodi:nodetypes="cc"
         transform="matrix(1,0,0,1.0724638,0,-30.755039)"
         id="path6042"
         d="M -616.95051,395.36269 L -615.13626,424.02143"
         style="fill:none;fill-rule:evenodd;stroke:#000000;stroke-width:0.67593777;stroke-linecap:butt;stroke-linejoin:miter;stroke-miterlimit:4;stroke-dasharray:none;stroke-opacity:1" />
      <path
         transform="matrix(0.8,0,0,0.8,-123.15514,80.978438)"
         d="M -617.28494,411.38199 A 1.5092541,1.6601795 0 1 1 -620.30344,411.38199 A 1.5092541,1.6601795 0 1 1 -617.28494,411.38199 z"
         sodipodi:ry="1.6601795"
         sodipodi:rx="1.5092541"
         sodipodi:cy="411.38199"
         sodipodi:cx="-618.79419"
         id="path6044"
         style="fill:#1a1a1a;fill-opacity:1;fill-rule:evenodd;stroke:none;stroke-width:0.69999999;stroke-linecap:butt;stroke-linejoin:miter;stroke-miterlimit:4;stroke-dasharray:none;stroke-dashoffset:0;stroke-opacity:1"
         sodipodi:type="arc" />
      <path
         transform="matrix(0.8,0,0,0.8,-119.53293,78.322151)"
         sodipodi:type="arc"
         style="fill:#1a1a1a;fill-opacity:1;fill-rule:evenodd;stroke:none;stroke-width:0.69999999;stroke-linecap:butt;stroke-linejoin:miter;stroke-miterlimit:4;stroke-dasharray:none;stroke-dashoffset:0;stroke-opacity:1"
         id="path6046"
         sodipodi:cx="-618.79419"
         sodipodi:cy="411.38199"
         sodipodi:rx="1.5092541"
         sodipodi:ry="1.6601795"
         d="M -617.28494,411.38199 A 1.5092541,1.6601795 0 1 1 -620.30344,411.38199 A 1.5092541,1.6601795 0 1 1 -617.28494,411.38199 z" />
    </g>
  </g>
</svg>
