<?xml version="1.0" encoding="UTF-8" standalone="no"?>
<!-- Created with Inkscape (http://www.inkscape.org/) -->
<svg
   xmlns:dc="http://purl.org/dc/elements/1.1/"
   xmlns:cc="http://creativecommons.org/ns#"
   xmlns:rdf="http://www.w3.org/1999/02/22-rdf-syntax-ns#"
   xmlns:svg="http://www.w3.org/2000/svg"
   xmlns="http://www.w3.org/2000/svg"
   xmlns:xlink="http://www.w3.org/1999/xlink"
   xmlns:sodipodi="http://sodipodi.sourceforge.net/DTD/sodipodi-0.dtd"
   xmlns:inkscape="http://www.inkscape.org/namespaces/inkscape"
   width="170"
   height="175"
   id="svg3926"
   sodipodi:version="0.32"
   inkscape:version="0.46"
   sodipodi:docname="salon_tv.svg"
   inkscape:output_extension="org.inkscape.output.svg.inkscape"
   version="1.0">
  <defs
     id="defs3928">
    <linearGradient
       inkscape:collect="always"
       xlink:href="#linearGradient4685"
       id="linearGradient5426"
       gradientUnits="userSpaceOnUse"
       x1="-245.65839"
       y1="302.63718"
       x2="-260.1593"
       y2="297.03073" />
    <linearGradient
       inkscape:collect="always"
       xlink:href="#linearGradient4685"
       id="linearGradient5424"
       gradientUnits="userSpaceOnUse"
       x1="-261.38504"
       y1="299.54623"
       x2="-254.04112"
       y2="305.04474" />
    <linearGradient
       id="linearGradient4663">
      <stop
         style="stop-color:#1a5e96;stop-opacity:1;"
         offset="0"
         id="stop4665" />
      <stop
         style="stop-color:#badaf4;stop-opacity:1;"
         offset="1"
         id="stop4667" />
    </linearGradient>
    <linearGradient
       inkscape:collect="always"
       xlink:href="#linearGradient4663"
       id="linearGradient5422"
       gradientUnits="userSpaceOnUse"
       x1="-170.79109"
       y1="279.08035"
       x2="-161.76579"
       y2="286.33014" />
    <linearGradient
       id="linearGradient4685">
      <stop
         style="stop-color:#ff983c;stop-opacity:1;"
         offset="0"
         id="stop4687" />
      <stop
         id="stop4695"
         offset="0.46153846"
         style="stop-color:#e75a10;stop-opacity:1;" />
      <stop
         style="stop-color:#ff9c56;stop-opacity:1;"
         offset="1"
         id="stop4689" />
    </linearGradient>
    <linearGradient
       inkscape:collect="always"
       xlink:href="#linearGradient4685"
       id="linearGradient5420"
       gradientUnits="userSpaceOnUse"
       x1="-261.38504"
       y1="299.54623"
       x2="-250.38525"
       y2="301.20642" />
    <linearGradient
       id="linearGradient4360">
      <stop
         id="stop4362"
         offset="0"
         style="stop-color:#ffe86a;stop-opacity:1;" />
      <stop
         id="stop4364"
         offset="1"
         style="stop-color:#84651a;stop-opacity:1;" />
    </linearGradient>
    <linearGradient
       inkscape:collect="always"
       xlink:href="#linearGradient4360"
       id="linearGradient5418"
       gradientUnits="userSpaceOnUse"
       x1="-233.875"
       y1="296.42468"
       x2="-228.75"
       y2="301.92468" />
    <filter
       inkscape:collect="always"
       id="filter4398">
      <feGaussianBlur
         inkscape:collect="always"
         stdDeviation="0.2169246"
         id="feGaussianBlur4400" />
    </filter>
    <linearGradient
       inkscape:collect="always"
       xlink:href="#linearGradient4158"
       id="linearGradient5416"
       gradientUnits="userSpaceOnUse"
       x1="-256.375"
       y1="287.42468"
       x2="-251.88927"
       y2="292.29968" />
    <linearGradient
       id="linearGradient4158">
      <stop
         style="stop-color:#ffe86a;stop-opacity:1;"
         offset="0"
         id="stop4160" />
      <stop
         style="stop-color:#b28823;stop-opacity:1;"
         offset="1"
         id="stop4162" />
    </linearGradient>
    <linearGradient
       inkscape:collect="always"
       xlink:href="#linearGradient4158"
       id="linearGradient5414"
       gradientUnits="userSpaceOnUse"
       x1="-256.375"
       y1="287.42468"
       x2="-251.88927"
       y2="292.29968" />
    <linearGradient
       id="linearGradient4436">
      <stop
         style="stop-color:#dac356;stop-opacity:1;"
         offset="0"
         id="stop4438" />
      <stop
         style="stop-color:#8b781e;stop-opacity:1;"
         offset="1"
         id="stop4440" />
    </linearGradient>
    <linearGradient
       inkscape:collect="always"
       xlink:href="#linearGradient4436"
       id="linearGradient5412"
       gradientUnits="userSpaceOnUse"
       x1="-212.14131"
       y1="231.60136"
       x2="-207.83765"
       y2="231.60136" />
    <linearGradient
       id="linearGradient4423">
      <stop
         style="stop-color:#ffde42;stop-opacity:1;"
         offset="0"
         id="stop4425" />
      <stop
         id="stop4431"
         offset="0.5"
         style="stop-color:#ffffff;stop-opacity:1;" />
      <stop
         style="stop-color:#ffde3c;stop-opacity:1;"
         offset="1"
         id="stop4427" />
    </linearGradient>
    <linearGradient
       inkscape:collect="always"
       xlink:href="#linearGradient4423"
       id="linearGradient5410"
       gradientUnits="userSpaceOnUse"
       x1="-219.45706"
       y1="241.73392"
       x2="-211.07428"
       y2="241.73392" />
    <clipPath
       clipPathUnits="userSpaceOnUse"
       id="clipPath4779">
      <path
         style="fill:none;fill-rule:evenodd;stroke:#000000;stroke-width:0.26512986px;stroke-linecap:butt;stroke-linejoin:miter;stroke-opacity:1"
         d="M -285.85273,332.14611 L -222.16221,272.6815 L -123.75884,313.73321 L -190.46787,384.3663 L -285.85273,332.14611 z"
         id="path4781"
         transform="matrix(2.5429251,2.7707245,-2.592285,2.7698368,1623.4876,-84.432825)" />
    </clipPath>
    <inkscape:perspective
       sodipodi:type="inkscape:persp3d"
       inkscape:vp_x="0 : 526.18109 : 1"
       inkscape:vp_y="0 : 1000 : 0"
       inkscape:vp_z="744.09448 : 526.18109 : 1"
       inkscape:persp3d-origin="372.04724 : 350.78739 : 1"
       id="perspective3934" />
  </defs>
  <sodipodi:namedview
     id="base"
     pagecolor="#ffffff"
     bordercolor="#666666"
     borderopacity="1.0"
     inkscape:pageopacity="0.0"
     inkscape:pageshadow="2"
     inkscape:zoom="1.4"
     inkscape:cx="192.27365"
     inkscape:cy="208.40471"
     inkscape:document-units="px"
     inkscape:current-layer="layer1"
     showgrid="false"
     inkscape:window-width="1440"
     inkscape:window-height="826"
     inkscape:window-x="0"
     inkscape:window-y="24" />
  <metadata
     id="metadata3931">
    <rdf:RDF>
      <cc:Work
         rdf:about="">
        <dc:format>image/svg+xml</dc:format>
        <dc:type
           rdf:resource="http://purl.org/dc/dcmitype/StillImage" />
      </cc:Work>
    </rdf:RDF>
  </metadata>
  <g
     inkscape:label="Calque 1"
     inkscape:groupmode="layer"
     id="layer1">
    <g
       id="g3659"
       transform="translate(300.76612,-252.0598)">
      <image
         style="fill:none;stroke:none"
         clip-path="url(#clipPath4779)"
         transform="matrix(0.1947025,-0.1947649,0.1822217,0.178752,-309.81947,372.61005)"
         xlink:href="/home/marisa/Bureau/Lien vers travail-crea-port/domogik/444.jpg"
         sodipodi:absref="/home/marisa/Bureau/Lien vers travail-crea-port/domogik/444.jpg"
         width="512"
         height="512"
         id="image4775" />
      <path
         transform="translate(-10.495218,43.240065)"
         id="path4707"
         d="M -285.85273,332.14611 L -222.16221,272.6815 L -123.75884,313.73321 L -190.46787,384.3663 L -285.85273,332.14611 z"
         style="fill:none;fill-rule:evenodd;stroke:none;stroke-width:1px;stroke-linecap:butt;stroke-linejoin:miter;stroke-opacity:1" />
      <path
         transform="matrix(1.1526443,0,0,1.0846968,-275.59952,78.246876)"
         style="fill:#decd87;fill-opacity:1;fill-rule:evenodd;stroke:none;stroke-width:1px;stroke-linecap:butt;stroke-linejoin:miter;stroke-opacity:1"
         d="M -21.296968,220.95477 L -16.845032,272.49663 L 36.540353,220.53178 L 37.13825,162.11707 L -21.296968,220.95477 z"
         id="path4415"
         sodipodi:nodetypes="ccccc" />
      <path
         sodipodi:nodetypes="ccccc"
         id="path4417"
         d="M -67.062296,117.7889 L -67.922069,177.11324 L 32.479249,218.24201 L 33.961035,161.11589 L -67.062296,117.7889 z"
         style="fill:#d3bc5f;fill-opacity:1;fill-rule:evenodd;stroke:none;stroke-width:1px;stroke-linecap:butt;stroke-linejoin:miter;stroke-opacity:1"
         transform="translate(-165.34592,137.56833)" />
      <path
         transform="matrix(0.8408252,0,0,0.8604886,-34.865532,84.3289)"
         sodipodi:nodetypes="ccccc"
         id="path4671"
         d="M -176.56659,274.23148 L -186.24196,282.94442 L -134.92732,304.07398 L -123.75884,292.79941 L -176.56659,274.23148 z"
         style="fill:#582101;fill-opacity:1;fill-rule:evenodd;stroke:none;stroke-width:1px;stroke-linecap:butt;stroke-linejoin:miter;stroke-opacity:1" />
      <g
         transform="matrix(0.8649684,0,0,0.8251851,-41.516207,92.014021)"
         id="g4444">
        <rect
           style="opacity:1;fill:#808080;fill-opacity:1;fill-rule:evenodd;stroke:none;stroke-width:0.2;stroke-linecap:butt;stroke-linejoin:miter;stroke-miterlimit:4;stroke-dasharray:none;stroke-dashoffset:0;stroke-opacity:1"
           id="rect4419"
           width="1.0747163"
           height="39.334618"
           x="-214.08348"
           y="237.94218" />
        <path
           transform="matrix(1,0,0,0.9703795,0,6.8187669)"
           style="fill:url(#linearGradient5410);fill-opacity:1;fill-rule:evenodd;stroke:none;stroke-width:1px;stroke-linecap:butt;stroke-linejoin:miter;stroke-opacity:1"
           d="M -220.1019,230.20422 L -225.26053,247.82957 C -225.26053,247.82957 -220.53178,252.55832 -213.6536,251.9135 C -206.77541,251.26867 -202.90644,246.75486 -202.90644,246.75486 L -208.28002,230.84906 C -208.28002,230.84906 -208.85072,232.58529 -214.07818,233.04823 C -220.50222,233.61714 -220.1019,230.20422 -220.1019,230.20422 z"
           id="path4421"
           sodipodi:nodetypes="ccsccsc" />
        <path
           transform="matrix(0.9491526,0,0,0.8148149,-10.579573,42.781655)"
           style="fill:url(#linearGradient5412);fill-opacity:1;fill-rule:evenodd;stroke:#4f3300;stroke-width:0.53837723;stroke-linecap:butt;stroke-linejoin:miter;stroke-miterlimit:4;stroke-dashoffset:0;stroke-opacity:1"
           d="M -208.06507,231.70883 C -208.06507,233.36991 -210.47587,234.5031 -213.97601,234.5031 C -217.47615,234.5031 -220.74673,233.36991 -220.74673,231.70883 C -220.74673,230.04775 -217.90604,228.69963 -214.4059,228.69963 C -210.90576,228.69963 -208.06507,230.04775 -208.06507,231.70883 z"
           id="path4433"
           sodipodi:nodetypes="csssc" />
      </g>
      <path
         sodipodi:nodetypes="cssc"
         transform="matrix(-0.9884434,0.1515906,-0.1515906,-0.9884434,-382.47784,623.82419)"
         id="path4651"
         d="M -214.61594,277.51111 C -214.61594,277.51111 -213.97285,272.43137 -211.55805,273.03508 C -209.14324,273.63878 -207.80393,272.13958 -205.82288,276.95914 C -204.90482,279.19262 -199.82525,275.70001 -199.82525,275.70001"
         style="fill:none;fill-rule:evenodd;stroke:#000000;stroke-width:0.60000002;stroke-linecap:butt;stroke-linejoin:miter;stroke-miterlimit:4;stroke-dasharray:none;stroke-opacity:1" />
      <g
         transform="translate(-9.6048344,43.541916)"
         id="g4402">
        <path
           sodipodi:nodetypes="ccsccc"
           transform="matrix(0.9987888,3.9547529e-2,-4.9202354e-2,0.8027996,52.587195,38.952852)"
           id="path4348"
           d="M -272.4625,318.43091 L -273.09665,305.96478 C -273.09665,305.96478 -266.15377,304.15054 -257.55604,306.72986 C -248.95831,309.30918 -248.4744,318.97579 -248.4744,318.97579 L -249.33418,330.58273 L -272.4625,318.43091 z"
           style="fill:#a0892c;fill-rule:evenodd;stroke:none;stroke-width:1px;stroke-linecap:butt;stroke-linejoin:miter;stroke-opacity:1" />
        <path
           style="fill:#ffe86a;fill-opacity:1;fill-rule:evenodd;stroke:none;stroke-width:1px;stroke-linecap:butt;stroke-linejoin:miter;stroke-opacity:1"
           d="M -249.33418,328.43329 L -251.48361,319.83556 L -214.08348,283.29521 L -232.13872,273.83771 L -269.53884,308.65851 L -268.67907,316.39647 L -249.33418,328.43329 z"
           id="path4142"
           transform="translate(0.4298865,3.4390921)"
           sodipodi:nodetypes="ccccccc" />
        <path
           style="fill:#a0892c;fill-rule:evenodd;stroke:none;stroke-width:1px;stroke-linecap:butt;stroke-linejoin:miter;stroke-opacity:1"
           d="M -272.4625,318.43091 L -273.09665,305.96478 C -273.09665,305.96478 -270.39862,304.35965 -261.80089,306.93897 C -253.20316,309.51829 -248.4744,318.97579 -248.4744,318.97579 L -248.57279,330.79553 L -272.4625,318.43091 z"
           id="path3370"
           transform="matrix(0.9987888,4.9202354e-2,-4.9202354e-2,0.9987888,15.337195,13.319477)"
           sodipodi:nodetypes="ccsccc" />
        <path
           style="fill:#a0892c;fill-opacity:1;fill-rule:evenodd;stroke:none;stroke-width:1px;stroke-linecap:butt;stroke-linejoin:miter;stroke-opacity:1"
           d="M -208.83348,281.78919 L -209.02859,291.02715 L -249.51406,331.49739 L -249.33417,321.12522 L -208.83348,281.78919 z"
           id="path4144"
           sodipodi:nodetypes="ccccc" />
        <path
           style="fill:url(#linearGradient5414);fill-opacity:1;fill-rule:evenodd;stroke:none;stroke-width:1px;stroke-linecap:butt;stroke-linejoin:miter;stroke-opacity:1"
           d="M -269.125,298.61218 L -273.125,297.86218 L -255.75,281.23718 C -255.75,281.23718 -247.625,279.61218 -246,285.23718 C -244.44193,290.63051 -244.625,291.48718 -244.625,291.48718 L -263.875,308.11218 C -263.875,308.11218 -264.25918,299.58534 -267.25,298.98718 L -269.125,298.61218 z"
           id="path4148"
           sodipodi:nodetypes="cccsccsc" />
        <path
           transform="matrix(0.9860808,-0.1662667,0.1662667,0.9860808,-20.42635,-72.233552)"
           sodipodi:nodetypes="ccsccsc"
           id="path4346"
           d="M -269,304.36218 L -265.25,301.73718 C -265.25,301.73718 -257.14367,304.35899 -252.25,307.61218 C -246.51566,311.42423 -244.5,317.48718 -244.5,317.48718 L -248.01556,320.54809 C -248.01556,320.54809 -248.00336,315.4252 -256.21693,310.21028 C -262.43393,306.26301 -268.75,304.36218 -269,304.36218 z"
           style="fill:#e8cc55;fill-opacity:1;fill-rule:evenodd;stroke:none;stroke-width:1px;stroke-linecap:butt;stroke-linejoin:miter;stroke-opacity:1" />
        <path
           sodipodi:nodetypes="cccsccsc"
           id="path4166"
           d="M -269.125,298.61218 L -273.125,297.86218 L -255.375,281.23718 C -255.375,281.23718 -249.88756,280.68486 -247.5,286.11218 C -245.30453,291.10286 -247.125,294.36218 -247.125,294.36218 L -262.375,308.23718 C -262.375,308.23718 -264.25918,299.58534 -267.25,298.98718 L -269.125,298.61218 z"
           style="fill:url(#linearGradient5416);fill-opacity:1;fill-rule:evenodd;stroke:none;stroke-width:1px;stroke-linecap:butt;stroke-linejoin:miter;stroke-opacity:1"
           transform="translate(17.5,-16.625)" />
        <path
           style="fill:none;fill-rule:evenodd;stroke:#865800;stroke-width:0.2;stroke-linecap:butt;stroke-linejoin:miter;stroke-miterlimit:4;stroke-dasharray:none;stroke-opacity:1;filter:url(#filter4398)"
           d="M -255,280.73718 C -255,280.73718 -249,281.61218 -247.75,284.61218 C -246.5,287.61218 -246.25,292.61218 -246.25,292.61218"
           id="path4170"
           sodipodi:nodetypes="csc" />
        <path
           style="fill:#a0892c;fill-opacity:1;fill-rule:evenodd;stroke:none;stroke-width:1px;stroke-linecap:butt;stroke-linejoin:miter;stroke-opacity:1"
           d="M -272.375,305.73718 L -273.375,297.61218 C -273.375,297.61218 -267.71834,297.38364 -265.875,299.36218 C -260.89442,304.70805 -263.125,308.11218 -263.125,308.11218 L -272.375,305.73718 z"
           id="path4344"
           sodipodi:nodetypes="ccscc" />
        <path
           style="fill:url(#linearGradient5418);fill-opacity:1;fill-rule:evenodd;stroke:none;stroke-width:1px;stroke-linecap:butt;stroke-linejoin:miter;stroke-opacity:1"
           d="M -229.75,278.48718 C -229.75,278.48718 -215,284.11218 -213.75,286.23718 C -212.5,288.36218 -212.5,294.61218 -212.5,294.61218 L -245.75,327.86218 C -245.75,327.86218 -245.125,322.86218 -247.125,318.86218 C -249.125,314.86218 -262.375,306.98718 -262.375,306.98718 L -229.75,278.48718 z"
           id="path4350"
           sodipodi:nodetypes="csccscc" />
        <path
           style="fill:#e8cc55;fill-opacity:1;fill-rule:evenodd;stroke:none;stroke-width:1px;stroke-linecap:butt;stroke-linejoin:miter;stroke-opacity:1"
           d="M -269,304.36218 L -265.25,301.73718 C -265.25,301.73718 -257.125,303.23718 -252.5,306.86218 C -247.875,310.48718 -244.75,317.36218 -244.75,317.36218 L -248.25,320.48718 C -248.25,320.48718 -252.25,311.23718 -260.625,307.73718 C -264.42926,306.14734 -268.75,304.36218 -269,304.36218 z"
           id="path4340"
           sodipodi:nodetypes="ccsccsc"
           transform="translate(-2.25,1.875)" />
      </g>
      <path
         transform="matrix(0.8838395,0,0,0.8838395,-15.718486,59.634032)"
         id="path4683"
         d="M -262.61022,298.33882 L -255.9695,291.84903 C -255.9695,291.84903 -251.89451,296.82956 -251.59266,298.03697 C -251.29081,299.24437 -250.38526,303.16843 -250.38526,303.16843 L -258.98801,310.56378 C -258.98801,310.56378 -260.49726,308.45082 -262.00652,303.77213 C -263.51577,299.09345 -263.063,298.03697 -262.61022,298.33882 z"
         style="fill:url(#linearGradient5420);fill-opacity:1;fill-rule:evenodd;stroke:none;stroke-width:1px;stroke-linecap:butt;stroke-linejoin:miter;stroke-opacity:1" />
      <path
         sodipodi:nodetypes="ccccc"
         transform="translate(-3.1638908,45.966026)"
         id="path4451"
         d="M -207.63519,296.40675 L -229.98928,319.62062 L -211.93405,328.64824 L -189.15006,304.14471 L -207.63519,296.40675 z"
         style="fill:#582101;fill-opacity:1;fill-rule:evenodd;stroke:none;stroke-width:1px;stroke-linecap:butt;stroke-linejoin:miter;stroke-opacity:1" />
      <path
         transform="matrix(0.6195726,0.341154,-0.3309081,0.6387563,17.228145,240.04123)"
         d="M -218.81224,325.31662 A 4.6212802,3.1166773 0 1 1 -228.0548,325.31662 A 4.6212802,3.1166773 0 1 1 -218.81224,325.31662 z"
         sodipodi:ry="3.1166773"
         sodipodi:rx="4.6212802"
         sodipodi:cy="325.31662"
         sodipodi:cx="-223.43352"
         id="path4461"
         style="fill:#782d01;fill-opacity:1;fill-rule:evenodd;stroke:none;stroke-width:0.40000001;stroke-linecap:butt;stroke-linejoin:miter;stroke-miterlimit:4;stroke-dasharray:none;stroke-dashoffset:0;stroke-opacity:1"
         sodipodi:type="arc" />
      <path
         sodipodi:type="arc"
         style="fill:#782d01;fill-opacity:1;fill-rule:evenodd;stroke:none;stroke-width:0.40000001;stroke-linecap:butt;stroke-linejoin:miter;stroke-miterlimit:4;stroke-dasharray:none;stroke-dashoffset:0;stroke-opacity:1"
         id="path4463"
         sodipodi:cx="-223.43352"
         sodipodi:cy="325.31662"
         sodipodi:rx="4.6212802"
         sodipodi:ry="3.1166773"
         d="M -218.81224,325.31662 A 4.6212802,3.1166773 0 1 1 -228.0548,325.31662 A 4.6212802,3.1166773 0 1 1 -218.81224,325.31662 z"
         transform="matrix(0.6195726,0.341154,-0.3309081,0.6387563,27.115534,244.76998)" />
      <path
         sodipodi:nodetypes="ccccc"
         transform="translate(-27.237536,71.544273)"
         style="fill:#250e00;fill-opacity:1;fill-rule:evenodd;stroke:none;stroke-width:1px;stroke-linecap:butt;stroke-linejoin:miter;stroke-opacity:1"
         d="M -205.7007,294.04237 L -205.91564,297.70242 L -187.64546,306.94498 L -187.64546,303.06999 L -205.7007,294.04237 z"
         id="path4453" />
      <path
         sodipodi:nodetypes="ccccc"
         style="fill:#8f3d01;fill-opacity:1;fill-rule:evenodd;stroke:none;stroke-width:1px;stroke-linecap:butt;stroke-linejoin:miter;stroke-opacity:1"
         d="M -207.85013,296.40675 L -230.41917,321.12522 L -230.5274,325.10693 L -207.95685,300.92657 L -207.85013,296.40675 z"
         id="path4455"
         transform="translate(15.321229,53.48904)" />
      <path
         transform="translate(-2.9489475,48.975231)"
         id="path4465"
         d="M -219.67201,309.94817 L -208.06507,311.02289 L -209.56968,317.47119 L -220.10189,316.39647 L -219.67201,309.94817 z"
         style="fill:#fffffe;fill-opacity:1;fill-rule:evenodd;stroke:none;stroke-width:1px;stroke-linecap:butt;stroke-linejoin:miter;stroke-opacity:1" />
      <path
         transform="matrix(0.7808688,0.6246951,-0.6246951,0.7808688,146.11156,251.4557)"
         style="fill:#b3b3b3;fill-opacity:1;fill-rule:evenodd;stroke:none;stroke-width:1px;stroke-linecap:butt;stroke-linejoin:miter;stroke-opacity:1"
         d="M -219.67201,309.94817 L -208.06507,311.02289 L -209.56968,317.47119 L -220.10189,316.39647 L -219.67201,309.94817 z"
         id="path4467" />
      <path
         id="path4471"
         d="M -219.67201,309.94817 L -208.06507,311.02289 L -209.56968,317.47119 L -220.10189,316.39647 L -219.67201,309.94817 z"
         style="fill:#cccccc;fill-opacity:1;fill-rule:evenodd;stroke:none;stroke-width:1px;stroke-linecap:butt;stroke-linejoin:miter;stroke-opacity:1"
         transform="matrix(0.2404149,0.7667306,-0.965182,0.12371,137.20726,487.10198)" />
      <g
         transform="matrix(0.8145133,0,0,0.7796826,-41.890426,114.65263)"
         id="g4600">
        <path
           transform="matrix(0.7817695,0.3704611,-0.4370701,0.6626287,87.347824,177.59501)"
           style="fill:#141414;fill-opacity:1;fill-rule:evenodd;stroke:none;stroke-width:0.40000001;stroke-linecap:butt;stroke-linejoin:miter;stroke-miterlimit:4;stroke-dashoffset:0;stroke-opacity:1"
           d="M -210.17864,299.3705 L -199.39183,299.71303 L -199.68229,302.6401 L -210.64439,302.6401 L -210.17864,299.3705 z"
           id="rect4469"
           sodipodi:nodetypes="ccccc" />
        <path
           style="fill:none;fill-rule:evenodd;stroke:#000000;stroke-width:1.12936544;stroke-linecap:butt;stroke-linejoin:miter;stroke-miterlimit:4;stroke-dasharray:none;stroke-opacity:1"
           d="M -209.49211,300.30364 C -209.49211,300.30364 -202.34185,303.7187 -201.5948,303.93214 C -200.84776,304.14558 -199.4604,302.43805 -199.4604,302.43805"
           id="path4476"
           sodipodi:nodetypes="csc" />
        <g
           id="g4536">
          <g
             id="g4505">
            <g
               id="g4495"
               transform="matrix(0.6129032,0,0,0.6129032,-80.794208,116.1364)">
              <g
                 transform="translate(0,0.2134408)"
                 id="g4480">
                <rect
                   style="opacity:1;fill:#808080;fill-opacity:1;fill-rule:evenodd;stroke:none;stroke-width:0.89999998;stroke-linecap:butt;stroke-linejoin:miter;stroke-miterlimit:4;stroke-dasharray:none;stroke-dashoffset:0;stroke-opacity:1"
                   id="rect4478"
                   width="0.74704266"
                   height="0.85376304"
                   x="-272.13696"
                   y="287.17703"
                   transform="translate(64.245671,11.525801)" />
              </g>
              <g
                 id="g4483"
                 transform="translate(1.2806446,0.9604835)">
                <rect
                   transform="translate(64.245671,11.525801)"
                   y="287.17703"
                   x="-272.13696"
                   height="0.85376304"
                   width="0.74704266"
                   id="rect4485"
                   style="opacity:1;fill:#808080;fill-opacity:1;fill-rule:evenodd;stroke:none;stroke-width:0.89999998;stroke-linecap:butt;stroke-linejoin:miter;stroke-miterlimit:4;stroke-dasharray:none;stroke-dashoffset:0;stroke-opacity:1" />
              </g>
              <g
                 transform="translate(2.6680096,1.8142466)"
                 id="g4487">
                <rect
                   style="opacity:1;fill:#808080;fill-opacity:1;fill-rule:evenodd;stroke:none;stroke-width:0.89999998;stroke-linecap:butt;stroke-linejoin:miter;stroke-miterlimit:4;stroke-dasharray:none;stroke-dashoffset:0;stroke-opacity:1"
                   id="rect4489"
                   width="0.74704266"
                   height="0.85376304"
                   x="-272.13696"
                   y="287.17703"
                   transform="translate(64.245671,11.525801)" />
              </g>
              <g
                 id="g4491"
                 transform="translate(4.162095,2.6680097)">
                <rect
                   transform="translate(64.245671,11.525801)"
                   y="287.17703"
                   x="-272.13696"
                   height="0.85376304"
                   width="0.74704266"
                   id="rect4493"
                   style="opacity:1;fill:#808080;fill-opacity:1;fill-rule:evenodd;stroke:none;stroke-width:0.89999998;stroke-linecap:butt;stroke-linejoin:miter;stroke-miterlimit:4;stroke-dasharray:none;stroke-dashoffset:0;stroke-opacity:1" />
              </g>
            </g>
          </g>
          <g
             transform="translate(0.6403223,-0.8537631)"
             id="g4516">
            <g
               transform="matrix(0.6129032,0,0,0.6129032,-80.794208,116.1364)"
               id="g4518">
              <g
                 id="g4520"
                 transform="translate(0,0.2134408)">
                <rect
                   transform="translate(64.245671,11.525801)"
                   y="287.17703"
                   x="-272.13696"
                   height="0.85376304"
                   width="0.74704266"
                   id="rect4522"
                   style="opacity:1;fill:#808080;fill-opacity:1;fill-rule:evenodd;stroke:none;stroke-width:0.89999998;stroke-linecap:butt;stroke-linejoin:miter;stroke-miterlimit:4;stroke-dasharray:none;stroke-dashoffset:0;stroke-opacity:1" />
              </g>
              <g
                 transform="translate(1.2806446,0.9604835)"
                 id="g4524">
                <rect
                   style="opacity:1;fill:#808080;fill-opacity:1;fill-rule:evenodd;stroke:none;stroke-width:0.89999998;stroke-linecap:butt;stroke-linejoin:miter;stroke-miterlimit:4;stroke-dasharray:none;stroke-dashoffset:0;stroke-opacity:1"
                   id="rect4526"
                   width="0.74704266"
                   height="0.85376304"
                   x="-272.13696"
                   y="287.17703"
                   transform="translate(64.245671,11.525801)" />
              </g>
              <g
                 id="g4528"
                 transform="translate(2.6680096,1.8142466)">
                <rect
                   transform="translate(64.245671,11.525801)"
                   y="287.17703"
                   x="-272.13696"
                   height="0.85376304"
                   width="0.74704266"
                   id="rect4530"
                   style="opacity:1;fill:#808080;fill-opacity:1;fill-rule:evenodd;stroke:none;stroke-width:0.89999998;stroke-linecap:butt;stroke-linejoin:miter;stroke-miterlimit:4;stroke-dasharray:none;stroke-dashoffset:0;stroke-opacity:1" />
              </g>
              <g
                 transform="translate(4.162095,2.6680097)"
                 id="g4532">
                <rect
                   style="opacity:1;fill:#808080;fill-opacity:1;fill-rule:evenodd;stroke:none;stroke-width:0.89999998;stroke-linecap:butt;stroke-linejoin:miter;stroke-miterlimit:4;stroke-dasharray:none;stroke-dashoffset:0;stroke-opacity:1"
                   id="rect4534"
                   width="0.74704266"
                   height="0.85376304"
                   x="-272.13696"
                   y="287.17703"
                   transform="translate(64.245671,11.525801)" />
              </g>
            </g>
          </g>
        </g>
        <g
           id="g4558"
           transform="translate(3.4150523,1.8142465)">
          <g
             id="g4560">
            <g
               transform="matrix(0.6129032,0,0,0.6129032,-80.794208,116.1364)"
               id="g4562">
              <g
                 id="g4564"
                 transform="translate(0,0.2134408)">
                <rect
                   transform="translate(64.245671,11.525801)"
                   y="287.17703"
                   x="-272.13696"
                   height="0.85376304"
                   width="0.74704266"
                   id="rect4566"
                   style="opacity:1;fill:#808080;fill-opacity:1;fill-rule:evenodd;stroke:none;stroke-width:0.89999998;stroke-linecap:butt;stroke-linejoin:miter;stroke-miterlimit:4;stroke-dasharray:none;stroke-dashoffset:0;stroke-opacity:1" />
              </g>
              <g
                 transform="translate(1.2806446,0.9604835)"
                 id="g4568">
                <rect
                   style="opacity:1;fill:#808080;fill-opacity:1;fill-rule:evenodd;stroke:none;stroke-width:0.89999998;stroke-linecap:butt;stroke-linejoin:miter;stroke-miterlimit:4;stroke-dasharray:none;stroke-dashoffset:0;stroke-opacity:1"
                   id="rect4570"
                   width="0.74704266"
                   height="0.85376304"
                   x="-272.13696"
                   y="287.17703"
                   transform="translate(64.245671,11.525801)" />
              </g>
              <g
                 id="g4572"
                 transform="translate(2.6680096,1.8142466)">
                <rect
                   transform="translate(64.245671,11.525801)"
                   y="287.17703"
                   x="-272.13696"
                   height="0.85376304"
                   width="0.74704266"
                   id="rect4574"
                   style="opacity:1;fill:#808080;fill-opacity:1;fill-rule:evenodd;stroke:none;stroke-width:0.89999998;stroke-linecap:butt;stroke-linejoin:miter;stroke-miterlimit:4;stroke-dasharray:none;stroke-dashoffset:0;stroke-opacity:1" />
              </g>
              <g
                 transform="translate(4.162095,2.6680097)"
                 id="g4576">
                <rect
                   style="opacity:1;fill:#808080;fill-opacity:1;fill-rule:evenodd;stroke:none;stroke-width:0.89999998;stroke-linecap:butt;stroke-linejoin:miter;stroke-miterlimit:4;stroke-dasharray:none;stroke-dashoffset:0;stroke-opacity:1"
                   id="rect4578"
                   width="0.74704266"
                   height="0.85376304"
                   x="-272.13696"
                   y="287.17703"
                   transform="translate(64.245671,11.525801)" />
              </g>
            </g>
          </g>
          <g
             id="g4580"
             transform="translate(0.6403223,-0.8537631)">
            <g
               id="g4582"
               transform="matrix(0.6129032,0,0,0.6129032,-80.794208,116.1364)">
              <g
                 transform="translate(0,0.2134408)"
                 id="g4584">
                <rect
                   style="opacity:1;fill:#808080;fill-opacity:1;fill-rule:evenodd;stroke:none;stroke-width:0.89999998;stroke-linecap:butt;stroke-linejoin:miter;stroke-miterlimit:4;stroke-dasharray:none;stroke-dashoffset:0;stroke-opacity:1"
                   id="rect4586"
                   width="0.74704266"
                   height="0.85376304"
                   x="-272.13696"
                   y="287.17703"
                   transform="translate(64.245671,11.525801)" />
              </g>
              <g
                 id="g4588"
                 transform="translate(1.2806446,0.9604835)">
                <rect
                   transform="translate(64.245671,11.525801)"
                   y="287.17703"
                   x="-272.13696"
                   height="0.85376304"
                   width="0.74704266"
                   id="rect4590"
                   style="opacity:1;fill:#808080;fill-opacity:1;fill-rule:evenodd;stroke:none;stroke-width:0.89999998;stroke-linecap:butt;stroke-linejoin:miter;stroke-miterlimit:4;stroke-dasharray:none;stroke-dashoffset:0;stroke-opacity:1" />
              </g>
              <g
                 transform="translate(2.6680096,1.8142466)"
                 id="g4592">
                <rect
                   style="opacity:1;fill:#808080;fill-opacity:1;fill-rule:evenodd;stroke:none;stroke-width:0.89999998;stroke-linecap:butt;stroke-linejoin:miter;stroke-miterlimit:4;stroke-dasharray:none;stroke-dashoffset:0;stroke-opacity:1"
                   id="rect4594"
                   width="0.74704266"
                   height="0.85376304"
                   x="-272.13696"
                   y="287.17703"
                   transform="translate(64.245671,11.525801)" />
              </g>
              <g
                 id="g4596"
                 transform="translate(4.162095,2.6680097)">
                <rect
                   transform="translate(64.245671,11.525801)"
                   y="287.17703"
                   x="-272.13696"
                   height="0.85376304"
                   width="0.74704266"
                   id="rect4598"
                   style="opacity:1;fill:#808080;fill-opacity:1;fill-rule:evenodd;stroke:none;stroke-width:0.89999998;stroke-linecap:butt;stroke-linejoin:miter;stroke-miterlimit:4;stroke-dasharray:none;stroke-dashoffset:0;stroke-opacity:1" />
              </g>
            </g>
          </g>
        </g>
      </g>
      <path
         transform="translate(-2.9489475,48.975231)"
         id="path4647"
         d="M -228.8085,321.541 C -228.8085,321.541 -228.38162,322.39476 -226.67409,323.35525 C -224.96657,324.31573 -223.36576,324.20901 -223.36576,324.20901"
         style="fill:none;fill-rule:evenodd;stroke:#000000;stroke-width:0.1;stroke-linecap:butt;stroke-linejoin:miter;stroke-miterlimit:4;stroke-dasharray:none;stroke-opacity:1" />
      <path
         transform="translate(6.8693282,53.884368)"
         style="fill:none;fill-rule:evenodd;stroke:#000000;stroke-width:0.1;stroke-linecap:butt;stroke-linejoin:miter;stroke-miterlimit:4;stroke-dasharray:none;stroke-opacity:1"
         d="M -228.8085,321.541 C -228.8085,321.541 -228.38162,322.39476 -226.67409,323.35525 C -224.96657,324.31573 -223.36576,324.20901 -223.36576,324.20901"
         id="path4649" />
      <g
         transform="translate(-11.09892,43.541916)"
         id="g4785">
        <path
           style="fill:#dddddd;fill-opacity:1;fill-rule:evenodd;stroke:#000000;stroke-width:0.60000002;stroke-linecap:butt;stroke-linejoin:miter;stroke-miterlimit:4;stroke-dasharray:none;stroke-opacity:1"
           d="M -203.74931,269.36114 L -203.74931,273.58705 L -198.91969,275.70001 L -198.61784,271.17224 L -203.74931,269.36114 z"
           id="path4653"
           sodipodi:nodetypes="ccccc" />
        <path
           sodipodi:type="arc"
           style="opacity:1;fill:#000000;fill-opacity:1;fill-rule:evenodd;stroke:none;stroke-width:0.60000002;stroke-linecap:butt;stroke-linejoin:miter;stroke-miterlimit:4;stroke-dasharray:none;stroke-dashoffset:0;stroke-opacity:1"
           id="path4655"
           sodipodi:cx="-200.88173"
           sodipodi:cy="272.98334"
           sodipodi:rx="1.3583287"
           sodipodi:ry="1.2074033"
           d="M -199.5234,272.98334 A 1.3583287,1.2074033 0 1 1 -202.24006,272.98334 A 1.3583287,1.2074033 0 1 1 -199.5234,272.98334 z"
           transform="translate(-0.3018508,-0.3018508)" />
      </g>
      <path
         sodipodi:nodetypes="ccccc"
         transform="matrix(0.8057907,0,0,0.8220739,-34.905757,82.379828)"
         id="path4661"
         d="M -179.60124,271.27098 L -179.90309,293.71737 L -143.6285,308.49396 L -143.68099,285.35923 L -179.60124,271.27098 z"
         style="fill:url(#linearGradient5422);fill-opacity:1;fill-rule:evenodd;stroke:#000000;stroke-width:3.19452858;stroke-linecap:butt;stroke-linejoin:miter;stroke-miterlimit:4;stroke-dasharray:none;stroke-opacity:1" />
      <path
         sodipodi:nodetypes="ccccc"
         transform="matrix(0.6115092,0,0,0.6160316,-30.310376,163.07412)"
         id="path4659"
         d="M -239.64292,225.17721 L -245.65152,227.93314 L -194.40302,248.36702 L -188.41971,244.43752 L -239.64292,225.17721 z"
         style="fill:#000000;fill-opacity:1;fill-rule:evenodd;stroke:none;stroke-width:1.62928486px;stroke-linecap:butt;stroke-linejoin:miter;stroke-opacity:1" />
      <path
         id="path4673"
         d="M -205.7007,294.04237 L -205.61379,310.98385 L -162.59184,329.28194 L -162.28999,312.72922 L -205.7007,294.04237 z"
         style="fill:#250e00;fill-opacity:1;fill-rule:evenodd;stroke:none;stroke-width:1px;stroke-linecap:butt;stroke-linejoin:miter;stroke-opacity:1"
         transform="translate(14.719729,33.209218)"
         sodipodi:nodetypes="ccccc" />
      <path
         transform="translate(82.332113,24.51136)"
         id="path4675"
         d="M -221.13157,311.49929 L -230.41917,321.12522 L -230.22555,337.78466 L -221.23829,328.69685 L -221.13157,311.49929 z"
         style="fill:#8f3d01;fill-opacity:1;fill-rule:evenodd;stroke:none;stroke-width:1px;stroke-linecap:butt;stroke-linejoin:miter;stroke-opacity:1"
         sodipodi:nodetypes="ccccc" />
      <path
         sodipodi:nodetypes="ccccc"
         transform="matrix(1,0,0,0.3490084,16.832685,233.68384)"
         style="fill:#250e00;fill-opacity:1;fill-rule:evenodd;stroke:#4f3300;stroke-width:1px;stroke-linecap:butt;stroke-linejoin:miter;stroke-opacity:1"
         d="M -204.4933,282.79891 L -204.40639,294.55111 L -168.62885,336.20099 L -168.62886,324.83756 L -204.4933,282.79891 z"
         id="path4677" />
      <path
         id="path4679"
         d="M -204.4933,282.79891 L -204.40639,294.55111 L -168.62885,336.20099 L -168.62886,324.83756 L -204.4933,282.79891 z"
         style="fill:#250e00;fill-opacity:1;fill-rule:evenodd;stroke:#4f3300;stroke-width:1px;stroke-linecap:butt;stroke-linejoin:miter;stroke-opacity:1"
         transform="matrix(1,0,0,0.3490084,16.832685,240.32456)"
         sodipodi:nodetypes="ccccc" />
      <path
         style="fill:#000000;fill-opacity:1;fill-rule:evenodd;stroke:none;stroke-width:1.62928486px;stroke-linecap:butt;stroke-linejoin:miter;stroke-opacity:1"
         d="M -239.1493,221.50227 L -245.65153,225.48319 L -245.49229,260.61683 L -239.26218,253.50239 L -239.1493,221.50227 z"
         id="path4681"
         transform="matrix(0.6115092,0,0,0.6160316,0.7802592,177.2611)"
         sodipodi:nodetypes="ccccc" />
      <path
         sodipodi:nodetypes="ccsccsc"
         style="fill:url(#linearGradient5424);fill-opacity:1;fill-rule:evenodd;stroke:none;stroke-width:1px;stroke-linecap:butt;stroke-linejoin:miter;stroke-opacity:1"
         d="M -264.65395,297.45063 L -254.01769,293.27091 C -254.01769,293.27091 -251.89451,296.82956 -251.59266,298.03697 C -251.29081,299.24437 -248.33572,307.27568 -248.33572,307.27568 L -258.98801,310.56378 C -258.98801,310.56378 -261.9376,306.8684 -263.2353,304.16319 C -264.71464,301.07933 -266.04951,296.6487 -264.65395,297.45063 z"
         id="path4699"
         transform="matrix(0.5466942,-0.6944767,0.6944767,0.5466942,-315.61239,-9.4936187)" />
      <path
         transform="matrix(0.798308,8.1033014e-2,-9.3457813e-2,0.8330416,-28.207437,113.96812)"
         id="path4703"
         d="M -266.57976,296.7409 L -256.10467,291.10057 C -258.73977,289.22537 -253.45898,292.35692 -250.59353,295.27307 C -246.36444,299.577 -246.48785,303.01125 -246.48785,303.01125 L -260.23027,308.33384 C -260.23027,308.33384 -262.32327,305.99674 -263.62097,303.29153 C -265.10031,300.20767 -267.97532,295.93897 -266.57976,296.7409 z"
         style="fill:url(#linearGradient5426);fill-opacity:1;fill-rule:evenodd;stroke:none;stroke-width:1px;stroke-linecap:butt;stroke-linejoin:miter;stroke-opacity:1"
         sodipodi:nodetypes="ccsccsc" />
      <g
         transform="translate(-4.9109779,46.107648)"
         id="g4789">
        <path
           sodipodi:nodetypes="ccccc"
           id="path4791"
           d="M -203.74931,269.36114 L -203.74931,273.58705 L -198.91969,275.70001 L -198.61784,271.17224 L -203.74931,269.36114 z"
           style="fill:#dddddd;fill-opacity:1;fill-rule:evenodd;stroke:#000000;stroke-width:0.60000002;stroke-linecap:butt;stroke-linejoin:miter;stroke-miterlimit:4;stroke-dasharray:none;stroke-opacity:1" />
        <path
           transform="translate(-0.3018508,-0.3018508)"
           d="M -199.5234,272.98334 A 1.3583287,1.2074033 0 1 1 -202.24006,272.98334 A 1.3583287,1.2074033 0 1 1 -199.5234,272.98334 z"
           sodipodi:ry="1.2074033"
           sodipodi:rx="1.3583287"
           sodipodi:cy="272.98334"
           sodipodi:cx="-200.88173"
           id="path4793"
           style="opacity:1;fill:#000000;fill-opacity:1;fill-rule:evenodd;stroke:none;stroke-width:0.60000002;stroke-linecap:butt;stroke-linejoin:miter;stroke-miterlimit:4;stroke-dasharray:none;stroke-dashoffset:0;stroke-opacity:1"
           sodipodi:type="arc" />
      </g>
      <path
         style="fill:none;fill-rule:evenodd;stroke:#000000;stroke-width:0.60000002;stroke-linecap:butt;stroke-linejoin:miter;stroke-miterlimit:4;stroke-dasharray:none;stroke-opacity:1"
         d="M -223.1975,268.75095 C -223.1975,268.75095 -226.36762,280.7289 -220.77972,279.28248 C -219.53966,278.96149 -218.75006,276.84067 -217.54266,277.14252 C -215.12785,277.74622 -211.47904,271.87581 -209.49799,276.69537 C -208.57993,278.92885 -201.7391,274.55856 -201.7391,274.55856"
         id="path4783"
         transform="matrix(0.8581836,0.5133429,-0.5133429,0.8581836,123.00123,203.04413)"
         sodipodi:nodetypes="csssc" />
    </g>
  </g>
</svg>
