<?xml version="1.0" encoding="UTF-8" standalone="no"?>
<!-- Created with Inkscape (http://www.inkscape.org/) -->

<svg
   xmlns:dc="http://purl.org/dc/elements/1.1/"
   xmlns:cc="http://creativecommons.org/ns#"
   xmlns:rdf="http://www.w3.org/1999/02/22-rdf-syntax-ns#"
   xmlns:svg="http://www.w3.org/2000/svg"
   xmlns="http://www.w3.org/2000/svg"
   xmlns:xlink="http://www.w3.org/1999/xlink"
   xmlns:sodipodi="http://sodipodi.sourceforge.net/DTD/sodipodi-0.dtd"
   xmlns:inkscape="http://www.inkscape.org/namespaces/inkscape"
   width="210mm"
   height="297mm"
   id="svg2"
   version="1.1"
   inkscape:version="0.47pre4 r22446"
   sodipodi:docname="ventilo_on.svg">
  <defs
     id="defs4">
    <linearGradient
       inkscape:collect="always"
       id="linearGradient4072">
      <stop
         style="stop-color:#000000;stop-opacity:1;"
         offset="0"
         id="stop4074" />
      <stop
         style="stop-color:#000000;stop-opacity:0;"
         offset="1"
         id="stop4076" />
    </linearGradient>
    <linearGradient
       inkscape:collect="always"
       id="linearGradient3902">
      <stop
         style="stop-color:#ffffff;stop-opacity:1;"
         offset="0"
         id="stop3904" />
      <stop
         style="stop-color:#ffffff;stop-opacity:0;"
         offset="1"
         id="stop3906" />
    </linearGradient>
    <linearGradient
       inkscape:collect="always"
       id="linearGradient3798">
      <stop
         style="stop-color:#ffffff;stop-opacity:1;"
         offset="0"
         id="stop3800" />
      <stop
         style="stop-color:#ffffff;stop-opacity:0;"
         offset="1"
         id="stop3802" />
    </linearGradient>
    <linearGradient
       inkscape:collect="always"
       id="linearGradient3865">
      <stop
         style="stop-color:#ffffff;stop-opacity:1;"
         offset="0"
         id="stop3867" />
      <stop
         style="stop-color:#ffffff;stop-opacity:0"
         offset="1"
         id="stop3869" />
    </linearGradient>
    <linearGradient
       inkscape:collect="always"
       id="linearGradient3843">
      <stop
         style="stop-color:#9bb528;stop-opacity:1;"
         offset="0"
         id="stop3845" />
      <stop
         style="stop-color:#9bb528;stop-opacity:0;"
         offset="1"
         id="stop3847" />
    </linearGradient>
    <linearGradient
       id="linearGradient3813">
      <stop
         id="stop3821"
         offset="0"
         style="stop-color:#b9c248;stop-opacity:0.49803922;" />
      <stop
         style="stop-color:#b9c248;stop-opacity:0;"
         offset="1"
         id="stop3817" />
    </linearGradient>
    <inkscape:perspective
       sodipodi:type="inkscape:persp3d"
       inkscape:vp_x="0 : 526.18109 : 1"
       inkscape:vp_y="0 : 1000 : 0"
       inkscape:vp_z="744.09448 : 526.18109 : 1"
       inkscape:persp3d-origin="372.04724 : 350.78739 : 1"
       id="perspective10" />
    <inkscape:perspective
       id="perspective3701"
       inkscape:persp3d-origin="0.5 : 0.33333333 : 1"
       inkscape:vp_z="1 : 0.5 : 1"
       inkscape:vp_y="0 : 1000 : 0"
       inkscape:vp_x="0 : 0.5 : 1"
       sodipodi:type="inkscape:persp3d" />
    <linearGradient
       inkscape:collect="always"
       xlink:href="#linearGradient3843"
       id="linearGradient3849"
       x1="334.86609"
       y1="260.63184"
       x2="334.86609"
       y2="146.18651"
       gradientUnits="userSpaceOnUse"
       gradientTransform="matrix(1.0001342,0,0,0.50233787,-0.04494178,129.69514)" />
    <linearGradient
       inkscape:collect="always"
       xlink:href="#linearGradient3843"
       id="linearGradient3853"
       gradientUnits="userSpaceOnUse"
       x1="334.86609"
       y1="260.63184"
       x2="334.86609"
       y2="146.18651"
       gradientTransform="matrix(1.0001357,0,0,-0.49783441,-0.04543317,161.50419)" />
    <linearGradient
       inkscape:collect="always"
       xlink:href="#linearGradient3865"
       id="linearGradient3871"
       x1="334.86609"
       y1="145.67133"
       x2="334.86609"
       y2="260.58899"
       gradientUnits="userSpaceOnUse" />
    <linearGradient
       inkscape:collect="always"
       xlink:href="#linearGradient3865"
       id="linearGradient3875"
       gradientUnits="userSpaceOnUse"
       x1="334.86609"
       y1="145.67133"
       x2="334.86609"
       y2="260.58899"
       gradientTransform="matrix(1,0,0,-1,0.25766359,291.53153)" />
    <radialGradient
       inkscape:collect="always"
       xlink:href="#linearGradient3865"
       id="radialGradient3943"
       cx="292.19052"
       cy="125.2886"
       fx="292.19052"
       fy="125.2886"
       r="8.3077345"
       gradientUnits="userSpaceOnUse"
       gradientTransform="matrix(0.992477,1.594308e-7,-1.5943072e-7,0.99247649,2.1981681,0.94256032)" />
    <radialGradient
       inkscape:collect="always"
       xlink:href="#linearGradient3865"
       id="radialGradient4025"
       cx="273.12341"
       cy="162.90749"
       fx="273.12341"
       fy="162.90749"
       r="8.8230619"
       gradientUnits="userSpaceOnUse"
       gradientTransform="matrix(0.30822713,3.3298149e-7,-3.2182784e-7,0.29790264,188.93942,114.37682)" />
    <radialGradient
       inkscape:collect="always"
       xlink:href="#linearGradient3865"
       id="radialGradient4039"
       cx="273.12341"
       cy="162.90749"
       fx="273.12341"
       fy="162.90749"
       r="8.7605619"
       gradientUnits="userSpaceOnUse"
       gradientTransform="matrix(0.97920262,1.316364e-7,-1.330343e-7,0.98960135,5.6802776,1.6939808)" />
    <radialGradient
       inkscape:collect="always"
       xlink:href="#linearGradient3865"
       id="radialGradient4151"
       gradientUnits="userSpaceOnUse"
       gradientTransform="matrix(0.97920262,1.316364e-7,-1.330343e-7,0.98960135,5.6802776,1.6939808)"
       cx="273.12341"
       cy="162.90749"
       fx="273.12341"
       fy="162.90749"
       r="8.7605619" />
    <linearGradient
       inkscape:collect="always"
       xlink:href="#linearGradient3865"
       id="linearGradient4169"
       x1="210.66954"
       y1="264.45245"
       x2="459.11169"
       y2="27.981981"
       gradientUnits="userSpaceOnUse" />
    <linearGradient
       inkscape:collect="always"
       xlink:href="#linearGradient3865"
       id="linearGradient4173"
       gradientUnits="userSpaceOnUse"
       x1="210.66954"
       y1="264.45245"
       x2="459.11169"
       y2="27.981981" />
    <linearGradient
       inkscape:collect="always"
       xlink:href="#linearGradient3865"
       id="linearGradient4177"
       gradientUnits="userSpaceOnUse"
       x1="210.66954"
       y1="264.45245"
       x2="459.11169"
       y2="27.981981" />
    <radialGradient
       inkscape:collect="always"
       xlink:href="#linearGradient3865"
       id="radialGradient4215"
       gradientUnits="userSpaceOnUse"
       gradientTransform="matrix(0.992477,1.594308e-7,-1.5943072e-7,0.99247649,2.1981681,0.94256032)"
       cx="292.19052"
       cy="125.2886"
       fx="292.19052"
       fy="125.2886"
       r="8.3077345" />
    <radialGradient
       inkscape:collect="always"
       xlink:href="#linearGradient3865"
       id="radialGradient4217"
       gradientUnits="userSpaceOnUse"
       gradientTransform="matrix(0.97920262,1.316364e-7,-1.330343e-7,0.98960135,5.6802776,1.6939808)"
       cx="273.12341"
       cy="162.90749"
       fx="273.12341"
       fy="162.90749"
       r="8.7605619" />
    <radialGradient
       inkscape:collect="always"
       xlink:href="#linearGradient3865"
       id="radialGradient4219"
       gradientUnits="userSpaceOnUse"
       gradientTransform="matrix(0.97920262,1.316364e-7,-1.330343e-7,0.98960135,5.6802776,1.6939808)"
       cx="273.12341"
       cy="162.90749"
       fx="273.12341"
       fy="162.90749"
       r="8.7605619" />
    <inkscape:perspective
       id="perspective2954"
       inkscape:persp3d-origin="0.5 : 0.33333333 : 1"
       inkscape:vp_z="1 : 0.5 : 1"
       inkscape:vp_y="0 : 1000 : 0"
       inkscape:vp_x="0 : 0.5 : 1"
       sodipodi:type="inkscape:persp3d" />
    <filter
       inkscape:collect="always"
       id="filter3840">
      <feGaussianBlur
         inkscape:collect="always"
         stdDeviation="1.3533804"
         id="feGaussianBlur3842" />
    </filter>
    <linearGradient
       inkscape:collect="always"
       xlink:href="#linearGradient3865"
       id="linearGradient3845"
       gradientUnits="userSpaceOnUse"
       x1="210.66954"
       y1="264.45245"
       x2="459.11169"
       y2="27.981981"
       gradientTransform="matrix(0.89515074,0,0,0.89515074,7.7525016,29.694342)" />
    <linearGradient
       inkscape:collect="always"
       xlink:href="#linearGradient3843"
       id="linearGradient3855"
       gradientUnits="userSpaceOnUse"
       gradientTransform="matrix(0.89527087,0,0,0.44966812,7.7122719,145.79104)"
       x1="334.86609"
       y1="260.63184"
       x2="334.86609"
       y2="146.18651" />
    <linearGradient
       inkscape:collect="always"
       xlink:href="#linearGradient3865"
       id="linearGradient3861"
       gradientUnits="userSpaceOnUse"
       x1="334.86609"
       y1="145.67133"
       x2="334.86609"
       y2="260.58899"
       gradientTransform="matrix(0.89515074,0,0,0.89515074,7.7525016,29.694342)" />
    <linearGradient
       inkscape:collect="always"
       xlink:href="#linearGradient3865"
       id="linearGradient3864"
       gradientUnits="userSpaceOnUse"
       gradientTransform="matrix(0.89515074,0,0,-0.89515074,7.9831494,290.65901)"
       x1="334.86609"
       y1="145.67133"
       x2="334.86609"
       y2="260.58899" />
    <linearGradient
       inkscape:collect="always"
       xlink:href="#linearGradient3843"
       id="linearGradient3867"
       gradientUnits="userSpaceOnUse"
       gradientTransform="matrix(0.89527221,0,0,-0.44563684,7.7118321,174.26494)"
       x1="334.86609"
       y1="260.63184"
       x2="334.86609"
       y2="146.18651" />
    <radialGradient
       inkscape:collect="always"
       xlink:href="#linearGradient3798"
       id="radialGradient3936"
       gradientUnits="userSpaceOnUse"
       gradientTransform="matrix(1,0,0,0.99237241,0,3.3718726)"
       cx="336.99352"
       cy="442.0625"
       fx="336.99352"
       fy="442.0625"
       r="117.96227" />
    <radialGradient
       inkscape:collect="always"
       xlink:href="#linearGradient3798"
       id="radialGradient3938"
       gradientUnits="userSpaceOnUse"
       cx="341.60754"
       cy="449.42194"
       fx="341.60754"
       fy="449.42194"
       r="16.406538" />
    <linearGradient
       inkscape:collect="always"
       xlink:href="#linearGradient3902"
       id="linearGradient3940"
       gradientUnits="userSpaceOnUse"
       x1="240.71741"
       y1="386.53189"
       x2="464.78827"
       y2="562.10114" />
    <linearGradient
       inkscape:collect="always"
       xlink:href="#linearGradient3902"
       id="linearGradient3964"
       gradientUnits="userSpaceOnUse"
       x1="240.71741"
       y1="386.53189"
       x2="464.78827"
       y2="562.10114"
       gradientTransform="matrix(0.91154338,0,0,0.91154338,93.973732,33.486641)" />
    <radialGradient
       inkscape:collect="always"
       xlink:href="#linearGradient3798"
       id="radialGradient3969"
       gradientUnits="userSpaceOnUse"
       gradientTransform="matrix(0.91154338,0,0,0.9045905,93.973732,36.560241)"
       cx="336.99352"
       cy="442.0625"
       fx="336.99352"
       fy="442.0625"
       r="117.96227" />
    <filter
       inkscape:collect="always"
       id="filter3985">
      <feGaussianBlur
         inkscape:collect="always"
         stdDeviation="0.8203269"
         id="feGaussianBlur3987" />
    </filter>
    <radialGradient
       inkscape:collect="always"
       xlink:href="#linearGradient3798"
       id="radialGradient3989"
       gradientUnits="userSpaceOnUse"
       cx="341.60754"
       cy="449.42194"
       fx="341.60754"
       fy="449.42194"
       r="16.406538" />
    <radialGradient
       inkscape:collect="always"
       xlink:href="#linearGradient3798"
       id="radialGradient4026"
       gradientUnits="userSpaceOnUse"
       gradientTransform="matrix(0.91154338,0,0,0.9045905,26.970434,18.930561)"
       cx="336.99352"
       cy="442.0625"
       fx="336.99352"
       fy="442.0625"
       r="117.96227" />
    <radialGradient
       inkscape:collect="always"
       xlink:href="#linearGradient3798"
       id="radialGradient4028"
       gradientUnits="userSpaceOnUse"
       cx="341.60754"
       cy="449.42194"
       fx="341.60754"
       fy="449.42194"
       r="16.406538" />
    <linearGradient
       inkscape:collect="always"
       xlink:href="#linearGradient3902"
       id="linearGradient4030"
       gradientUnits="userSpaceOnUse"
       gradientTransform="matrix(0.91154338,0,0,0.91154338,26.970434,15.856961)"
       x1="240.71741"
       y1="386.53189"
       x2="464.78827"
       y2="562.10114" />
    <linearGradient
       inkscape:collect="always"
       xlink:href="#linearGradient4072"
       id="linearGradient4078"
       x1="356.74103"
       y1="448.06445"
       x2="412.62849"
       y2="475.14446"
       gradientUnits="userSpaceOnUse" />
    <linearGradient
       inkscape:collect="always"
       xlink:href="#linearGradient4072"
       id="linearGradient4080"
       gradientUnits="userSpaceOnUse"
       x1="356.74103"
       y1="448.06445"
       x2="412.62849"
       y2="475.14446" />
    <linearGradient
       inkscape:collect="always"
       xlink:href="#linearGradient4072"
       id="linearGradient4082"
       gradientUnits="userSpaceOnUse"
       x1="356.74103"
       y1="448.06445"
       x2="412.62849"
       y2="475.14446" />
    <linearGradient
       inkscape:collect="always"
       xlink:href="#linearGradient4072"
       id="linearGradient4084"
       gradientUnits="userSpaceOnUse"
       x1="356.74103"
       y1="448.06445"
       x2="412.62849"
       y2="475.14446" />
    <linearGradient
       inkscape:collect="always"
       xlink:href="#linearGradient4072"
       id="linearGradient4086"
       gradientUnits="userSpaceOnUse"
       x1="356.74103"
       y1="448.06445"
       x2="412.62849"
       y2="475.14446" />
    <linearGradient
       inkscape:collect="always"
       xlink:href="#linearGradient4072"
       id="linearGradient4088"
       gradientUnits="userSpaceOnUse"
       x1="356.74103"
       y1="448.06445"
       x2="412.62849"
       y2="475.14446" />
    <linearGradient
       inkscape:collect="always"
       xlink:href="#linearGradient4072"
       id="linearGradient4091"
       gradientUnits="userSpaceOnUse"
       x1="356.74103"
       y1="448.06445"
       x2="412.62849"
       y2="475.14446"
       gradientTransform="matrix(4.1036361,0,0,4.1036361,-1242.317,-1532.7224)" />
    <linearGradient
       inkscape:collect="always"
       xlink:href="#linearGradient4072"
       id="linearGradient4094"
       gradientUnits="userSpaceOnUse"
       x1="356.74103"
       y1="448.06445"
       x2="412.62849"
       y2="475.14446"
       gradientTransform="matrix(4.1036361,0,0,4.1036361,-1242.317,-1532.7224)" />
    <linearGradient
       inkscape:collect="always"
       xlink:href="#linearGradient4072"
       id="linearGradient4097"
       gradientUnits="userSpaceOnUse"
       x1="356.74103"
       y1="448.06445"
       x2="412.62849"
       y2="475.14446"
       gradientTransform="matrix(4.1036361,0,0,4.1036361,-1242.317,-1532.7224)" />
    <linearGradient
       inkscape:collect="always"
       xlink:href="#linearGradient4072"
       id="linearGradient4100"
       gradientUnits="userSpaceOnUse"
       x1="356.74103"
       y1="448.06445"
       x2="412.62849"
       y2="475.14446"
       gradientTransform="matrix(4.1036361,0,0,4.1036361,-1242.317,-1532.7224)" />
    <linearGradient
       inkscape:collect="always"
       xlink:href="#linearGradient4072"
       id="linearGradient4103"
       gradientUnits="userSpaceOnUse"
       x1="356.74103"
       y1="448.06445"
       x2="412.62849"
       y2="475.14446"
       gradientTransform="matrix(4.1036361,0,0,4.1036361,-1242.317,-1532.7224)" />
    <linearGradient
       inkscape:collect="always"
       xlink:href="#linearGradient3902"
       id="linearGradient4120"
       gradientUnits="userSpaceOnUse"
       gradientTransform="matrix(0.91154338,0,0,0.91154338,26.970434,15.856961)"
       x1="240.71741"
       y1="386.53189"
       x2="464.78827"
       y2="562.10114" />
    <linearGradient
       inkscape:collect="always"
       xlink:href="#linearGradient3902"
       id="linearGradient4124"
       gradientUnits="userSpaceOnUse"
       gradientTransform="matrix(0.91154338,0,0,0.91154338,26.970434,15.856961)"
       x1="240.71741"
       y1="386.53189"
       x2="464.78827"
       y2="562.10114" />
    <linearGradient
       inkscape:collect="always"
       xlink:href="#linearGradient3902"
       id="linearGradient4128"
       gradientUnits="userSpaceOnUse"
       gradientTransform="matrix(0.91154338,0,0,0.91154338,26.970434,15.856961)"
       x1="240.71741"
       y1="386.53189"
       x2="464.78827"
       y2="562.10114" />
    <radialGradient
       inkscape:collect="always"
       xlink:href="#linearGradient3798"
       id="radialGradient4148"
       cx="336.28595"
       cy="417.103"
       fx="336.28595"
       fy="417.103"
       r="112.84845"
       gradientTransform="matrix(1,0,0,0.96851947,0,13.130625)"
       gradientUnits="userSpaceOnUse" />
    <radialGradient
       inkscape:collect="always"
       xlink:href="#linearGradient3798"
       id="radialGradient4152"
       gradientUnits="userSpaceOnUse"
       gradientTransform="matrix(1,0,0,0.96851947,66.505241,30.397351)"
       cx="336.28595"
       cy="417.103"
       fx="336.28595"
       fy="417.103"
       r="112.84845" />
  </defs>
  <sodipodi:namedview
     id="base"
     pagecolor="#ffffff"
     bordercolor="#666666"
     borderopacity="1.0"
     inkscape:pageopacity="0.0"
     inkscape:pageshadow="2"
     inkscape:zoom="1.2067744"
     inkscape:cx="340.86267"
     inkscape:cy="772.09964"
     inkscape:document-units="px"
     inkscape:current-layer="layer1"
     showgrid="false"
     inkscape:window-width="1680"
     inkscape:window-height="976"
     inkscape:window-x="0"
     inkscape:window-y="25"
     inkscape:window-maximized="1"
     showguides="true"
     inkscape:guide-bbox="true"
     inkscape:object-paths="true"
     inkscape:snap-intersection-paths="true"
     inkscape:object-nodes="true"
     inkscape:snap-smooth-nodes="true"
     inkscape:snap-midpoints="true"
     inkscape:snap-object-midpoints="true"
     inkscape:snap-center="true" />
  <metadata
     id="metadata7">
    <rdf:RDF>
      <cc:Work
         rdf:about="">
        <dc:format>image/svg+xml</dc:format>
        <dc:type
           rdf:resource="http://purl.org/dc/dcmitype/StillImage" />
        <dc:title />
      </cc:Work>
    </rdf:RDF>
  </metadata>
  <g
     inkscape:label="Calque 1"
     inkscape:groupmode="layer"
     id="layer1">
    <g
       style="fill:#000000;fill-opacity:1;stroke:#000000;stroke-width:0.88852262;stroke-miterlimit:4;stroke-opacity:1;stroke-dasharray:none;filter:url(#filter3840)"
       transform="matrix(4.1036361,0,0,4.1036361,-1175.3137,-1515.0927)"
       id="g3820"
       inkscape:export-filename="/home/alban/Images/domogik/ventilo_on.png"
       inkscape:export-xdpi="90"
       inkscape:export-ydpi="90">
      <path
         style="fill:#000000;fill-opacity:1;stroke:#000000;stroke-width:0.88852262;stroke-linecap:butt;stroke-linejoin:miter;stroke-miterlimit:4;stroke-opacity:1;stroke-dasharray:none"
         d="m 385.04882,477.00458 c -6.97452,-0.31074 -26.06812,3.00387 -27.86354,-5.69701 0.0691,0.0691 -0.48338,-3.59084 5.59342,-8.07939 7.42337,-3.90159 19.81868,12.70605 22.27012,13.7764 z"
         id="path3822"
         sodipodi:nodetypes="cccc" />
      <path
         sodipodi:nodetypes="cccc"
         id="path3824"
         d="m 385.04882,477.00458 c -2.45077,6.53714 -5.19864,25.7205 -14.02848,24.73933 0.0871,-0.0444 -3.56447,-0.64991 -5.9555,-7.81633 -1.41668,-8.2657 18.20848,-14.9223 19.98398,-16.923 z"
         style="fill:#000000;fill-opacity:1;stroke:#000000;stroke-width:0.88852262;stroke-linecap:butt;stroke-linejoin:miter;stroke-miterlimit:4;stroke-opacity:1;stroke-dasharray:none" />
      <path
         style="fill:#000000;fill-opacity:1;stroke:#000000;stroke-width:0.88852262;stroke-linecap:butt;stroke-linejoin:miter;stroke-miterlimit:4;stroke-opacity:1;stroke-dasharray:none"
         d="m 385.04882,477.00458 c 5.45986,4.35091 22.85518,12.89227 19.19346,20.98675 -0.0153,-0.0966 -1.71958,3.18918 -9.27412,3.24864 -8.29892,-1.2069 -8.56522,-21.92854 -9.91934,-24.23539 z"
         id="path3826"
         sodipodi:nodetypes="cccc" />
      <path
         sodipodi:nodetypes="cccc"
         id="path3828"
         d="m 385.13146,477.0985 c 8.19541,-5.66068 19.32519,-17.75361 25.89069,-11.7688 -0.0966,-0.0153 2.50171,2.62092 0.22378,9.82409 -3.71233,7.51979 -23.50208,1.36972 -26.11447,1.94471 z"
         style="fill:#000000;fill-opacity:1;stroke:#000000;stroke-width:0.88852262;stroke-linecap:butt;stroke-linejoin:miter;stroke-miterlimit:4;stroke-opacity:1;stroke-dasharray:none" />
      <path
         style="fill:#000000;fill-opacity:1;stroke:#000000;stroke-width:0.88852262;stroke-linecap:butt;stroke-linejoin:miter;stroke-miterlimit:4;stroke-opacity:1;stroke-dasharray:none"
         d="m 385.04882,477.00458 c -1.85971,-6.72918 -10.91234,-23.86401 -3.19213,-28.26027 -0.0444,0.0872 3.26572,-1.56936 9.41242,2.82299 6.00457,5.85438 -5.95986,22.77507 -6.22029,25.43728 z"
         id="path3830"
         sodipodi:nodetypes="cccc" />
    </g>
    <g
       id="g2974"
       transform="matrix(4.1036361,0,0,4.1036361,-1175.3137,-1515.0927)"
       style="fill:#b9c248;fill-opacity:1;stroke:#9bb528;stroke-width:0.88852262;stroke-miterlimit:4;stroke-opacity:1;stroke-dasharray:none"
       inkscape:export-filename="/home/alban/Images/domogik/ventilo_on.png"
       inkscape:export-xdpi="90"
       inkscape:export-ydpi="90">
      <path
         sodipodi:nodetypes="cccc"
         id="path2962"
         d="m 385.04882,477.00458 c -6.97452,-0.31074 -26.06812,3.00387 -27.86354,-5.69701 0.0691,0.0691 -0.48338,-3.59084 5.59342,-8.07939 7.42337,-3.90159 19.81868,12.70605 22.27012,13.7764 z"
         style="fill:#b9c248;fill-opacity:1;stroke:#9bb528;stroke-width:0.88852262;stroke-linecap:butt;stroke-linejoin:miter;stroke-miterlimit:4;stroke-opacity:1;stroke-dasharray:none" />
      <path
         style="fill:#b9c248;fill-opacity:1;stroke:#9bb528;stroke-width:0.88852262;stroke-linecap:butt;stroke-linejoin:miter;stroke-miterlimit:4;stroke-opacity:1;stroke-dasharray:none"
         d="m 385.04882,477.00458 c -2.45077,6.53714 -5.19864,25.7205 -14.02848,24.73933 0.0871,-0.0444 -3.56447,-0.64991 -5.9555,-7.81633 -1.41668,-8.2657 18.20848,-14.9223 19.98398,-16.923 z"
         id="path2966"
         sodipodi:nodetypes="cccc" />
      <path
         sodipodi:nodetypes="cccc"
         id="path2968"
         d="m 385.04882,477.00458 c 5.45986,4.35091 22.85518,12.89227 19.19346,20.98675 -0.0153,-0.0966 -1.71958,3.18918 -9.27412,3.24864 -8.29892,-1.2069 -8.56522,-21.92854 -9.91934,-24.23539 z"
         style="fill:#b9c248;fill-opacity:1;stroke:#9bb528;stroke-width:0.88852262;stroke-linecap:butt;stroke-linejoin:miter;stroke-miterlimit:4;stroke-opacity:1;stroke-dasharray:none" />
      <path
         style="fill:#b9c248;fill-opacity:1;stroke:#9bb528;stroke-width:0.88852262;stroke-linecap:butt;stroke-linejoin:miter;stroke-miterlimit:4;stroke-opacity:1;stroke-dasharray:none"
         d="m 385.13146,477.0985 c 8.19541,-5.66068 19.32519,-17.75361 25.89069,-11.7688 -0.0966,-0.0153 2.50171,2.62092 0.22378,9.82409 -3.71233,7.51979 -23.50208,1.36972 -26.11447,1.94471 z"
         id="path2970"
         sodipodi:nodetypes="cccc" />
      <path
         sodipodi:nodetypes="cccc"
         id="path2972"
         d="m 385.04882,477.00458 c -1.85971,-6.72918 -10.91234,-23.86401 -3.19213,-28.26027 -0.0444,0.0872 3.26572,-1.56936 9.41242,2.82299 6.00457,5.85438 -5.95986,22.77507 -6.22029,25.43728 z"
         style="fill:#b9c248;fill-opacity:1;stroke:#9bb528;stroke-width:0.88852262;stroke-linecap:butt;stroke-linejoin:miter;stroke-miterlimit:4;stroke-opacity:1;stroke-dasharray:none" />
    </g>
    <path
       style="opacity:0.5;fill:url(#radialGradient4152);fill-opacity:1;stroke:none"
       d="m 398.66149,325.07923 c -5.01199,-0.0951 -7.54846,1.09406 -7.46875,0.9375 -31.68093,18.04065 5.46217,88.35465 13.09375,115.96875 1.06871,-10.92474 50.17182,-80.35075 25.53125,-104.375 -14.1884,-10.13884 -24.71226,-12.40897 -31.15625,-12.53125 z m 5.625,116.90625 c 5.55681,9.46648 6.663,94.51607 40.71875,99.46875 31.00108,-0.24401 37.96845,-13.74016 38.03125,-13.34375 14.92342,-32.98923 -55.33802,-67.78464 -78.25,-85.75 11.28344,-2.11104 91.83243,22.75507 107,-7.96875 9.3478,-29.55919 -1.30266,-40.3753 -0.90625,-40.3125 -26.91811,-24.53733 -72.53393,24.99409 -106.15625,48.25 -0.14028,-0.11018 -0.30083,-0.23484 -0.4375,-0.34375 z m 0,0 c -7.28601,8.21015 -87.81354,35.54932 -82,69.46875 9.81191,29.40838 24.79493,31.8803 24.4375,32.0625 36.23445,4.02637 47.50543,-74.7052 57.5625,-101.53125 z m 0,0 c -10.05982,-4.39232 -60.91219,-72.54195 -91.375,-56.53125 -24.93698,18.41938 -22.68519,33.43981 -22.96875,33.15625 7.36775,35.70524 85.72286,22.09984 114.34375,23.375 z"
       id="path4150"
       inkscape:export-filename="/home/alban/Images/domogik/ventilo_on.png"
       inkscape:export-xdpi="90"
       inkscape:export-ydpi="90" />
    <path
       transform="matrix(0.91154338,0,0,0.91154338,93.973732,33.486641)"
       d="m 358.01408,449.42194 a 16.406538,16.406538 0 1 1 -32.81307,0 16.406538,16.406538 0 1 1 32.81307,0 z"
       sodipodi:ry="16.406538"
       sodipodi:rx="16.406538"
       sodipodi:cy="449.42194"
       sodipodi:cx="341.60754"
       id="path3983"
       style="fill:#000000;fill-opacity:1;stroke:#000000;stroke-width:4;stroke-miterlimit:4;stroke-opacity:1;stroke-dasharray:none;filter:url(#filter3985)"
       sodipodi:type="arc"
       inkscape:export-filename="/home/alban/Images/domogik/ventilo_on.png"
       inkscape:export-xdpi="90"
       inkscape:export-ydpi="90" />
    <path
       style="fill:url(#radialGradient3969);fill-opacity:1;stroke:none"
       d="m 387.14887,329.73823 c -21.29283,20.29796 5.17443,76.06407 15.29684,105.34023 1.11021,1.6374 2.13951,3.18853 3.04797,4.64318 0.40517,-1.10431 0.96093,-2.41767 1.65217,-3.90255 3.52086,-21.67225 23.94491,-86.56349 -2.7916,-101.55163 -6.6434,-2.49035 -12.3375,-3.85707 -17.20538,-4.52923 z m 107.30575,58.05392 c -25.63124,-0.23136 -59.12982,33.17135 -85.94145,52.55617 -0.43529,0.52446 -0.87761,1.05704 -1.31035,1.56672 -0.15649,-0.067 -0.33125,-0.13271 -0.48425,-0.1994 0.22926,0.22598 0.45675,0.53359 0.71214,0.88306 0.4884,0.008 1.01349,0.0151 1.5952,0.057 -0.5986,-0.24116 -1.20972,-0.47459 -1.76611,-0.71215 10.23917,-4.977 94.61938,-1.74901 101.32374,-35.37927 0.25066,-5.63063 0.0249,-10.48408 -0.51274,-14.67015 -4.18719,-2.77451 -8.76592,-4.05817 -13.61618,-4.10195 z m -87.73605,53.92349 c -0.13412,0.26797 -0.34057,0.5604 -0.56972,0.88306 0.15094,-0.01 0.31871,0.005 0.48426,0 0.0249,-0.28895 0.0583,-0.60367 0.0854,-0.88306 z m 0,0 c -0.036,-0.005 -0.0768,-0.022 -0.11395,-0.0284 -0.0324,0.0229 -0.0531,0.0627 -0.0854,0.0854 0.0643,-0.0144 0.13562,-0.0429 0.1994,-0.057 z m 0,0 c -0.005,-0.0252 0.004,-0.0596 0,-0.0854 -0.0108,0.007 -0.0177,0.0209 -0.0284,0.0284 0.0102,0.0173 0.0183,0.0397 0.0284,0.057 z M 320.008,404.79813 c -6.30255,0.16667 -11.86322,1.94032 -16.20838,5.95352 -4.79131,6.01292 -8.01695,11.38048 -10.1694,16.06595 16.57345,25.50091 83.64172,14.58295 110.41069,15.52472 0.16729,-0.0424 0.31944,-0.073 0.48426,-0.11394 -1.04637,-0.52784 -2.48523,-1.66222 -4.24438,-3.24737 -0.0201,-0.0107 -0.0368,-0.0178 -0.057,-0.0284 -16.39268,-8.72758 -54.43266,-34.83623 -80.21582,-34.15439 z m 84.34625,36.14839 c 0.12417,0.41976 0.25814,0.85116 0.37032,1.25338 0.0295,-0.007 0.056,-0.0212 0.0854,-0.0284 0.0402,-0.2882 0.1026,-0.61033 0.1994,-0.96852 -0.21009,-0.0782 -0.42602,-0.16159 -0.65513,-0.25642 z m 1.42429,2.16492 c -0.13428,0.17154 -0.27175,0.35704 -0.42729,0.54123 0.3393,0.93211 0.67383,2.14985 0.997,3.61769 0.0563,-1.25654 0.11603,-2.42795 0.1994,-3.56072 -0.26067,-0.19715 -0.51878,-0.40481 -0.76911,-0.5982 z m -2.07946,2.33583 c -14.47528,14.85119 -71.26197,56.26266 -58.22483,84.57413 3.65685,5.5352 7.22396,9.8172 10.5682,13.13193 28.17881,-8.13381 38.72471,-71.04921 47.65663,-97.70606 z m 5.64017,0.31334 c 9.65691,18.38057 31.49715,85.11822 62.44073,81.46919 5.33982,-1.47594 9.81413,-3.15768 13.58769,-4.92803 4.27039,-29.31461 -51.63594,-59.11366 -76.02842,-76.54116 z"
       id="path2995"
       inkscape:export-filename="/home/alban/Images/domogik/ventilo_on.png"
       inkscape:export-xdpi="90"
       inkscape:export-ydpi="90" />
    <path
       sodipodi:type="arc"
       style="fill:#b9c248;fill-opacity:1;stroke:#9bb528;stroke-width:4;stroke-miterlimit:4;stroke-opacity:1;stroke-dasharray:none"
       id="path3806"
       sodipodi:cx="341.60754"
       sodipodi:cy="449.42194"
       sodipodi:rx="16.406538"
       sodipodi:ry="16.406538"
       d="m 358.01408,449.42194 a 16.406538,16.406538 0 1 1 -32.81307,0 16.406538,16.406538 0 1 1 32.81307,0 z"
       transform="matrix(0.91154338,0,0,0.91154338,93.973732,33.486641)"
       inkscape:export-filename="/home/alban/Images/domogik/ventilo_on.png"
       inkscape:export-xdpi="90"
       inkscape:export-ydpi="90" />
    <path
       sodipodi:type="arc"
       style="fill:url(#radialGradient3989);fill-opacity:1;stroke:none"
       id="path3887"
       sodipodi:cx="341.60754"
       sodipodi:cy="449.42194"
       sodipodi:rx="16.406538"
       sodipodi:ry="16.406538"
       d="m 358.01408,449.42194 a 16.406538,16.406538 0 1 1 -32.81307,0 16.406538,16.406538 0 1 1 32.81307,0 z"
       transform="matrix(0.91154338,0,0,0.91154338,93.973732,33.486641)"
       inkscape:export-filename="/home/alban/Images/domogik/ventilo_on.png"
       inkscape:export-xdpi="90"
       inkscape:export-ydpi="90" />
    <path
       style="opacity:0.5;fill:url(#linearGradient3964);fill-opacity:1;stroke:none"
       d="m 414.46669,431.68866 c -2.39253,1.34004 -4.84154,2.62964 -7.20689,3.988 -5.71102,3.27971 -11.31849,6.60907 -16.89204,9.94152 0.26424,1.5147 0.69211,2.97335 1.36731,4.30135 -24.4444,12.37223 -73.88014,35.0439 -69.27729,61.89949 9.81191,29.40838 24.79818,31.89274 24.44075,32.07493 30.91936,3.43576 43.66015,-53.2998 52.98346,-86.71056 1.61042,0.59294 3.33971,0.94003 5.15592,0.94003 0.96307,0 1.90768,-0.11093 2.82009,-0.28486 4.21451,27.37865 10.68243,80.10261 37.3163,83.97594 31.00108,-0.24402 37.99413,-13.72774 38.05694,-13.33133 12.77793,-28.2465 -36.83981,-57.77421 -65.77355,-76.96844 1.43512,-2.12426 2.32526,-4.63875 2.50674,-7.34932 27.16845,4.4018 80.00708,14.91092 92.00891,-9.40029 9.3478,-29.55919 -1.30795,-40.37011 -0.91154,-40.30731 -0.79577,-0.72539 -1.65059,-1.22451 -2.47826,-1.82309 -0.8094,0.19503 -1.64457,0.33946 -2.44977,0.54123 -4.05881,1.01708 -8.06517,2.12516 -12.02098,3.30435 -3.95582,1.17919 -7.84885,2.4342 -11.70764,3.76011 -3.85879,1.32592 -7.68353,2.73017 -11.45126,4.18741 -7.53547,2.91448 -14.89792,6.08136 -22.10493,9.42877 -6.21012,2.8844 -12.26013,5.96624 -18.25935,9.08695 -4.63688,3.70884 -9.38022,7.4935 -13.81558,10.93852 -0.66267,-0.83498 -1.48294,-1.51901 -2.30734,-2.1934 z"
       id="path3898"
       inkscape:export-filename="/home/alban/Images/domogik/ventilo_on.png"
       inkscape:export-xdpi="90"
       inkscape:export-ydpi="90" />
  </g>
</svg>
