<?xml version="1.0" encoding="UTF-8" standalone="no"?>
<!-- Created with Inkscape (http://www.inkscape.org/) -->
<svg
   xmlns:dc="http://purl.org/dc/elements/1.1/"
   xmlns:cc="http://creativecommons.org/ns#"
   xmlns:rdf="http://www.w3.org/1999/02/22-rdf-syntax-ns#"
   xmlns:svg="http://www.w3.org/2000/svg"
   xmlns="http://www.w3.org/2000/svg"
   xmlns:xlink="http://www.w3.org/1999/xlink"
   xmlns:sodipodi="http://sodipodi.sourceforge.net/DTD/sodipodi-0.dtd"
   xmlns:inkscape="http://www.inkscape.org/namespaces/inkscape"
   width="64"
   height="64"
   id="svg4125"
   sodipodi:version="0.32"
   inkscape:version="0.46"
   version="1.0"
   sodipodi:docname="bureau.svg"
   inkscape:output_extension="org.inkscape.output.svg.inkscape">
  <defs
     id="defs4127">
    <linearGradient
       id="linearGradient4183">
      <stop
         style="stop-color:#2b1100;stop-opacity:1;"
         offset="0"
         id="stop4185" />
      <stop
         style="stop-color:#cc641c;stop-opacity:1"
         offset="1"
         id="stop4187" />
    </linearGradient>
    <linearGradient
       id="linearGradient5067">
      <stop
         style="stop-color:#1a1a1a;stop-opacity:1;"
         offset="0"
         id="stop5069" />
      <stop
         style="stop-color:#636363;stop-opacity:1;"
         offset="1"
         id="stop5071" />
    </linearGradient>
    <linearGradient
       id="linearGradient4191">
      <stop
         style="stop-color:#8f4d13;stop-opacity:1;"
         offset="0"
         id="stop4193" />
      <stop
         style="stop-color:#edac74;stop-opacity:1;"
         offset="1"
         id="stop4195" />
    </linearGradient>
    <linearGradient
       id="linearGradient4173">
      <stop
         style="stop-color:#0b3b06;stop-opacity:1;"
         offset="0"
         id="stop4175" />
      <stop
         style="stop-color:#a6ad00;stop-opacity:1;"
         offset="1"
         id="stop4177" />
    </linearGradient>
    <inkscape:perspective
       sodipodi:type="inkscape:persp3d"
       inkscape:vp_x="0 : 526.18109 : 1"
       inkscape:vp_y="0 : 1000 : 0"
       inkscape:vp_z="744.09448 : 526.18109 : 1"
       inkscape:persp3d-origin="372.04724 : 350.78739 : 1"
       id="perspective4133" />
    <linearGradient
       inkscape:collect="always"
       xlink:href="#linearGradient4183"
       id="linearGradient4706"
       gradientUnits="userSpaceOnUse"
       x1="-305.38382"
       y1="449.27444"
       x2="-288.16895"
       y2="454.13806" />
    <linearGradient
       inkscape:collect="always"
       xlink:href="#linearGradient5067"
       id="linearGradient4708"
       gradientUnits="userSpaceOnUse"
       x1="-334.46927"
       y1="478.91208"
       x2="-327.58975"
       y2="478.91208" />
    <linearGradient
       inkscape:collect="always"
       xlink:href="#linearGradient4191"
       id="linearGradient4710"
       gradientUnits="userSpaceOnUse"
       x1="-268.13303"
       y1="492.82089"
       x2="-261.72305"
       y2="492.82089" />
    <linearGradient
       inkscape:collect="always"
       xlink:href="#linearGradient4173"
       id="linearGradient4712"
       gradientUnits="userSpaceOnUse"
       spreadMethod="pad"
       x1="-269.32242"
       y1="474.77466"
       x2="-262.93896"
       y2="474.77463" />
  </defs>
  <sodipodi:namedview
     id="base"
     pagecolor="#ffffff"
     bordercolor="#666666"
     borderopacity="1.0"
     inkscape:pageopacity="0.0"
     inkscape:pageshadow="2"
     inkscape:zoom="5.6"
     inkscape:cx="60.465832"
     inkscape:cy="14.228065"
     inkscape:document-units="px"
     inkscape:current-layer="layer1"
     showgrid="false"
     inkscape:window-width="1440"
     inkscape:window-height="826"
     inkscape:window-x="0"
     inkscape:window-y="24" />
  <metadata
     id="metadata4130">
    <rdf:RDF>
      <cc:Work
         rdf:about="">
        <dc:format>image/svg+xml</dc:format>
        <dc:type
           rdf:resource="http://purl.org/dc/dcmitype/StillImage" />
      </cc:Work>
    </rdf:RDF>
  </metadata>
  <g
     inkscape:label="Calque 1"
     inkscape:groupmode="layer"
     id="layer1">
    <g
       id="g4622"
       transform="matrix(1.0270169,0,0,1.0143016,-2.0563826,-1.0955114)">
      <path
         style="fill:#87de87;fill-opacity:1;fill-rule:evenodd;stroke:none;stroke-width:1px;stroke-linecap:butt;stroke-linejoin:miter;stroke-opacity:1"
         d="M -634.77281,432.9571 L -572.87499,376.18186 L -473.83848,418.01625 L -538.29759,485.89041 L -634.77281,432.9571 z"
         id="path4218"
         transform="matrix(0.3640755,0,0,0.3640755,235.10086,-112.78627)" />
      <path
         sodipodi:nodetypes="ccccc"
         id="path4222"
         d="M -67.665998,115.37409 L -67.922069,177.11324 L 31.573697,218.54386 L 32.14993,159.30479 L -67.665998,115.37409 z"
         style="fill:#2ca02c;fill-opacity:1;fill-rule:evenodd;stroke:none;stroke-width:1px;stroke-linecap:butt;stroke-linejoin:miter;stroke-opacity:1"
         transform="matrix(0.3640755,0,0,0.3640755,51.190455,-40.320949)" />
      <path
         transform="matrix(0.4196495,0,0,0.3949115,10.8944,-62.850942)"
         style="fill:#5fd35f;fill-opacity:1;fill-rule:evenodd;stroke:none;stroke-width:1px;stroke-linecap:butt;stroke-linejoin:miter;stroke-opacity:1"
         d="M -17.837591,219.9749 L -16.845032,272.49663 L 36.540353,220.53178 L 36.712725,163.92579 L -17.837591,219.9749 z"
         id="path4224"
         sodipodi:nodetypes="ccccc" />
      <path
         style="fill:#2b1100;fill-rule:evenodd;stroke:none;stroke-width:1px;stroke-linecap:butt;stroke-linejoin:miter;stroke-opacity:1"
         d="M -337.41299,480.88792 L -338.02094,466.29709 L -316.13469,476.63227 L -316.1347,490.61515 L -337.41299,480.88792 z"
         id="path5178"
         sodipodi:nodetypes="ccccc"
         transform="matrix(0.3640755,0,0,0.3640755,140.34311,-142.1198)" />
      <path
         transform="matrix(0.3640755,0,0,0.3640755,142.58067,-146.65132)"
         style="fill:url(#linearGradient4706);fill-opacity:1;fill-rule:evenodd;stroke:none;stroke-width:1px;stroke-linecap:butt;stroke-linejoin:miter;stroke-opacity:1"
         d="M -280.87352,431.03591 L -283.30533,483.92767 L -288.77689,491.22309 L -319.17446,477.84816 L -319.3667,421.00636 L -313.70289,417.05302 L -280.87352,431.03591 z"
         id="path5083"
         sodipodi:nodetypes="ccccccc" />
      <path
         style="fill:#552200;fill-rule:evenodd;stroke:none;stroke-width:1px;stroke-linecap:butt;stroke-linejoin:miter;stroke-opacity:1"
         d="M -366.89863,494.8708 L -338.02094,466.29709 L -315.52674,476.63227 L -344.70841,505.81393 L -366.89863,494.8708 z"
         id="path4400"
         sodipodi:nodetypes="ccccc"
         transform="matrix(0.3640755,0,0,0.3640755,142.0463,-146.57536)" />
      <path
         transform="matrix(0.1396334,-0.1182567,0.1182567,0.1396334,1.3452423,-81.57182)"
         d="M -321.12521,511.13507 A 6.6632409,4.7287517 0 1 1 -334.45169,511.13507 A 6.6632409,4.7287517 0 1 1 -321.12521,511.13507 z"
         sodipodi:ry="4.7287517"
         sodipodi:rx="6.6632409"
         sodipodi:cy="511.13507"
         sodipodi:cx="-327.78845"
         id="path5040"
         style="fill:#333333;fill-opacity:1;fill-rule:evenodd;stroke:none;stroke-width:0.30000001;stroke-linecap:butt;stroke-linejoin:miter;stroke-miterlimit:4;stroke-dasharray:none;stroke-dashoffset:0;stroke-opacity:1"
         sodipodi:type="arc" />
      <rect
         transform="matrix(0.1820378,0,0,0.3640755,75.046102,-156.74629)"
         y="501.67755"
         x="-326.28387"
         height="7.3080707"
         width="3.4390922"
         id="rect5043"
         style="fill:#241c1c;fill-opacity:1;fill-rule:evenodd;stroke:none;stroke-width:0.30000001;stroke-linecap:butt;stroke-linejoin:miter;stroke-miterlimit:4;stroke-dasharray:none;stroke-dashoffset:0;stroke-opacity:1" />
      <path
         transform="matrix(0.3640755,0,0,0.3769475,131.73499,-141.23549)"
         sodipodi:nodetypes="ccccc"
         id="path5172"
         d="M -337.84288,480.88792 L -338.45083,463.68424 L -316.13469,473.72582 L -316.1347,491.03036 L -337.84288,480.88792 z"
         style="fill:#2b1100;fill-rule:evenodd;stroke:none;stroke-width:1px;stroke-linecap:butt;stroke-linejoin:miter;stroke-opacity:1" />
      <path
         sodipodi:type="arc"
         style="fill:#483737;fill-opacity:1;fill-rule:evenodd;stroke:none;stroke-width:0.30000001;stroke-linecap:butt;stroke-linejoin:miter;stroke-miterlimit:4;stroke-dasharray:none;stroke-dashoffset:0;stroke-opacity:1"
         id="path5186"
         sodipodi:cx="-327.78845"
         sodipodi:cy="511.13507"
         sodipodi:rx="6.6632409"
         sodipodi:ry="4.7287517"
         d="M -321.12521,511.13507 A 6.6632409,4.7287517 0 1 1 -334.45169,511.13507 A 6.6632409,4.7287517 0 1 1 -321.12521,511.13507 z"
         transform="matrix(0.3640755,0,0,0.3640755,141.32858,-146.18178)" />
      <rect
         style="fill:#241c1c;fill-opacity:1;fill-rule:evenodd;stroke:none;stroke-width:0.30000001;stroke-linecap:butt;stroke-linejoin:miter;stroke-miterlimit:4;stroke-dasharray:none;stroke-dashoffset:0;stroke-opacity:1"
         id="rect5184"
         width="3.4390922"
         height="7.3080707"
         x="-326.28387"
         y="501.67755"
         transform="matrix(0.3640755,0,0,0.6518028,140.233,-292.00482)" />
      <path
         style="fill:#8d3800;fill-opacity:1;fill-rule:evenodd;stroke:none;stroke-width:1px;stroke-linecap:butt;stroke-linejoin:miter;stroke-opacity:1"
         d="M -344.75652,522.43802 L -344.6904,504.6346 L -314.59834,475.88436 L -314.16846,496.89664 L -320.69534,503.3971 L -320.69534,487.06141 L -340.90001,507.26608 L -340.90001,518.87301 L -344.75652,522.43802 z"
         id="path4242"
         transform="matrix(0.3538199,0,0,0.3640755,138.50165,-146.33829)"
         sodipodi:nodetypes="ccccccccc" />
      <path
         transform="matrix(0.3640755,0,0,0.3640755,142.58067,-146.65132)"
         style="fill:none;fill-rule:evenodd;stroke:#000000;stroke-width:0.60000002;stroke-linecap:butt;stroke-linejoin:miter;stroke-miterlimit:4;stroke-dasharray:none;stroke-opacity:1"
         d="M -340.45275,483.31972 C -340.45275,483.31972 -336.23857,478.06919 -339.54083,477.84816 C -344.28818,477.5304 -345.31636,478.45611 -346.22829,476.63226 C -347.14022,474.8084 -346.53227,475.41636 -346.53227,475.41636"
         id="path5049"
         sodipodi:nodetypes="cssc" />
      <path
         sodipodi:nodetypes="cssc"
         id="path5065"
         d="M -331.18545,475.82721 C -331.18545,475.82721 -336.89126,475.95465 -340.14865,477.86098 C -344.25509,480.26421 -343.22106,476.8917 -346.22829,476.63226 C -348.25988,476.45699 -346.53227,475.41636 -346.53227,475.41636"
         style="fill:none;fill-rule:evenodd;stroke:#000000;stroke-width:0.60000002;stroke-linecap:butt;stroke-linejoin:miter;stroke-miterlimit:4;stroke-dasharray:none;stroke-opacity:1"
         transform="matrix(-0.3639945,-7.6778167e-3,7.6778167e-3,-0.3639945,-108.69566,197.48369)" />
      <path
         style="fill:#6b6bff;fill-opacity:1;fill-rule:evenodd;stroke:#000000;stroke-width:0.92854643;stroke-linecap:butt;stroke-linejoin:miter;stroke-miterlimit:4;stroke-dasharray:none;stroke-opacity:1"
         d="M -359.38513,475.02459 L -347.34831,464.27742 L -347.13337,476.52919 L -359.17019,487.70624 L -359.38513,475.02459 z"
         id="path5020"
         sodipodi:nodetypes="ccccc"
         transform="matrix(0.2733237,0,0,0.2756097,112.51629,-105.76477)" />
      <path
         style="fill:#333333;fill-rule:evenodd;stroke:none;stroke-width:1px;stroke-linecap:butt;stroke-linejoin:miter;stroke-opacity:1"
         d="M -351.21729,486.20164 L -354.22649,484.48209 L -354.65638,471.15561 L -342.18967,459.54867 L -338.53564,460.1935 L -351.21729,471.37056 L -351.21729,486.20164 z"
         id="path5036"
         sodipodi:nodetypes="ccccccc"
         transform="matrix(0.2733237,0,0,0.2756097,110.28383,-104.9354)" />
      <path
         transform="matrix(0.3640755,0,0,0.3640755,142.58067,-146.65132)"
         style="fill:#1a1a1a;fill-rule:evenodd;stroke:none;stroke-width:1px;stroke-linecap:butt;stroke-linejoin:miter;stroke-opacity:1"
         d="M -337.10902,479.97599 L -345.92432,488.18333 L -341.0607,490.91911 L -332.24541,482.4078 L -337.10902,479.97599 z"
         id="path5047" />
      <path
         transform="matrix(0.3640755,0,0,0.3640755,142.58067,-146.65132)"
         style="fill:none;fill-rule:evenodd;stroke:#000000;stroke-width:1px;stroke-linecap:butt;stroke-linejoin:miter;stroke-opacity:1"
         d="M -345.31636,488.48731 L -341.0607,490.91911 L -332.24541,483.01575"
         id="path5051" />
      <path
         sodipodi:type="arc"
         style="fill:url(#linearGradient4708);fill-opacity:1;fill-rule:evenodd;stroke:none;stroke-width:0.80000001;stroke-linecap:round;stroke-linejoin:round;stroke-miterlimit:4;stroke-dasharray:none;stroke-dashoffset:0;stroke-opacity:1"
         id="path5063"
         sodipodi:cx="-331.02951"
         sodipodi:cy="478.91208"
         sodipodi:rx="3.0397568"
         sodipodi:ry="1.6718662"
         d="M -327.98975,478.91208 A 3.0397568,1.6718662 0 1 1 -334.06927,478.91208 A 3.0397568,1.6718662 0 1 1 -327.98975,478.91208 z"
         transform="matrix(0.3464035,0.1120516,-0.1120516,0.3464035,190.3936,-101.42761)" />
      <path
         style="fill:#241c1c;fill-rule:evenodd;stroke:none;stroke-width:1px;stroke-linecap:butt;stroke-linejoin:miter;stroke-opacity:1"
         d="M -332.30227,492.22005 C -332.30227,492.22005 -326.28386,493.9396 -323.27466,491.79017 C -320.26545,489.64074 -319.40568,484.05222 -319.40568,484.05222 L -318.97579,500.3879 C -318.97579,500.3879 -317.25625,503.39711 -323.70454,505.54654 C -330.15284,507.69597 -331.87239,503.3971 -331.87239,503.3971 L -332.30227,492.22005 z"
         id="path5182"
         transform="matrix(0.3640755,0,0,0.3501176,140.51917,-141.37627)"
         sodipodi:nodetypes="csccscc" />
      <path
         style="fill:none;fill-rule:evenodd;stroke:#db4000;stroke-width:1px;stroke-linecap:butt;stroke-linejoin:miter;stroke-opacity:1"
         d="M -328.59771,532.56378 L -332.54939,535.90751 L -328.59771,534.99558 L -328.90168,538.03534 L -325.55795,536.81944 L -325.86193,540.16317 L -322.1749,538.05664 L -321.56695,542.3123 L -318.56651,540.46714 L -317.95856,545.02678 L -315.22278,542.59497 L -315.22278,547.15461 L -311.27109,545.33075 L -311.57507,548.37051 L -308.23134,547.15461 L -308.53531,549.89039 L -304.58363,548.37051 L -303.97568,551.41027 L -301.2399,549.28244"
         id="path4074"
         transform="matrix(0.3632878,-2.3936246e-2,2.3936246e-2,0.3632878,130.24327,-154.69502)"
         sodipodi:nodetypes="ccccccccccccccccccc" />
      <path
         sodipodi:nodetypes="ccccccccccccccccccc"
         transform="matrix(-0.3632878,2.3936246e-2,-2.3936246e-2,-0.3632878,-64.290292,243.50593)"
         id="path4076"
         d="M -328.59771,532.56378 L -332.54939,535.90751 L -328.59771,534.99558 L -328.90168,538.03534 L -325.55795,536.81944 L -325.86193,540.16317 L -322.1749,538.05664 L -321.56695,542.3123 L -318.56651,540.46714 L -317.95856,545.02678 L -315.22278,542.59497 L -315.22278,547.15461 L -311.27109,545.33075 L -311.57507,548.37051 L -308.23134,547.15461 L -308.53531,549.89039 L -304.58363,548.37051 L -303.97568,551.41027 L -301.2399,549.28244"
         style="fill:none;fill-rule:evenodd;stroke:#db4000;stroke-width:1px;stroke-linecap:butt;stroke-linejoin:miter;stroke-opacity:1" />
      <path
         style="fill:#c02c00;fill-opacity:1;fill-rule:evenodd;stroke:#ff9e09;stroke-width:1px;stroke-linecap:butt;stroke-linejoin:miter;stroke-opacity:1"
         d="M -329.81361,531.65186 L -303.36772,503.07814 L -272.36221,517.36499 L -297.89616,547.15462 L -329.81361,531.65186 z"
         id="path5075"
         sodipodi:nodetypes="ccccc"
         transform="matrix(0.3640755,0,0,0.3640755,142.58067,-146.76199)" />
      <path
         transform="matrix(0.3640755,0,0,0.3640755,142.58067,-146.65132)"
         style="fill:none;fill-opacity:1;fill-rule:evenodd;stroke:#5f2c00;stroke-width:1px;stroke-linecap:butt;stroke-linejoin:miter;stroke-opacity:1"
         d="M -318.87048,476.63226 L -313.39891,471.1607 L -289.08086,481.49587"
         id="path5090"
         sodipodi:nodetypes="ccc" />
      <path
         id="path5092"
         d="M -287.86496,433.6397 L -288.77689,490.61514"
         style="fill:none;fill-opacity:1;fill-rule:evenodd;stroke:#622e00;stroke-width:1.10322499px;stroke-linecap:butt;stroke-linejoin:miter;stroke-opacity:1"
         transform="matrix(0.3640755,0,0,0.2991323,133.72706,-121.76142)"
         sodipodi:nodetypes="cc" />
      <path
         transform="matrix(0.3640755,0,0,0.3640755,142.58067,-146.65132)"
         style="fill:#552200;fill-opacity:1;fill-rule:evenodd;stroke:none;stroke-width:1px;stroke-linecap:butt;stroke-linejoin:miter;stroke-opacity:1"
         d="M -319.17446,435.59554 L -313.39892,431.64386 L -287.25701,441.97903 L -287.25701,449.27445 L -319.17446,435.59554 z"
         id="path5087"
         sodipodi:nodetypes="ccccc" />
      <path
         id="path5094"
         d="M -319.17446,435.59554 L -313.39892,431.64386 L -286.95303,442.89096 L -287.56099,449.27445 L -319.17446,435.59554 z"
         style="fill:#552200;fill-opacity:1;fill-rule:evenodd;stroke:none;stroke-width:1px;stroke-linecap:butt;stroke-linejoin:miter;stroke-opacity:1"
         transform="matrix(0.3640755,0,0,0.3640755,142.46999,-142.9992)"
         sodipodi:nodetypes="ccccc" />
      <path
         transform="matrix(0.3640755,0,0,0.3640755,142.46999,-139.01508)"
         style="fill:#552200;fill-opacity:1;fill-rule:evenodd;stroke:none;stroke-width:1px;stroke-linecap:butt;stroke-linejoin:miter;stroke-opacity:1"
         d="M -319.17446,435.59554 L -313.39892,431.64386 L -287.86496,442.58698 L -287.86496,449.27445 L -319.17446,435.59554 z"
         id="path5096"
         sodipodi:nodetypes="ccccc" />
      <path
         id="path5098"
         d="M -319.17446,435.59554 L -313.39892,431.64386 L -287.86496,442.89096 L -288.77689,448.6665 L -319.17446,435.59554 z"
         style="fill:#552200;fill-opacity:1;fill-rule:evenodd;stroke:none;stroke-width:1px;stroke-linecap:butt;stroke-linejoin:miter;stroke-opacity:1"
         transform="matrix(0.3640755,0,0,0.3640755,142.46999,-134.25626)"
         sodipodi:nodetypes="ccccc" />
      <path
         transform="matrix(0.3640755,0,0,0.3640755,142.58067,-146.65132)"
         style="fill:none;fill-opacity:1;fill-rule:evenodd;stroke:#622e00;stroke-width:1px;stroke-linecap:butt;stroke-linejoin:miter;stroke-opacity:1"
         d="M -318.87048,421.30869 L -286.95304,434.98759 L -289.08087,490.61514"
         id="path5085"
         sodipodi:nodetypes="ccc" />
      <path
         sodipodi:nodetypes="cc"
         id="path5100"
         d="M -318.87047,421.30869 L -288.16894,434.68361"
         style="fill:none;fill-opacity:1;fill-rule:evenodd;stroke:#622e00;stroke-width:1px;stroke-linecap:butt;stroke-linejoin:miter;stroke-opacity:1"
         transform="matrix(0.3640755,0,0,0.3640755,142.69134,-141.22848)" />
      <path
         transform="matrix(0.3640755,0,0,0.3640755,142.91268,-137.4657)"
         style="fill:none;fill-opacity:1;fill-rule:evenodd;stroke:#622e00;stroke-width:1px;stroke-linecap:butt;stroke-linejoin:miter;stroke-opacity:1"
         d="M -320.08638,421.00471 L -288.16894,434.68361"
         id="path5102"
         sodipodi:nodetypes="cc" />
      <path
         sodipodi:nodetypes="cc"
         id="path5105"
         d="M -319.17445,421.00471 L -288.16894,434.68361"
         style="fill:none;fill-opacity:1;fill-rule:evenodd;stroke:#622e00;stroke-width:1px;stroke-linecap:butt;stroke-linejoin:miter;stroke-opacity:1"
         transform="matrix(0.3640755,0,0,0.3640755,142.69134,-133.59225)" />
      <path
         transform="matrix(0.3640755,0,0,0.3640755,142.58067,-128.72276)"
         style="fill:none;fill-opacity:1;fill-rule:evenodd;stroke:#622e00;stroke-width:1px;stroke-linecap:butt;stroke-linejoin:miter;stroke-opacity:1"
         d="M -319.17445,421.00471 L -289.08087,434.07566"
         id="path5107"
         sodipodi:nodetypes="cc" />
      <path
         transform="matrix(0.3640755,0,0,0.3640755,142.58067,-146.65132)"
         sodipodi:type="arc"
         style="fill:#008000;fill-opacity:1;fill-rule:evenodd;stroke:#db4000;stroke-width:0.2;stroke-linecap:round;stroke-linejoin:round;stroke-miterlimit:4;stroke-dasharray:none;stroke-dashoffset:0;stroke-opacity:1"
         id="path4078"
         sodipodi:cx="-302.75977"
         sodipodi:cy="524.35645"
         sodipodi:rx="5.1675863"
         sodipodi:ry="4.8636107"
         d="M -297.59218,524.35645 A 5.1675863,4.8636107 0 1 1 -307.92735,524.35645 A 5.1675863,4.8636107 0 1 1 -297.59218,524.35645 z" />
      <path
         d="M -297.59218,524.35645 A 5.1675863,4.8636107 0 1 1 -307.92735,524.35645 A 5.1675863,4.8636107 0 1 1 -297.59218,524.35645 z"
         sodipodi:ry="4.8636107"
         sodipodi:rx="5.1675863"
         sodipodi:cy="524.35645"
         sodipodi:cx="-302.75977"
         id="path4080"
         style="fill:#008000;fill-opacity:1;fill-rule:evenodd;stroke:none;stroke-width:0.2915476;stroke-linecap:round;stroke-linejoin:round;stroke-miterlimit:4;stroke-dasharray:none;stroke-dashoffset:0;stroke-opacity:1"
         sodipodi:type="arc"
         transform="matrix(0.1713296,0,0,0.3640755,83.78229,-148.75405)" />
      <path
         transform="matrix(0.1130972,0.1286968,-0.2734807,0.2403316,211.98798,-44.239879)"
         sodipodi:type="arc"
         style="fill:#008000;fill-opacity:1;fill-rule:evenodd;stroke:none;stroke-width:0.2915476;stroke-linecap:round;stroke-linejoin:round;stroke-miterlimit:4;stroke-dasharray:none;stroke-dashoffset:0;stroke-opacity:1"
         id="path4082"
         sodipodi:cx="-302.75977"
         sodipodi:cy="524.35645"
         sodipodi:rx="5.1675863"
         sodipodi:ry="4.8636107"
         d="M -297.59218,524.35645 A 5.1675863,4.8636107 0 1 1 -307.92735,524.35645 A 5.1675863,4.8636107 0 1 1 -297.59218,524.35645 z" />
      <path
         d="M -297.59218,524.35645 A 5.1675863,4.8636107 0 1 1 -307.92735,524.35645 A 5.1675863,4.8636107 0 1 1 -297.59218,524.35645 z"
         sodipodi:ry="4.8636107"
         sodipodi:rx="5.1675863"
         sodipodi:cy="524.35645"
         sodipodi:cx="-302.75977"
         id="path4084"
         style="fill:#008000;fill-opacity:1;fill-rule:evenodd;stroke:none;stroke-width:0.2915476;stroke-linecap:round;stroke-linejoin:round;stroke-miterlimit:4;stroke-dasharray:none;stroke-dashoffset:0;stroke-opacity:1"
         sodipodi:type="arc"
         transform="matrix(1.2573092e-2,0.1708677,-0.3630938,2.6717831e-2,229.31722,82.197546)" />
      <path
         transform="matrix(-0.1713296,0,0,-0.3640755,-18.63667,237.048)"
         sodipodi:type="arc"
         style="fill:#008000;fill-opacity:1;fill-rule:evenodd;stroke:none;stroke-width:0.2915476;stroke-linecap:round;stroke-linejoin:round;stroke-miterlimit:4;stroke-dasharray:none;stroke-dashoffset:0;stroke-opacity:1"
         id="path4086"
         sodipodi:cx="-302.75977"
         sodipodi:cy="524.35645"
         sodipodi:rx="5.1675863"
         sodipodi:ry="4.8636107"
         d="M -297.59218,524.35645 A 5.1675863,4.8636107 0 1 1 -307.92735,524.35645 A 5.1675863,4.8636107 0 1 1 -297.59218,524.35645 z" />
      <path
         d="M -297.59218,524.35645 A 5.1675863,4.8636107 0 1 1 -307.92735,524.35645 A 5.1675863,4.8636107 0 1 1 -297.59218,524.35645 z"
         sodipodi:ry="4.8636107"
         sodipodi:rx="5.1675863"
         sodipodi:cy="524.35645"
         sodipodi:cx="-302.75977"
         id="path4088"
         style="fill:#008000;fill-opacity:1;fill-rule:evenodd;stroke:none;stroke-width:0.2915476;stroke-linecap:round;stroke-linejoin:round;stroke-miterlimit:4;stroke-dasharray:none;stroke-dashoffset:0;stroke-opacity:1"
         sodipodi:type="arc"
         transform="matrix(-0.1130972,-0.1286968,0.2734807,-0.2403316,-146.39968,132.53381)" />
      <path
         transform="matrix(-1.2573092e-2,-0.1708677,0.3630938,-2.6717831e-2,-163.72892,6.0963819)"
         sodipodi:type="arc"
         style="fill:#008000;fill-opacity:1;fill-rule:evenodd;stroke:none;stroke-width:0.2915476;stroke-linecap:round;stroke-linejoin:round;stroke-miterlimit:4;stroke-dasharray:none;stroke-dashoffset:0;stroke-opacity:1"
         id="path4090"
         sodipodi:cx="-302.75977"
         sodipodi:cy="524.35645"
         sodipodi:rx="5.1675863"
         sodipodi:ry="4.8636107"
         d="M -297.59218,524.35645 A 5.1675863,4.8636107 0 1 1 -307.92735,524.35645 A 5.1675863,4.8636107 0 1 1 -297.59218,524.35645 z" />
      <path
         sodipodi:nodetypes="ccccc"
         style="fill:#fffffe;fill-opacity:1;fill-rule:evenodd;stroke:none;stroke-width:1px;stroke-linecap:butt;stroke-linejoin:miter;stroke-opacity:1"
         d="M -219.67201,309.94817 L -208.74657,308.10768 L -210.25118,314.55598 L -220.10189,316.39647 L -219.67201,309.94817 z"
         id="path5055"
         transform="matrix(0.2903022,0.2197172,-0.2197172,0.2903022,145.18308,-11.010943)" />
      <path
         transform="matrix(0.2903826,3.5536198e-2,-0.1040664,0.3386445,108.07462,-66.046243)"
         style="fill:#cccccc;fill-opacity:1;fill-rule:evenodd;stroke:none;stroke-width:1px;stroke-linecap:butt;stroke-linejoin:miter;stroke-opacity:1"
         d="M -219.67201,309.94817 L -208.06507,311.02289 L -209.56968,317.47119 L -220.10189,316.39647 L -219.67201,309.94817 z"
         id="path5057" />
      <path
         sodipodi:nodetypes="ccccc"
         id="path5061"
         d="M -217.95775,309.11003 L -205.91867,312.49427 L -207.42328,318.94257 L -220.62847,314.69331 L -217.95775,309.11003 z"
         style="fill:#808080;fill-opacity:1;fill-rule:evenodd;stroke:none;stroke-width:1px;stroke-linecap:butt;stroke-linejoin:miter;stroke-opacity:1"
         transform="matrix(0.2795197,-8.6334461e-2,4.353644e-2,0.3515885,60.116454,-94.871029)" />
      <path
         sodipodi:nodetypes="ccccc"
         transform="matrix(0.3449136,0,0,0.1991038,187.85638,-86.516206)"
         id="path4096"
         d="M -455.65954,488.18333 L -455.35556,503.38211 L -450.18798,495.3832 L -449.884,481.7043 L -455.65954,488.18333 z"
         style="fill:#3c200d;fill-opacity:1;fill-rule:evenodd;stroke:none;stroke-width:1.35224688px;stroke-linecap:butt;stroke-linejoin:miter;stroke-opacity:1" />
      <path
         style="fill:#7c421b;fill-opacity:1;fill-rule:evenodd;stroke:none;stroke-width:1.35224688px;stroke-linecap:butt;stroke-linejoin:miter;stroke-opacity:1"
         d="M -455.65954,488.18333 L -455.35556,503.38211 L -450.18798,495.3832 L -449.884,481.7043 L -455.65954,488.18333 z"
         id="path4098"
         transform="matrix(0.3640755,0,0,0.1991038,196.91968,-86.184195)"
         sodipodi:nodetypes="ccccc" />
      <path
         style="fill:#3c200d;fill-opacity:1;fill-rule:evenodd;stroke:none;stroke-width:1.35224688px;stroke-linecap:butt;stroke-linejoin:miter;stroke-opacity:1"
         d="M -455.65954,488.18333 L -455.35556,503.38211 L -450.18798,495.3832 L -449.884,481.7043 L -455.65954,488.18333 z"
         id="path4100"
         transform="matrix(0.3449136,0,0,0.1991038,188.96309,-86.184198)"
         sodipodi:nodetypes="ccccc" />
      <path
         sodipodi:nodetypes="ccccc"
         transform="matrix(0.3640755,0,0,0.1991038,198.02638,-85.852187)"
         id="path4102"
         d="M -455.65954,488.18333 L -455.35556,503.38211 L -450.18798,495.3832 L -449.884,481.7043 L -455.65954,488.18333 z"
         style="fill:#7c421b;fill-opacity:1;fill-rule:evenodd;stroke:none;stroke-width:1.35224688px;stroke-linecap:butt;stroke-linejoin:miter;stroke-opacity:1" />
      <path
         sodipodi:nodetypes="ccccc"
         transform="matrix(0.3449136,0,0,0.1991038,190.06979,-85.409507)"
         id="path4104"
         d="M -455.65954,488.18333 L -455.35556,503.38211 L -450.18798,495.3832 L -449.884,481.7043 L -455.65954,488.18333 z"
         style="fill:#3c200d;fill-opacity:1;fill-rule:evenodd;stroke:none;stroke-width:1.35224688px;stroke-linecap:butt;stroke-linejoin:miter;stroke-opacity:1" />
      <path
         style="fill:#7c421b;fill-opacity:1;fill-rule:evenodd;stroke:none;stroke-width:1.35224688px;stroke-linecap:butt;stroke-linejoin:miter;stroke-opacity:1"
         d="M -455.65954,488.18333 L -455.35556,503.38211 L -450.18798,495.3832 L -449.884,481.7043 L -455.65954,488.18333 z"
         id="path4106"
         transform="matrix(0.3640755,0,0,0.1991038,199.13308,-85.077496)"
         sodipodi:nodetypes="ccccc" />
      <path
         style="fill:#3c200d;fill-opacity:1;fill-rule:evenodd;stroke:none;stroke-width:1.35224688px;stroke-linecap:butt;stroke-linejoin:miter;stroke-opacity:1"
         d="M -455.65954,488.18333 L -455.35556,503.38211 L -450.18798,495.3832 L -449.884,481.7043 L -455.65954,488.18333 z"
         id="path4108"
         transform="matrix(0.3449136,0,0,0.1991038,191.06582,-84.966828)"
         sodipodi:nodetypes="ccccc" />
      <path
         sodipodi:nodetypes="ccccc"
         transform="matrix(0.3640755,0,0,0.1991038,200.12911,-84.634817)"
         id="path4110"
         d="M -455.65954,488.18333 L -455.35556,503.38211 L -450.18798,495.3832 L -449.884,481.7043 L -455.65954,488.18333 z"
         style="fill:#7c421b;fill-opacity:1;fill-rule:evenodd;stroke:none;stroke-width:1.35224688px;stroke-linecap:butt;stroke-linejoin:miter;stroke-opacity:1" />
      <path
         style="fill:#3c200d;fill-opacity:1;fill-rule:evenodd;stroke:none;stroke-width:1.35224688px;stroke-linecap:butt;stroke-linejoin:miter;stroke-opacity:1"
         d="M -455.65954,488.18333 L -455.35556,503.38211 L -450.18798,495.3832 L -449.884,481.7043 L -455.65954,488.18333 z"
         id="path4124"
         transform="matrix(0.3449136,0,0,0.1706604,184.42561,-60.973193)"
         sodipodi:nodetypes="ccccc" />
      <path
         sodipodi:nodetypes="ccccc"
         transform="matrix(0.3640755,0,0,0.1706604,193.48891,-60.688614)"
         id="path4126"
         d="M -455.65954,488.18333 L -455.35556,503.38211 L -450.18798,495.3832 L -449.884,481.7043 L -455.65954,488.18333 z"
         style="fill:#7c421b;fill-opacity:1;fill-rule:evenodd;stroke:none;stroke-width:1.35224688px;stroke-linecap:butt;stroke-linejoin:miter;stroke-opacity:1" />
      <path
         sodipodi:nodetypes="ccccc"
         transform="matrix(0.3449136,0,0,0.1706604,185.53232,-60.688617)"
         id="path4128"
         d="M -455.65954,488.18333 L -455.35556,503.38211 L -450.18798,495.3832 L -449.884,481.7043 L -455.65954,488.18333 z"
         style="fill:#3c200d;fill-opacity:1;fill-rule:evenodd;stroke:none;stroke-width:1.35224688px;stroke-linecap:butt;stroke-linejoin:miter;stroke-opacity:1" />
      <path
         style="fill:#7c421b;fill-opacity:1;fill-rule:evenodd;stroke:none;stroke-width:1.35224688px;stroke-linecap:butt;stroke-linejoin:miter;stroke-opacity:1"
         d="M -455.65954,488.18333 L -455.35556,503.38211 L -450.18798,495.3832 L -449.884,481.7043 L -455.65954,488.18333 z"
         id="path4130"
         transform="matrix(0.3640755,0,0,0.1706604,194.59561,-60.404034)"
         sodipodi:nodetypes="ccccc" />
      <path
         style="fill:#3c200d;fill-opacity:1;fill-rule:evenodd;stroke:none;stroke-width:1.35224688px;stroke-linecap:butt;stroke-linejoin:miter;stroke-opacity:1"
         d="M -455.65954,488.18333 L -455.35556,503.38211 L -450.18798,495.3832 L -449.884,481.7043 L -455.65954,488.18333 z"
         id="path4132"
         transform="matrix(0.3449136,0,0,0.1706604,186.63902,-60.024594)"
         sodipodi:nodetypes="ccccc" />
      <path
         sodipodi:nodetypes="ccccc"
         transform="matrix(0.3640755,0,0,0.1706604,195.70231,-59.740015)"
         id="path4134"
         d="M -455.65954,488.18333 L -455.35556,503.38211 L -450.18798,495.3832 L -449.884,481.7043 L -455.65954,488.18333 z"
         style="fill:#7c421b;fill-opacity:1;fill-rule:evenodd;stroke:none;stroke-width:1.35224688px;stroke-linecap:butt;stroke-linejoin:miter;stroke-opacity:1" />
      <path
         sodipodi:nodetypes="ccccc"
         transform="matrix(0.3449136,0,0,0.1706604,187.63505,-59.645155)"
         id="path4136"
         d="M -455.65954,488.18333 L -455.35556,503.38211 L -450.18798,495.3832 L -449.884,481.7043 L -455.65954,488.18333 z"
         style="fill:#3c200d;fill-opacity:1;fill-rule:evenodd;stroke:none;stroke-width:1.35224688px;stroke-linecap:butt;stroke-linejoin:miter;stroke-opacity:1" />
      <path
         style="fill:#c56a1b;fill-opacity:1;fill-rule:evenodd;stroke:none;stroke-width:1.35224688px;stroke-linecap:butt;stroke-linejoin:miter;stroke-opacity:1"
         d="M -455.65954,488.18333 L -455.35556,503.38211 L -450.18798,495.3832 L -449.884,481.7043 L -455.65954,488.18333 z"
         id="path4138"
         transform="matrix(0.3640755,0,0,0.1706604,196.69834,-59.360575)"
         sodipodi:nodetypes="ccccc" />
      <path
         style="fill:#3c200d;fill-opacity:1;fill-rule:evenodd;stroke:none;stroke-width:1.35224688px;stroke-linecap:butt;stroke-linejoin:miter;stroke-opacity:1"
         d="M -455.65954,488.18333 L -455.35556,503.38211 L -450.18798,495.3832 L -449.884,481.7043 L -455.65954,488.18333 z"
         id="path4143"
         transform="matrix(0.3449136,0,0,0.1706604,188.63108,-58.981132)"
         sodipodi:nodetypes="ccccc" />
      <path
         sodipodi:nodetypes="ccccc"
         transform="matrix(0.3640755,0,0,0.1706604,197.69437,-58.696553)"
         id="path4145"
         d="M -455.65954,488.18333 L -455.35556,503.38211 L -450.18798,495.3832 L -449.884,481.7043 L -455.65954,488.18333 z"
         style="fill:#c56a1b;fill-opacity:1;fill-rule:evenodd;stroke:none;stroke-width:1.35224688px;stroke-linecap:butt;stroke-linejoin:miter;stroke-opacity:1" />
      <path
         sodipodi:nodetypes="ccccc"
         transform="matrix(0.3449136,0,0,0.1706604,189.73778,-58.696553)"
         id="path4147"
         d="M -455.65954,488.18333 L -455.35556,503.38211 L -450.18798,495.3832 L -449.884,481.7043 L -455.65954,488.18333 z"
         style="fill:#3c200d;fill-opacity:1;fill-rule:evenodd;stroke:none;stroke-width:1.35224688px;stroke-linecap:butt;stroke-linejoin:miter;stroke-opacity:1" />
      <path
         style="fill:#c56a1b;fill-opacity:1;fill-rule:evenodd;stroke:none;stroke-width:1.35224688px;stroke-linecap:butt;stroke-linejoin:miter;stroke-opacity:1"
         d="M -455.65954,488.18333 L -455.35556,503.38211 L -450.18798,495.3832 L -449.884,481.7043 L -455.65954,488.18333 z"
         id="path4149"
         transform="matrix(0.3640755,0,0,0.1706604,198.80108,-58.411973)"
         sodipodi:nodetypes="ccccc" />
      <path
         style="fill:#3c200d;fill-opacity:1;fill-rule:evenodd;stroke:none;stroke-width:1.35224688px;stroke-linecap:butt;stroke-linejoin:miter;stroke-opacity:1"
         d="M -455.65954,488.18333 L -455.35556,503.38211 L -450.18798,495.3832 L -449.884,481.7043 L -455.65954,488.18333 z"
         id="path4151"
         transform="matrix(0.3449136,0,0,0.1706604,190.84448,-58.032534)"
         sodipodi:nodetypes="ccccc" />
      <path
         sodipodi:nodetypes="ccccc"
         transform="matrix(0.3640755,0,0,0.1706604,199.90778,-57.747954)"
         id="path4153"
         d="M -455.65954,488.18333 L -455.35556,503.38211 L -450.18798,495.3832 L -449.884,481.7043 L -455.65954,488.18333 z"
         style="fill:#c56a1b;fill-opacity:1;fill-rule:evenodd;stroke:none;stroke-width:1.35224688px;stroke-linecap:butt;stroke-linejoin:miter;stroke-opacity:1" />
      <path
         sodipodi:nodetypes="ccccc"
         transform="matrix(0.3449136,0,0,0.1706604,191.84051,-57.653094)"
         id="path4155"
         d="M -455.65954,488.18333 L -455.35556,503.38211 L -450.18798,495.3832 L -449.884,481.7043 L -455.65954,488.18333 z"
         style="fill:#3c200d;fill-opacity:1;fill-rule:evenodd;stroke:none;stroke-width:1.35224688px;stroke-linecap:butt;stroke-linejoin:miter;stroke-opacity:1" />
      <path
         style="fill:#c56a1b;fill-opacity:1;fill-rule:evenodd;stroke:none;stroke-width:1.35224688px;stroke-linecap:butt;stroke-linejoin:miter;stroke-opacity:1"
         d="M -455.65954,488.18333 L -455.35556,503.38211 L -450.18798,495.3832 L -449.884,481.7043 L -455.65954,488.18333 z"
         id="path4157"
         transform="matrix(0.3640755,0,0,0.1706604,201.01448,-57.479186)"
         sodipodi:nodetypes="ccccc" />
      <path
         transform="matrix(0.3640755,0,0,0.3174341,142.58067,-123.11211)"
         sodipodi:nodetypes="ccsccsc"
         id="path4167"
         d="M -274.49003,485.75154 L -273.5781,497.30261 C -273.5781,497.30261 -271.60183,499.46943 -270.53834,499.73441 C -266.22349,500.80952 -263.54691,497.30261 -263.54691,497.30261 L -261.72305,486.05551 C -261.72305,486.05551 -264.76281,486.96744 -269.32244,486.05551 C -273.88208,485.14359 -274.794,486.35949 -274.49003,485.75154 z"
         style="fill:url(#linearGradient4710);fill-opacity:1;fill-rule:evenodd;stroke:none;stroke-width:1px;stroke-linecap:butt;stroke-linejoin:miter;stroke-opacity:1" />
      <path
         transform="matrix(0.3640755,0,0,0.3640755,142.35933,-145.54462)"
         d="M -261.11511,484.38364 A 6.3834891,3.1917446 0 1 1 -273.88209,484.38364 A 6.3834891,3.1917446 0 1 1 -261.11511,484.38364 z"
         sodipodi:ry="3.1917446"
         sodipodi:rx="6.3834891"
         sodipodi:cy="484.38364"
         sodipodi:cx="-267.4986"
         id="path4169"
         style="fill:#301905;fill-opacity:1;fill-rule:evenodd;stroke:none;stroke-width:0.2;stroke-linecap:round;stroke-linejoin:round;stroke-miterlimit:4;stroke-dasharray:none;stroke-dashoffset:0;stroke-opacity:1"
         sodipodi:type="arc" />
      <path
         transform="matrix(0.4514536,0,0,0.6067925,165.8568,-264.95727)"
         d="M -263.85088,487.4234 A 3.799696,1.3678905 0 1 1 -271.45027,487.4234 A 3.799696,1.3678905 0 1 1 -263.85088,487.4234 z"
         sodipodi:ry="1.3678905"
         sodipodi:rx="3.799696"
         sodipodi:cy="487.4234"
         sodipodi:cx="-267.65057"
         id="path4181"
         style="fill:#000000;fill-opacity:1;fill-rule:evenodd;stroke:none;stroke-width:0.2;stroke-linecap:round;stroke-linejoin:round;stroke-miterlimit:4;stroke-dasharray:none;stroke-dashoffset:0;stroke-opacity:1"
         sodipodi:type="arc" />
      <path
         transform="matrix(0.3640755,0,0,0.3640755,142.58067,-146.65132)"
         id="path3353"
         d="M -349.57202,496.08671 L -355.34756,496.39069 L -355.34756,496.39069 L -355.34756,496.39069 L -355.34756,496.39069"
         style="fill:none;fill-rule:evenodd;stroke:#232323;stroke-width:1px;stroke-linecap:butt;stroke-linejoin:miter;stroke-opacity:1" />
      <path
         transform="matrix(0.3640755,0,0,0.3640755,142.58067,-146.65132)"
         sodipodi:nodetypes="ccccc"
         id="path4135"
         d="M -268.41051,436.81146 L -269.32245,460.82554 L -238.01295,473.89649 L -237.40499,451.40229 L -268.41051,436.81146 z"
         style="fill:#b9b9dd;fill-opacity:1;fill-rule:evenodd;stroke:#ffffff;stroke-width:1px;stroke-linecap:butt;stroke-linejoin:miter;stroke-opacity:1" />
      <path
         transform="matrix(0.3640755,0,0,0.3640755,142.58067,-146.65132)"
         id="path4141"
         d="M -268.41051,448.97048 L -237.70897,461.73746 L -237.70897,461.73746 L -237.70897,461.73746 L -237.70897,461.73746"
         style="fill:none;fill-rule:evenodd;stroke:#ffffff;stroke-width:1px;stroke-linecap:butt;stroke-linejoin:miter;stroke-opacity:1" />
      <path
         transform="matrix(0.3640755,0,0,0.3640755,142.58067,-146.65132)"
         sodipodi:nodetypes="csccccscscsc"
         id="path4160"
         d="M -253.51571,444.71482 C -253.51571,444.71482 -253.81968,448.66651 -258.37932,451.70627 C -262.93895,454.74602 -265.06678,456.2659 -265.06678,456.2659 L -263.85088,464.47324 L -269.32244,462.04144 L -268.10654,436.81146 C -268.10654,436.81146 -266.28268,441.06712 -264.76281,441.37109 C -263.24293,441.67507 -261.1151,440.45916 -261.1151,440.45916 C -261.1151,440.45916 -262.02703,442.28302 -259.8992,443.19495 C -257.77137,444.10687 -256.25149,442.89097 -256.25149,442.89097 C -256.25149,442.89097 -257.16341,445.0188 -255.94751,445.62675 C -254.73161,446.2347 -253.21173,444.71482 -253.51571,444.71482 z"
         style="fill:#ff5d26;fill-opacity:1;fill-rule:evenodd;stroke:none;stroke-width:1px;stroke-linecap:butt;stroke-linejoin:miter;stroke-opacity:1" />
      <path
         transform="matrix(0.3640755,0,0,0.3640755,142.24865,-146.42997)"
         sodipodi:nodetypes="cscscscscscscscscscscc"
         id="path4171"
         d="M -268.71449,487.57539 C -268.71449,487.57539 -267.19461,477.24022 -270.23437,476.02432 C -273.27412,474.80841 -276.00991,480.27997 -276.00991,480.27997 C -276.00991,480.27997 -276.03536,474.16139 -274.18605,472.98456 C -270.84232,470.85673 -266.89064,473.28853 -266.89064,473.28853 C -266.89064,473.28853 -269.32245,468.42492 -272.3622,469.03287 C -275.40196,469.64083 -277.83376,472.98456 -277.83376,472.98456 C -277.83376,472.98456 -276.00991,465.38517 -272.3622,465.38517 C -268.71449,465.38517 -266.58666,467.20902 -266.58666,467.20902 C -266.58666,467.20902 -268.71449,461.12951 -265.06678,459.60963 C -261.41907,458.08975 -260.20317,459.60963 -260.20317,459.60963 C -260.20317,459.60963 -262.331,460.52156 -263.24293,462.34541 C -264.15486,464.16926 -264.45883,468.12095 -264.45883,468.12095 C -264.45883,468.12095 -260.50715,465.99312 -258.37932,468.12095 C -256.25149,470.24878 -255.64354,473.28853 -255.64354,473.28853 C -255.64354,473.28853 -257.46739,471.1607 -260.50715,471.1607 C -263.5469,471.1607 -264.15486,473.28853 -264.15486,473.28853 C -264.15486,473.28853 -258.98727,472.98456 -257.77137,476.02432 C -256.55547,479.06408 -256.25149,481.1919 -256.25149,481.1919 C -256.25149,481.1919 -260.21312,475.36911 -263.24293,477.84817 C -265.58904,479.76782 -265.97871,487.57539 -265.97871,487.57539 L -268.71449,487.57539 z"
         style="fill:url(#linearGradient4712);fill-opacity:1;fill-rule:evenodd;stroke:none;stroke-width:1px;stroke-linecap:butt;stroke-linejoin:miter;stroke-opacity:1" />
      <path
         transform="matrix(0.3640755,0,0,0.3640755,142.58067,-146.65132)"
         sodipodi:nodetypes="cc"
         id="path4158"
         d="M -252.90776,444.10687 L -254.12366,466.2971"
         style="fill:none;fill-rule:evenodd;stroke:#ffffff;stroke-width:1px;stroke-linecap:butt;stroke-linejoin:miter;stroke-opacity:1" />
      <path
         transform="matrix(-0.2197363,-0.2437843,-0.1981021,0.2704074,84.090921,-166.17353)"
         style="fill:#ff5d26;fill-opacity:1;fill-rule:evenodd;stroke:none;stroke-width:1px;stroke-linecap:butt;stroke-linejoin:miter;stroke-opacity:1"
         d="M -253.51571,444.71482 C -253.51571,444.71482 -257.48684,451.73991 -265.10964,452.18694 C -267.28765,452.31466 -272.49315,451.61706 -272.49315,451.61706 L -274.57017,458.90205 L -282.17547,456.18365 L -266.79167,437.5876 C -266.79167,437.5876 -266.28268,441.06712 -264.76281,441.37109 C -263.24293,441.67507 -261.1151,440.45916 -261.1151,440.45916 C -261.1151,440.45916 -262.02703,442.28302 -259.8992,443.19495 C -257.77137,444.10687 -256.25149,442.89097 -256.25149,442.89097 C -256.25149,442.89097 -258.12616,444.96938 -256.91026,445.57733 C -255.69436,446.18528 -253.21173,444.71482 -253.51571,444.71482 z"
         id="path4162"
         sodipodi:nodetypes="csccccscscsc" />
      <path
         transform="matrix(0.3640755,0,0,0.3640755,142.58067,-146.65132)"
         id="path4164"
         d="M -265.06678,443.19495 L -265.97871,453.83409 L -266.28268,453.53012"
         style="fill:none;fill-rule:evenodd;stroke:#831500;stroke-width:0.40000001;stroke-linecap:butt;stroke-linejoin:miter;stroke-miterlimit:4;stroke-dasharray:none;stroke-opacity:1" />
      <path
         transform="matrix(0.3389596,0.132881,-0.132881,0.3389596,196.83511,-99.861998)"
         style="fill:none;fill-rule:evenodd;stroke:#831500;stroke-width:0.40000001;stroke-linecap:butt;stroke-linejoin:miter;stroke-miterlimit:4;stroke-dasharray:none;stroke-opacity:1"
         d="M -265.06678,443.19495 L -265.97871,453.83409 L -266.28268,453.53012"
         id="path4168" />
      <path
         id="path4172"
         d="M -265.06678,443.19495 L -265.97871,453.83409 L -266.28268,453.53012"
         style="fill:none;fill-rule:evenodd;stroke:#831500;stroke-width:0.40000001;stroke-linecap:butt;stroke-linejoin:miter;stroke-miterlimit:4;stroke-dasharray:none;stroke-opacity:1"
         transform="matrix(0.3454043,-0.115095,0.115095,0.3454043,94.95446,-165.51709)" />
      <path
         transform="matrix(0.3520734,-9.2710879e-2,9.2710879e-2,0.3520734,105.54748,-163.45015)"
         style="fill:none;fill-rule:evenodd;stroke:#831500;stroke-width:0.40000001;stroke-linecap:butt;stroke-linejoin:miter;stroke-miterlimit:4;stroke-dasharray:none;stroke-opacity:1"
         d="M -265.06678,443.19495 L -265.97871,453.83409 L -266.28268,453.53012"
         id="path4174" />
    </g>
  </g>
</svg>
